SplineFontDB: 3.0
FontName: DejaVuMathTeXGyre-Regular
FullName: DejaVu Math TeX Gyre Regular
FamilyName: DejaVu Math TeX Gyre
Weight: Regular
Copyright: Copyright (c) 2003 by Bitstream, Inc. All Rights Reserved. DejaVu changes are in public domain, math extensions are in public domain.
Version: Version 2.37
ItalicAngle: 0
UnderlinePosition: -160
UnderlineWidth: 52
Ascent: 800
Descent: 200
InvalidEm: 0
LayerCount: 2
Layer: 0 0 "Back" 1
Layer: 1 0 "Fore" 0
FSType: 12
OS2Version: 0
OS2_WeightWidthSlopeOnly: 0
OS2_UseTypoMetrics: 1
PfmFamily: 17
TTFWeight: 400
TTFWidth: 5
LineGap: 200
VLineGap: 90
Panose: 2 0 5 3 0 0 0 0 0 0
OS2TypoAscent: 792
OS2TypoAOffset: 0
OS2TypoDescent: -208
OS2TypoDOffset: 0
OS2TypoLinegap: 200
OS2WinAscent: 2408
OS2WinAOffset: 0
OS2WinDescent: 1858
OS2WinDOffset: 0
HheadAscent: 792
HheadAOffset: 0
HheadDescent: -208
HheadDOffset: 0
OS2SubXSize: 650
OS2SubYSize: 699
OS2SubXOff: 0
OS2SubYOff: 140
OS2SupXSize: 650
OS2SupYSize: 699
OS2SupXOff: 0
OS2SupYOff: 479
OS2StrikeYSize: 49
OS2StrikeYPos: 258
Lookup: 3 0 0 "'aalt' Access All Alternates in Mathematical Alphanumeric Symbols lookup 0" { "'aalt' Access All Alternates in Mathematical Alphanumeric Symbols lookup 0 subtable"  } ['aalt' ('math' <'dflt' > ) ]
Lookup: 1 0 0 "dtlsMATH" { "dtlsMATH subtable"  } ['dtls' ('math' <'dflt' > ) ]
Lookup: 3 0 0 "sstyMATH" { "sstyMATH subtable"  } ['ssty' ('math' <'dflt' > ) ]
DEI: 91125
LangName: 1033 "Copyright (c) 2003 by Bitstream, Inc. All Rights Reserved. DejaVu changes are in public domain, math extensions are in public domain." "DejaVu Math TeX Gyre" "Regular" "1.054" "DejaVuMathTeXGyre-Regular" "Version 2.37" "" "Please refer to the Copyright section for the font trademark attribution notices." "" "" "" "http://www.gust.org.pl/projects/e-foundry" "" "" "http://dejavu-fonts.org/wiki/License" "" "DejaVu Math TeX Gyre" "Regular"
MATH:ScriptPercentScaleDown: 80
MATH:ScriptScriptPercentScaleDown: 65
MATH:DelimitedSubFormulaMinHeight: 1333

StartChar: exclam
Encoding: 33 33 33
Width: 401
Flags: W
LayerCount: 2
Fore
SplineSet
264 729 m 1xd0
 231 328 l 1
 231 205 l 1
 171 205 l 1
 171 328 l 1
 138 729 l 1
 264 729 l 1xd0
266 51 m 0xe0
 266 33 260 18 247 5 c 0
 234 -8 219 -14 201 -14 c 0
 182 -14 167 -8 154 5 c 0
 142 18 136 33 136 51 c 0
 136 69 142 84 154 97 c 0
 167 110 182 116 201 116 c 0
 219 116 234 110 247 97 c 0
 260 84 266 69 266 51 c 0xe0
EndSplineSet
AlternateSubs2: "'aalt' Access All Alternates in Mathematical Alphanumeric Symbols lookup 0 subtable" exclam.st exclam.sts
AlternateSubs2: "sstyMATH subtable" exclam.st exclam.sts
EndChar
StartChar: quotedbl
Encoding: 34 34 34
Width: 459
Flags: W
LayerCount: 2
Fore
SplineSet
362 458 m 1
 284 458 l 1
 284 729 l 1
 362 729 l 1
 362 458 l 1
176 458 m 1
 98 458 l 1
 98 729 l 1
 176 729 l 1
 176 458 l 1
EndSplineSet
AlternateSubs2: "'aalt' Access All Alternates in Mathematical Alphanumeric Symbols lookup 0 subtable" quotedbl.st quotedbl.sts
AlternateSubs2: "sstyMATH subtable" quotedbl.st quotedbl.sts
EndChar
StartChar: numbersign
Encoding: 35 35 35
Width: 837
Flags: W
LayerCount: 2
Fore
SplineSet
761 440 m 1
 592 440 l 1
 552 277 l 1
 705 277 l 1
 705 202 l 1
 533 202 l 1
 483 0 l 1
 399 0 l 1
 450 202 l 1
 312 202 l 1
 261 0 l 1
 178 0 l 1
 228 202 l 1
 77 202 l 1
 77 277 l 1
 247 277 l 1
 287 440 l 1
 133 440 l 1
 133 515 l 1
 306 515 l 1
 357 718 l 1
 440 718 l 1
 390 515 l 1
 528 515 l 1
 578 718 l 1
 662 718 l 1
 611 515 l 1
 761 515 l 1
 761 440 l 1
509 440 m 1
 371 440 l 1
 330 277 l 1
 469 277 l 1
 509 440 l 1
EndSplineSet
AlternateSubs2: "'aalt' Access All Alternates in Mathematical Alphanumeric Symbols lookup 0 subtable" numbersign.st numbersign.sts
AlternateSubs2: "sstyMATH subtable" numbersign.st numbersign.sts
EndChar
StartChar: dollar
Encoding: 36 36 36
Width: 636
Flags: W
LayerCount: 2
Fore
SplineSet
553 171 m 0xe6
 553 117 534 74 496 41 c 0
 459 8 406 -10 337 -15 c 1
 337 -147 l 1
 288 -147 l 1
 288 -15 l 1
 257 -14 224 -10 191 -2 c 0
 158 7 123 19 86 35 c 1
 86 170 l 1
 139 170 l 1xee
 140 125 153 92 178 69 c 0
 203 46 239 34 288 33 c 1
 288 270 l 1
 213 291 161 315 130 342 c 0
 100 369 85 405 85 450 c 0
 85 502 103 544 138 576 c 0
 174 607 224 625 288 629 c 1
 288 760 l 1
 337 760 l 1
 337 629 l 1
 370 626 401 621 432 613 c 0
 463 605 492 594 521 581 c 1
 521 453 l 1
 468 453 l 1xf5
 464 491 451 521 428 542 c 0
 406 564 376 577 337 580 c 1
 337 359 l 1
 417 337 473 312 505 284 c 0
 537 256 553 218 553 171 c 0xe6
288 375 m 1
 288 580 l 1
 255 578 229 568 210 551 c 0
 191 534 182 511 182 482 c 0xf4
 182 456 190 434 208 417 c 0
 225 400 251 386 288 375 c 1
450 138 m 0xe6
 450 166 440 190 422 210 c 0
 402 229 374 244 337 254 c 1
 337 33 l 1
 374 36 402 47 421 65 c 0
 440 83 450 107 450 138 c 0xe6
EndSplineSet
AlternateSubs2: "'aalt' Access All Alternates in Mathematical Alphanumeric Symbols lookup 0 subtable" dollar.st dollar.sts
AlternateSubs2: "sstyMATH subtable" dollar.st dollar.sts
EndChar
StartChar: percent
Encoding: 37 37 37
Width: 950
Flags: W
LayerCount: 2
Fore
SplineSet
392 544 m 0
 392 483 377 434 346 398 c 0
 316 363 275 345 223 345 c 0
 171 345 130 363 100 398 c 0
 70 434 55 483 55 544 c 0
 55 605 70 653 100 688 c 0
 131 724 172 742 223 742 c 0
 274 742 315 724 346 688 c 0
 377 653 392 605 392 544 c 0
740 742 m 1
 284 -14 l 1
 210 -14 l 1
 666 742 l 1
 740 742 l 1
895 184 m 0
 895 123 880 75 850 40 c 0
 819 4 778 -14 727 -14 c 0
 675 -14 634 4 604 40 c 0
 573 75 558 123 558 184 c 0
 558 245 573 294 604 330 c 0
 634 365 675 383 727 383 c 0
 778 383 819 365 850 329 c 0
 880 293 895 245 895 184 c 0
817 184 m 0
 817 232 809 270 793 298 c 0
 777 325 755 339 727 339 c 0
 699 339 677 325 660 298 c 0
 644 271 636 233 636 184 c 0
 636 136 644 98 660 72 c 0
 677 44 699 31 727 31 c 0
 755 31 777 44 793 72 c 0
 809 98 817 136 817 184 c 0
314 543 m 0
 314 591 306 629 290 656 c 0
 274 683 252 697 224 697 c 0
 195 697 173 684 157 656 c 0
 141 630 133 592 133 543 c 0
 133 495 141 457 158 430 c 0
 174 403 196 389 224 389 c 0
 252 389 274 403 290 430 c 0
 306 457 314 495 314 543 c 0
EndSplineSet
AlternateSubs2: "'aalt' Access All Alternates in Mathematical Alphanumeric Symbols lookup 0 subtable" percent.st percent.sts
AlternateSubs2: "sstyMATH subtable" percent.st percent.sts
EndChar
StartChar: ampersand
Encoding: 38 38 38
Width: 890
Flags: W
LayerCount: 2
Fore
SplineSet
843 0 m 1x6f80
 647 0 l 1x6f80
 580 71 l 1
 546 42 510 21 471 7 c 0
 432 -7 390 -14 345 -14 c 0
 261 -14 194 8 146 50 c 0
 96 94 72 152 72 225 c 0
 72 268 84 309 109 346 c 0
 134 384 171 419 222 452 c 1
 205 472 193 492 186 512 c 0
 178 531 174 552 174 573 c 0
 174 625 193 666 230 696 c 0
 267 727 318 742 382 742 c 0xaf80
 404 742 430 739 458 734 c 0
 488 729 521 720 558 709 c 1
 558 583 l 1
 503 583 l 1x3780
 498 618 486 644 465 662 c 0
 444 681 416 690 380 690 c 0
 347 690 320 681 298 662 c 0
 278 644 267 620 267 591 c 0
 267 571 272 551 284 532 c 0
 295 512 318 484 353 447 c 2
 605 181 l 1
 628 207 645 235 658 266 c 0
 671 296 679 328 682 362 c 1
 594 362 l 1
 594 414 l 1
 825 414 l 1
 825 362 l 1
 741 362 l 1
 736 320 725 280 709 244 c 0
 693 206 671 172 644 141 c 1
 728 52 l 1
 843 52 l 1
 843 0 l 1x6f80
540 113 m 1
 256 412 l 1
 228 387 207 359 192 330 c 0
 178 301 171 269 171 236 c 0
 171 182 190 137 227 100 c 0
 264 63 311 45 367 45 c 0xa780
 400 45 432 51 461 62 c 0
 490 74 517 91 540 113 c 1
EndSplineSet
AlternateSubs2: "'aalt' Access All Alternates in Mathematical Alphanumeric Symbols lookup 0 subtable" ampersand.st ampersand.sts
AlternateSubs2: "sstyMATH subtable" ampersand.st ampersand.sts
EndChar
StartChar: quoteright
Encoding: 39 8217 39
Width: 317
Flags: W
LayerCount: 2
Fore
SplineSet
238 729 m 1
 238 673 228 625 207 586 c 0
 186 546 154 511 109 482 c 1
 71 521 l 1
 96 542 115 566 126 594 c 0
 137 622 143 657 143 699 c 2
 143 729 l 1
 238 729 l 1
EndSplineSet
AlternateSubs2: "'aalt' Access All Alternates in Mathematical Alphanumeric Symbols lookup 0 subtable" quoteright.st quoteright.sts
AlternateSubs2: "sstyMATH subtable" quoteright.st quoteright.sts
EndChar
StartChar: parenleft
Encoding: 40 40 40
Width: 424
Flags: W
GlyphVariantsVertical: parenleft parenleft.v1 parenleft.v2 parenleft.v3 parenleft.v4 parenleft.v5 parenleft.v6
GlyphCompositionVertical: 3  uni239D%0,0,209,1295 uni239C%1,418,418,418 uni239B%0,209,0,1295
LayerCount: 2
Fore
SplineSet
371 -176 m 1
 293 -137 227 -90 188 -16 c 0
 152 54 120 137 120 240 c 2
 120 310 l 2
 120 413 152 496 188 566 c 0
 227 640 293 687 371 726 c 1
 371 668 l 1
 313 639 279 589 250 534 c 0
 219 474 217 398 217 310 c 2
 217 240 l 2
 217 152 219 76 250 16 c 0
 279 -39 313 -89 371 -118 c 1
 371 -176 l 1
EndSplineSet
EndChar
StartChar: parenright
Encoding: 41 41 41
Width: 424
Flags: W
GlyphVariantsVertical: parenright parenright.v1 parenright.v2 parenright.v3 parenright.v4 parenright.v5 parenright.v6
GlyphCompositionVertical: 3  uni23A0%0,0,209,1295 uni239F%1,418,418,418 uni239E%0,209,0,1295
LayerCount: 2
Fore
SplineSet
303 240 m 2
 303 137 272 54 236 -16 c 0
 197 -90 130 -137 53 -176 c 1
 53 -118 l 1
 111 -89 145 -39 173 16 c 0
 205 76 206 152 206 240 c 2
 206 310 l 2
 206 398 205 474 173 534 c 0
 145 589 111 639 53 668 c 1
 53 726 l 1
 130 687 197 640 236 566 c 0
 272 496 303 413 303 310 c 2
 303 240 l 2
EndSplineSet
EndChar
StartChar: asterisk
Encoding: 42 42 42
Width: 500
Flags: W
LayerCount: 2
Fore
SplineSet
474 437 m 1
 434 372 l 1
 278 469 l 1
 290 295 l 1
 210 295 l 1
 222 469 l 1
 66 372 l 1
 26 437 l 1
 194 515 l 1
 26 592 l 1
 66 657 l 1
 222 560 l 1
 210 735 l 1
 290 735 l 1
 278 560 l 1
 434 657 l 1
 474 592 l 1
 306 515 l 1
 474 437 l 1
EndSplineSet
EndChar
StartChar: plus
Encoding: 43 43 43
Width: 788
Flags: W
LayerCount: 2
Fore
SplineSet
708 235 m 1
 434 235 l 1
 434 -39 l 1
 354 -39 l 1
 354 235 l 1
 80 235 l 1
 80 315 l 1
 354 315 l 1
 354 589 l 1
 434 589 l 1
 434 315 l 1
 708 315 l 1
 708 235 l 1
EndSplineSet
EndChar
StartChar: comma
Encoding: 44 44 44
Width: 317
Flags: W
LayerCount: 2
Fore
SplineSet
221 111 m 1
 218 56 205 8 182 -32 c 0
 158 -72 122 -107 75 -136 c 1
 36 -97 l 1
 67 -74 89 -48 104 -18 c 0
 118 13 125 50 125 93 c 2
 125 111 l 1
 221 111 l 1
EndSplineSet
AlternateSubs2: "'aalt' Access All Alternates in Mathematical Alphanumeric Symbols lookup 0 subtable" comma.st comma.sts
AlternateSubs2: "sstyMATH subtable" comma.st comma.sts
EndChar
StartChar: hyphen
Encoding: 45 45 45
Width: 337
Flags: W
LayerCount: 2
Fore
SplineSet
294 230 m 1
 44 230 l 1
 44 306 l 1
 294 306 l 1
 294 230 l 1
EndSplineSet
AlternateSubs2: "'aalt' Access All Alternates in Mathematical Alphanumeric Symbols lookup 0 subtable" hyphen.st hyphen.sts
AlternateSubs2: "sstyMATH subtable" hyphen.st hyphen.sts
EndChar
StartChar: period
Encoding: 46 46 46
Width: 317
Flags: W
LayerCount: 2
Fore
SplineSet
224 51 m 0
 224 33 218 18 205 5 c 0
 192 -8 177 -14 159 -14 c 0
 140 -14 125 -8 112 5 c 0
 100 18 94 33 94 51 c 0
 94 69 100 84 112 97 c 0
 125 110 140 116 159 116 c 0
 177 116 192 110 205 97 c 0
 218 84 224 69 224 51 c 0
EndSplineSet
AlternateSubs2: "'aalt' Access All Alternates in Mathematical Alphanumeric Symbols lookup 0 subtable" period.st period.sts
AlternateSubs2: "sstyMATH subtable" period.st period.sts
EndChar
StartChar: slash
Encoding: 47 47 47
Width: 452
Flags: W
GlyphVariantsVertical: slash slash.v1 slash.v2 slash.v3 slash.v4 slash.v5 slash.v6
LayerCount: 2
Fore
SplineSet
372 697 m 1
 146 -147 l 1
 80 -147 l 1
 306 697 l 1
 372 697 l 1
EndSplineSet
EndChar
StartChar: zero
Encoding: 48 48 48
Width: 636
Flags: W
TopAccentHorizontal: 318
LayerCount: 2
Fore
SplineSet
570 364 m 0
 570 245 548 152 504 86 c 0
 459 19 397 -14 318 -14 c 0
 239 -14 177 19 132 86 c 0
 88 152 66 245 66 364 c 0
 66 483 88 576 132 642 c 0
 177 709 239 742 318 742 c 0
 397 742 459 709 504 642 c 0
 548 576 570 483 570 364 c 0
467 364 m 0
 467 475 455 557 430 612 c 0
 405 667 368 694 318 694 c 0
 268 694 231 667 206 612 c 0
 181 557 169 475 169 364 c 0
 169 253 181 171 206 116 c 0
 231 61 268 34 318 34 c 0
 368 34 405 61 430 116 c 0
 455 171 467 253 467 364 c 0
EndSplineSet
AlternateSubs2: "'aalt' Access All Alternates in Mathematical Alphanumeric Symbols lookup 0 subtable" zero.st zero.sts
AlternateSubs2: "sstyMATH subtable" zero.st zero.sts
EndChar
StartChar: one
Encoding: 49 49 49
Width: 636
Flags: W
TopAccentHorizontal: 318
LayerCount: 2
Fore
SplineSet
494 0 m 1
 142 0 l 1
 142 52 l 1
 269 52 l 1
 269 658 l 1
 122 563 l 1
 122 627 l 1
 300 742 l 1
 367 742 l 1
 367 52 l 1
 494 52 l 1
 494 0 l 1
EndSplineSet
AlternateSubs2: "'aalt' Access All Alternates in Mathematical Alphanumeric Symbols lookup 0 subtable" one.st one.sts
AlternateSubs2: "sstyMATH subtable" one.st one.sts
EndChar
StartChar: two
Encoding: 50 50 50
Width: 636
Flags: W
TopAccentHorizontal: 281
LayerCount: 2
Fore
SplineSet
538 0 m 1xe8
 68 0 l 1
 68 53 l 1
 289 274 l 2
 338 323 372 368 394 408 c 0
 414 450 425 492 425 537 c 0
 425 586 412 625 386 652 c 0
 361 680 326 694 281 694 c 0
 234 694 198 682 173 659 c 0
 148 636 133 601 128 555 c 1
 73 555 l 1
 73 685 l 1
 108 704 143 718 178 728 c 0
 213 737 248 742 282 742 c 0
 358 742 418 724 462 687 c 0
 506 650 528 600 528 537 c 0xf0
 528 466 478 380 378 281 c 0
 370 274 364 268 361 264 c 2
 177 80 l 1
 481 80 l 1
 481 170 l 1
 538 170 l 1
 538 0 l 1xe8
EndSplineSet
AlternateSubs2: "'aalt' Access All Alternates in Mathematical Alphanumeric Symbols lookup 0 subtable" two.st two.sts
AlternateSubs2: "sstyMATH subtable" two.st two.sts
EndChar
StartChar: three
Encoding: 51 51 51
Width: 636
Flags: W
TopAccentHorizontal: 298
LayerCount: 2
Fore
SplineSet
562 197 m 0xd1
 562 129 539 77 494 40 c 0
 448 4 382 -14 296 -14 c 0
 258 -14 221 -10 184 -2 c 0
 148 6 112 18 76 35 c 1
 76 177 l 1
 131 177 l 1
 134 130 150 95 178 70 c 0
 207 46 247 34 298 34 c 0
 348 34 387 48 416 78 c 0
 445 106 459 146 459 196 c 0xd9
 459 253 444 297 414 326 c 0
 385 355 341 370 284 370 c 2
 238 370 l 1
 238 420 l 1
 262 420 l 2
 319 420 361 432 390 456 c 0
 419 479 433 515 433 562 c 0
 433 605 421 637 398 660 c 0
 375 683 341 694 297 694 c 0xd2
 253 694 219 684 194 662 c 0
 170 642 156 611 152 570 c 1
 97 570 l 1
 97 698 l 1xe6
 135 712 172 723 206 730 c 0
 242 738 274 742 305 742 c 0
 376 742 432 727 472 696 c 0
 512 665 532 623 532 568 c 0xd6
 532 524 518 487 490 458 c 0
 463 429 424 409 373 398 c 1
 433 389 480 367 512 332 c 0
 546 297 562 252 562 197 c 0xd1
EndSplineSet
AlternateSubs2: "'aalt' Access All Alternates in Mathematical Alphanumeric Symbols lookup 0 subtable" three.st three.sts
AlternateSubs2: "sstyMATH subtable" three.st three.sts
EndChar
StartChar: four
Encoding: 52 52 52
Width: 636
Flags: W
TopAccentHorizontal: 394
LayerCount: 2
Fore
SplineSet
586 195 m 1
 447 195 l 1
 447 52 l 1
 564 52 l 1
 564 0 l 1
 232 0 l 1
 232 52 l 1
 349 52 l 1
 349 195 l 1
 31 195 l 1
 31 248 l 1
 350 742 l 1
 447 742 l 1
 447 247 l 1
 586 247 l 1
 586 195 l 1
349 247 m 1
 349 635 l 1
 100 247 l 1
 349 247 l 1
EndSplineSet
AlternateSubs2: "'aalt' Access All Alternates in Mathematical Alphanumeric Symbols lookup 0 subtable" four.st four.sts
AlternateSubs2: "sstyMATH subtable" four.st four.sts
EndChar
StartChar: five
Encoding: 53 53 53
Width: 636
Flags: W
TopAccentHorizontal: 310
LayerCount: 2
Fore
SplineSet
559 231 m 0xec
 559 154 536 93 490 50 c 0
 444 8 379 -14 296 -14 c 0
 263 -14 228 -10 193 -2 c 0
 158 6 122 18 85 35 c 1
 85 177 l 1
 140 177 l 1xf4
 143 131 157 96 184 71 c 0
 211 46 248 34 296 34 c 0
 347 34 387 51 414 85 c 0
 442 119 456 168 456 231 c 0
 456 294 442 343 415 376 c 0
 388 410 348 427 296 427 c 0
 267 427 241 422 218 412 c 0
 196 401 176 385 159 363 c 1
 117 363 l 1
 117 729 l 1
 503 729 l 1
 503 649 l 1
 169 649 l 1
 169 440 l 1
 186 452 205 461 228 466 c 0
 251 472 276 475 304 475 c 0
 383 475 445 453 490 410 c 0
 536 366 559 306 559 231 c 0xec
EndSplineSet
AlternateSubs2: "'aalt' Access All Alternates in Mathematical Alphanumeric Symbols lookup 0 subtable" five.st five.sts
AlternateSubs2: "sstyMATH subtable" five.st five.sts
EndChar
StartChar: six
Encoding: 54 54 54
Width: 636
Flags: W
TopAccentHorizontal: 385
LayerCount: 2
Fore
SplineSet
573 230 m 0xdc
 573 156 550 97 505 52 c 0
 460 8 399 -14 323 -14 c 0
 240 -14 177 17 133 78 c 0
 89 139 67 227 67 341 c 0
 67 468 93 567 146 637 c 0
 198 707 272 742 367 742 c 0xdc
 393 742 420 740 448 735 c 0
 477 730 506 723 535 713 c 1
 535 593 l 1
 480 593 l 1xea
 476 626 464 651 442 668 c 0
 422 685 393 694 357 694 c 0
 294 694 246 670 216 622 c 0
 184 574 169 500 168 401 c 1
 190 426 215 444 243 456 c 0
 271 468 303 474 338 474 c 0
 411 474 468 452 510 408 c 0
 552 365 573 305 573 230 c 0xdc
470 230 m 0
 470 293 458 342 433 376 c 0
 408 409 373 426 327 426 c 0
 280 426 245 410 220 377 c 0
 196 344 184 297 184 236 c 0
 184 171 196 122 221 86 c 0
 246 52 281 34 327 34 c 0
 373 34 408 51 433 84 c 0
 458 118 470 167 470 230 c 0
EndSplineSet
AlternateSubs2: "'aalt' Access All Alternates in Mathematical Alphanumeric Symbols lookup 0 subtable" six.st six.sts
AlternateSubs2: "sstyMATH subtable" six.st six.sts
EndChar
StartChar: seven
Encoding: 55 55 55
Width: 636
Flags: W
TopAccentHorizontal: 324
LayerCount: 2
Fore
SplineSet
564 679 m 1
 279 0 l 1
 206 0 l 1
 478 649 l 1
 141 649 l 1
 141 559 l 1
 84 559 l 1
 84 729 l 1
 564 729 l 1
 564 679 l 1
EndSplineSet
AlternateSubs2: "'aalt' Access All Alternates in Mathematical Alphanumeric Symbols lookup 0 subtable" seven.st seven.sts
AlternateSubs2: "sstyMATH subtable" seven.st seven.sts
EndChar
StartChar: eight
Encoding: 56 56 56
Width: 636
Flags: W
TopAccentHorizontal: 318
LayerCount: 2
Fore
SplineSet
569 199 m 0xe2
 569 130 547 78 504 41 c 0
 461 4 399 -14 318 -14 c 0
 237 -14 175 4 132 42 c 0
 89 78 67 131 67 199 c 0xf2
 67 251 82 294 114 327 c 0
 144 360 188 381 243 388 c 1
 194 397 156 415 130 444 c 0
 104 473 91 509 91 553 c 0
 91 612 111 658 152 692 c 0
 192 725 247 742 318 742 c 0
 389 742 444 725 484 692 c 0
 525 658 545 612 545 553 c 0xec
 545 509 532 473 506 444 c 0
 479 415 442 397 393 388 c 1
 448 381 492 360 522 327 c 0
 554 294 569 251 569 199 c 0xe2
446 553 m 0xec
 446 597 435 632 412 656 c 0
 389 682 358 694 318 694 c 0
 278 694 247 682 224 657 c 0
 201 632 190 598 190 553 c 0
 190 508 201 474 224 449 c 0
 247 424 278 412 318 412 c 0
 359 412 390 424 412 449 c 0
 435 474 446 508 446 553 c 0xec
466 199 m 0xf2
 466 251 453 292 427 320 c 0
 401 350 365 364 318 364 c 0
 271 364 235 350 209 320 c 0
 183 292 170 251 170 199 c 0
 170 146 183 106 209 77 c 0
 235 48 271 34 318 34 c 0
 365 34 401 48 427 77 c 0
 453 106 466 146 466 199 c 0xf2
EndSplineSet
AlternateSubs2: "'aalt' Access All Alternates in Mathematical Alphanumeric Symbols lookup 0 subtable" eight.st eight.sts
AlternateSubs2: "sstyMATH subtable" eight.st eight.sts
EndChar
StartChar: nine
Encoding: 57 57 57
Width: 636
Flags: W
TopAccentHorizontal: 316
LayerCount: 2
Fore
SplineSet
452 492 m 0x3a
 452 557 440 607 415 642 c 0
 390 676 355 694 309 694 c 0
 263 694 228 677 203 644 c 0
 178 610 166 561 166 498 c 0
 166 435 178 386 203 352 c 0
 228 319 263 302 309 302 c 0
 355 302 390 318 415 351 c 0
 440 384 452 431 452 492 c 0x3a
569 387 m 0
 569 260 543 161 490 91 c 0
 438 21 364 -14 269 -14 c 0xba
 243 -14 216 -12 188 -7 c 0
 160 -2 131 5 101 15 c 1
 101 136 l 1
 156 136 l 1x76
 160 103 173 78 194 60 c 0
 215 43 244 34 279 34 c 0xb6
 342 34 390 58 420 106 c 0
 452 154 467 228 468 327 c 1
 446 302 421 284 392 272 c 0
 364 260 332 254 297 254 c 0
 225 254 168 276 126 320 c 0
 84 363 63 423 63 498 c 0
 63 572 86 631 131 676 c 0
 176 720 237 742 313 742 c 0
 396 742 459 711 503 650 c 0
 547 589 569 501 569 387 c 0
EndSplineSet
AlternateSubs2: "'aalt' Access All Alternates in Mathematical Alphanumeric Symbols lookup 0 subtable" nine.st nine.sts
AlternateSubs2: "sstyMATH subtable" nine.st nine.sts
EndChar
StartChar: colon
Encoding: 58 58 58
Width: 336
Flags: W
LayerCount: 2
Fore
SplineSet
234 369 m 0
 234 350 228 335 216 322 c 0
 203 310 188 304 169 304 c 0
 151 304 136 310 123 323 c 0
 110 336 104 351 104 369 c 0
 104 387 110 402 123 415 c 0
 136 428 151 434 169 434 c 0
 188 434 203 428 216 416 c 0
 228 403 234 388 234 369 c 0
234 51 m 0
 234 33 228 18 216 5 c 0
 203 -8 188 -14 169 -14 c 0
 150 -14 135 -8 122 5 c 0
 110 18 104 33 104 51 c 0
 104 69 110 84 123 97 c 0
 136 110 151 116 169 116 c 0
 187 116 202 110 215 97 c 0
 228 84 234 69 234 51 c 0
EndSplineSet
AlternateSubs2: "'aalt' Access All Alternates in Mathematical Alphanumeric Symbols lookup 0 subtable" colon.st colon.sts
AlternateSubs2: "sstyMATH subtable" colon.st colon.sts
EndChar
StartChar: semicolon
Encoding: 59 59 59
Width: 336
Flags: W
LayerCount: 2
Fore
SplineSet
236 369 m 0xc0
 236 351 230 336 217 323 c 0
 204 310 189 304 171 304 c 0
 153 304 138 310 125 323 c 0xa0
 112 336 106 351 106 369 c 0xc0
 106 387 112 402 125 415 c 0xa0
 138 428 153 434 171 434 c 0
 189 434 204 428 217 415 c 0
 230 402 236 387 236 369 c 0xc0
221 111 m 1
 218 56 205 8 182 -32 c 0
 158 -72 122 -107 75 -136 c 1
 36 -97 l 1
 67 -74 89 -48 104 -18 c 0
 118 13 125 50 125 93 c 2
 125 111 l 1
 221 111 l 1
EndSplineSet
AlternateSubs2: "'aalt' Access All Alternates in Mathematical Alphanumeric Symbols lookup 0 subtable" semicolon.st semicolon.sts
AlternateSubs2: "sstyMATH subtable" semicolon.st semicolon.sts
EndChar
StartChar: less
Encoding: 60 60 60
Width: 795
Flags: W
LayerCount: 2
Fore
SplineSet
715 11 m 1
 80 235 l 1
 80 315 l 1
 715 539 l 1
 715 455 l 1
 207 275 l 1
 715 95 l 1
 715 11 l 1
EndSplineSet
EndChar
StartChar: equal
Encoding: 61 61 61
Width: 788
Flags: W
GlyphCompositionHorizontal: 3  equal.lft%0,0,105,209 equal.ex%1,210,210,210 equal.rt%0,105,0,209
LayerCount: 2
Fore
SplineSet
708 335 m 1
 80 335 l 1
 80 415 l 1
 708 415 l 1
 708 335 l 1
708 135 m 1
 80 135 l 1
 80 215 l 1
 708 215 l 1
 708 135 l 1
EndSplineSet
EndChar
StartChar: greater
Encoding: 62 62 62
Width: 795
Flags: W
LayerCount: 2
Fore
SplineSet
715 235 m 1
 80 11 l 1
 80 95 l 1
 588 275 l 1
 80 455 l 1
 80 539 l 1
 715 315 l 1
 715 235 l 1
EndSplineSet
EndChar
StartChar: question
Encoding: 63 63 63
Width: 536
Flags: W
LayerCount: 2
Fore
SplineSet
488 549 m 0xec
 488 488 470 439 434 400 c 0
 398 362 344 335 271 318 c 1
 271 194 l 1
 211 194 l 1
 211 354 l 1
 268 368 312 392 341 424 c 0
 370 458 385 499 385 550 c 0
 385 595 373 630 349 656 c 0
 325 681 293 694 252 694 c 0
 215 694 184 683 160 662 c 0
 137 641 122 610 115 570 c 1
 68 570 l 1
 68 697 l 1
 103 712 136 724 166 731 c 0
 198 738 227 742 254 742 c 0
 326 742 383 725 425 690 c 0
 467 655 488 608 488 549 c 0xec
306 51 m 0xf4
 306 33 300 18 287 5 c 0
 274 -8 259 -14 241 -14 c 0
 222 -14 207 -8 194 5 c 0
 182 18 176 33 176 51 c 0
 176 69 182 84 194 97 c 0
 207 110 222 116 241 116 c 0
 259 116 274 110 287 97 c 0
 300 84 306 69 306 51 c 0xf4
EndSplineSet
AlternateSubs2: "'aalt' Access All Alternates in Mathematical Alphanumeric Symbols lookup 0 subtable" question.st question.sts
AlternateSubs2: "sstyMATH subtable" question.st question.sts
EndChar
StartChar: at
Encoding: 64 64 64
Width: 1000
Flags: W
LayerCount: 2
Fore
SplineSet
632 237 m 2
 632 288 l 2
 632 329 620 362 597 387 c 0
 574 412 543 425 506 425 c 0
 467 425 436 411 414 382 c 0
 392 353 381 313 381 262 c 0
 381 210 392 170 414 142 c 0
 436 113 467 99 507 99 c 0
 544 99 574 112 598 138 c 0
 620 163 632 196 632 237 c 2
929 326 m 0
 929 239 902 170 850 119 c 0
 796 68 724 43 632 42 c 1
 632 121 l 1
 613 94 591 75 567 62 c 0
 543 48 516 42 486 42 c 0
 429 42 383 62 348 103 c 0
 312 144 294 197 294 262 c 0
 294 327 312 380 347 421 c 0
 382 462 429 482 486 482 c 0
 516 482 543 476 567 462 c 0
 591 449 613 430 632 403 c 1
 632 472 l 1
 708 472 l 1
 708 95 l 1
 763 107 806 133 837 174 c 0
 868 215 883 266 883 327 c 0
 883 363 878 397 866 430 c 0
 856 462 839 492 817 519 c 0
 782 562 740 596 690 618 c 0
 641 642 587 653 529 653 c 0
 500 653 471 650 442 644 c 0
 413 637 385 628 357 615 c 0
 291 585 240 539 204 478 c 0
 167 417 149 346 149 265 c 0
 149 210 157 160 174 114 c 0
 190 69 213 29 244 -4 c 0
 279 -43 321 -72 370 -92 c 0
 419 -113 471 -123 528 -123 c 0
 570 -123 609 -117 646 -104 c 0
 682 -92 716 -74 747 -49 c 1
 773 -83 l 1
 738 -113 698 -136 653 -151 c 0
 608 -166 560 -174 507 -174 c 0
 448 -174 391 -163 336 -142 c 0
 282 -120 235 -89 194 -49 c 0
 152 -8 120 40 98 93 c 0
 77 146 66 204 66 265 c 0
 66 325 77 382 98 434 c 0
 120 488 152 535 194 576 c 0
 235 617 284 649 340 671 c 0
 396 693 456 704 519 704 c 0
 588 704 652 690 710 664 c 0
 767 636 815 598 854 547 c 0
 879 515 897 480 910 443 c 0
 923 406 929 367 929 326 c 0
EndSplineSet
AlternateSubs2: "'aalt' Access All Alternates in Mathematical Alphanumeric Symbols lookup 0 subtable" at.st at.sts
AlternateSubs2: "sstyMATH subtable" at.st at.sts
EndChar
StartChar: A
Encoding: 65 65 65
Width: 722
Flags: W
ItalicCorrection: 38
TopAccentHorizontal: 359
LayerCount: 2
Fore
SplineSet
732 0 m 1
 467 0 l 1
 467 52 l 1
 548 52 l 1
 487 212 l 1
 180 212 l 1
 119 52 l 1
 199 52 l 1
 199 0 l 1
 -6 0 l 1
 -6 52 l 1
 58 52 l 1
 318 729 l 1
 400 729 l 1
 660 52 l 1
 732 52 l 1
 732 0 l 1
468 264 m 1
 334 611 l 1
 200 264 l 1
 468 264 l 1
EndSplineSet
AlternateSubs2: "'aalt' Access All Alternates in Mathematical Alphanumeric Symbols lookup 0 subtable" A.st A.sts
AlternateSubs2: "sstyMATH subtable" A.st A.sts
EndChar
StartChar: B
Encoding: 66 66 66
Width: 734
Flags: W
TopAccentHorizontal: 283
LayerCount: 2
Fore
SplineSet
674 211 m 0xf4
 674 139 651 86 606 52 c 0
 560 17 489 0 392 0 c 2
 55 0 l 1
 55 52 l 1
 148 52 l 1
 148 677 l 1
 55 677 l 1
 55 729 l 1
 415 729 l 2
 488 729 544 714 581 684 c 0
 618 654 637 609 637 549 c 0xf8
 637 506 624 471 598 446 c 0
 573 420 535 404 485 398 c 1
 547 390 594 370 626 338 c 0
 658 307 674 264 674 211 c 0xf4
525 549 m 0
 525 594 513 626 488 646 c 0
 463 667 424 677 371 677 c 2
 247 677 l 1
 247 421 l 1
 371 421 l 2
 424 421 463 431 488 452 c 0
 513 472 525 504 525 549 c 0
562 211 m 0xf4
 562 266 548 306 522 332 c 0
 494 356 452 369 393 369 c 2
 247 369 l 1
 247 52 l 1
 393 52 l 2
 452 52 494 65 522 90 c 0
 548 115 562 156 562 211 c 0xf4
EndSplineSet
AlternateSubs2: "'aalt' Access All Alternates in Mathematical Alphanumeric Symbols lookup 0 subtable" B.st B.sts
AlternateSubs2: "sstyMATH subtable" B.st B.sts
EndChar
StartChar: C
Encoding: 67 67 67
Width: 765
Flags: W
TopAccentHorizontal: 424
LayerCount: 2
Fore
SplineSet
705 193 m 1xf0
 684 125 648 74 597 38 c 0
 546 4 482 -14 405 -14 c 0
 358 -14 314 -6 272 10 c 0
 232 27 195 51 164 82 c 0
 127 119 100 160 82 206 c 0
 65 253 56 305 56 364 c 0
 56 477 89 569 154 638 c 0
 219 707 306 742 413 742 c 0
 453 742 495 737 540 726 c 0
 585 716 633 700 685 679 c 1
 685 511 l 1
 630 511 l 1xe8
 618 572 594 618 558 646 c 0
 521 676 470 690 405 690 c 0
 327 690 268 662 228 607 c 0
 188 552 168 471 168 364 c 0
 168 257 188 176 228 121 c 0
 268 66 327 38 405 38 c 0
 460 38 504 51 540 77 c 0
 574 103 600 142 615 193 c 1
 705 193 l 1xf0
EndSplineSet
AlternateSubs2: "'aalt' Access All Alternates in Mathematical Alphanumeric Symbols lookup 0 subtable" C.st C.sts
AlternateSubs2: "sstyMATH subtable" C.st C.sts
EndChar
StartChar: D
Encoding: 68 68 68
Width: 801
Flags: W
TopAccentHorizontal: 253
LayerCount: 2
Fore
SplineSet
744 365 m 0
 744 250 709 161 638 96 c 0
 568 32 470 0 345 0 c 2
 55 0 l 1
 55 52 l 1
 148 52 l 1
 148 677 l 1
 55 677 l 1
 55 729 l 1
 345 729 l 2
 470 729 568 697 638 633 c 0
 709 569 744 480 744 365 c 0
632 365 m 0
 632 466 607 543 556 596 c 0
 505 650 433 677 338 677 c 2
 247 677 l 1
 247 52 l 1
 338 52 l 2
 433 52 505 79 556 133 c 0
 607 187 632 264 632 365 c 0
EndSplineSet
AlternateSubs2: "'aalt' Access All Alternates in Mathematical Alphanumeric Symbols lookup 0 subtable" D.st D.sts
AlternateSubs2: "sstyMATH subtable" D.st D.sts
EndChar
StartChar: E
Encoding: 69 69 69
Width: 729
Flags: W
TopAccentHorizontal: 349
LayerCount: 2
Fore
SplineSet
650 0 m 1x6680
 55 0 l 1
 55 52 l 1
 148 52 l 1
 148 677 l 1
 55 677 l 1
 55 729 l 1
 642 729 l 1x6f
 642 567 l 1
 582 567 l 1
 582 669 l 1x37
 247 669 l 1
 247 425 l 1
 486 425 l 1
 486 516 l 1
 546 516 l 1
 546 274 l 1
 486 274 l 1
 486 365 l 1
 247 365 l 1
 247 60 l 1
 590 60 l 1xb680
 590 162 l 1
 650 162 l 1
 650 0 l 1x6680
EndSplineSet
AlternateSubs2: "'aalt' Access All Alternates in Mathematical Alphanumeric Symbols lookup 0 subtable" E.st E.sts
AlternateSubs2: "sstyMATH subtable" E.st E.sts
EndChar
StartChar: F
Encoding: 70 70 70
Width: 693
Flags: W
TopAccentHorizontal: 354
LayerCount: 2
Fore
SplineSet
652 567 m 1xde
 592 567 l 1
 592 669 l 1
 247 669 l 1xee
 247 425 l 1
 496 425 l 1
 496 516 l 1
 556 516 l 1
 556 274 l 1
 496 274 l 1
 496 365 l 1
 247 365 l 1
 247 52 l 1
 364 52 l 1
 364 0 l 1
 55 0 l 1
 55 52 l 1
 148 52 l 1
 148 677 l 1
 55 677 l 1
 55 729 l 1
 652 729 l 1
 652 567 l 1xde
EndSplineSet
AlternateSubs2: "'aalt' Access All Alternates in Mathematical Alphanumeric Symbols lookup 0 subtable" F.st F.sts
AlternateSubs2: "sstyMATH subtable" F.st F.sts
EndChar
StartChar: G
Encoding: 71 71 71
Width: 798
Flags: W
TopAccentHorizontal: 441
LayerCount: 2
Fore
SplineSet
720 61 m 1xf8
 677 36 630 17 580 4 c 0
 530 -8 477 -14 420 -14 c 0
 310 -14 222 20 156 89 c 0
 89 158 56 249 56 364 c 0
 56 479 89 571 156 640 c 0
 222 708 311 742 424 742 c 0
 465 742 508 737 553 728 c 0
 598 718 645 703 695 684 c 1
 695 511 l 1
 640 511 l 1xf4
 629 572 605 617 569 646 c 0
 533 675 483 690 418 690 c 0
 334 690 271 663 230 609 c 0
 189 555 168 473 168 364 c 0
 168 257 189 176 232 120 c 0
 275 66 337 38 420 38 c 0
 457 38 492 42 526 52 c 0
 559 60 591 74 621 93 c 1
 621 281 l 1
 484 281 l 1
 484 333 l 1
 720 333 l 1
 720 61 l 1xf8
EndSplineSet
AlternateSubs2: "'aalt' Access All Alternates in Mathematical Alphanumeric Symbols lookup 0 subtable" G.st G.sts
AlternateSubs2: "sstyMATH subtable" G.st G.sts
EndChar
StartChar: H
Encoding: 72 72 72
Width: 872
Flags: W
TopAccentHorizontal: 436
LayerCount: 2
Fore
SplineSet
817 0 m 1
 532 0 l 1
 532 52 l 1
 625 52 l 1
 625 365 l 1
 247 365 l 1
 247 52 l 1
 340 52 l 1
 340 0 l 1
 55 0 l 1
 55 52 l 1
 148 52 l 1
 148 677 l 1
 55 677 l 1
 55 729 l 1
 340 729 l 1
 340 677 l 1
 247 677 l 1
 247 425 l 1
 625 425 l 1
 625 677 l 1
 532 677 l 1
 532 729 l 1
 817 729 l 1
 817 677 l 1
 724 677 l 1
 724 52 l 1
 817 52 l 1
 817 0 l 1
EndSplineSet
AlternateSubs2: "'aalt' Access All Alternates in Mathematical Alphanumeric Symbols lookup 0 subtable" H.st H.sts
AlternateSubs2: "sstyMATH subtable" H.st H.sts
EndChar
StartChar: I
Encoding: 73 73 73
Width: 395
Flags: W
TopAccentHorizontal: 198
LayerCount: 2
Fore
SplineSet
340 0 m 1
 55 0 l 1
 55 52 l 1
 148 52 l 1
 148 677 l 1
 55 677 l 1
 55 729 l 1
 340 729 l 1
 340 677 l 1
 247 677 l 1
 247 52 l 1
 340 52 l 1
 340 0 l 1
EndSplineSet
AlternateSubs2: "'aalt' Access All Alternates in Mathematical Alphanumeric Symbols lookup 0 subtable" I.st I.sts
AlternateSubs2: "sstyMATH subtable" I.st I.sts
EndChar
StartChar: J
Encoding: 74 74 74
Width: 400
Flags: W
TopAccentHorizontal: 203
LayerCount: 2
Fore
SplineSet
355 677 m 1xb8
 262 677 l 1
 262 20 l 2
 262 -61 246 -119 214 -154 c 0
 182 -190 130 -208 58 -208 c 0xb8
 35 -208 11 -205 -12 -200 c 0
 -36 -195 -60 -186 -84 -175 c 1
 -84 -60 l 1
 -28 -60 l 1x78
 -27 -92 -20 -116 -6 -132 c 0
 9 -148 30 -156 59 -156 c 0
 98 -156 125 -144 140 -120 c 0
 155 -95 163 -47 163 24 c 2
 163 677 l 1
 50 677 l 1
 50 729 l 1
 355 729 l 1
 355 677 l 1xb8
EndSplineSet
AlternateSubs2: "'aalt' Access All Alternates in Mathematical Alphanumeric Symbols lookup 0 subtable" J.st J.sts
AlternateSubs2: "sstyMATH subtable" J.st J.sts
EndChar
StartChar: K
Encoding: 75 75 75
Width: 747
Flags: W
ItalicCorrection: 43
TopAccentHorizontal: 390
LayerCount: 2
Fore
SplineSet
762 0 m 1
 593 0 l 1
 247 346 l 1
 247 52 l 1
 340 52 l 1
 340 0 l 1
 55 0 l 1
 55 52 l 1
 148 52 l 1
 148 677 l 1
 55 677 l 1
 55 729 l 1
 340 729 l 1
 340 677 l 1
 247 677 l 1
 247 401 l 1
 561 677 l 1
 482 677 l 1
 482 729 l 1
 724 729 l 1
 724 677 l 1
 642 677 l 1
 329 402 l 1
 679 52 l 1
 762 52 l 1
 762 0 l 1
EndSplineSet
AlternateSubs2: "'aalt' Access All Alternates in Mathematical Alphanumeric Symbols lookup 0 subtable" K.st K.sts
AlternateSubs2: "sstyMATH subtable" K.st K.sts
EndChar
StartChar: L
Encoding: 76 76 76
Width: 664
Flags: W
ItalicCorrection: 4
TopAccentHorizontal: 198
LayerCount: 2
Fore
SplineSet
640 0 m 1x78
 55 0 l 1
 55 52 l 1
 148 52 l 1x78
 148 677 l 1
 55 677 l 1
 55 729 l 1
 340 729 l 1
 340 677 l 1
 247 677 l 1
 247 60 l 1
 580 60 l 1xb8
 580 182 l 1
 640 182 l 1
 640 0 l 1x78
EndSplineSet
AlternateSubs2: "'aalt' Access All Alternates in Mathematical Alphanumeric Symbols lookup 0 subtable" L.st L.sts
AlternateSubs2: "sstyMATH subtable" L.st L.sts
EndChar
StartChar: M
Encoding: 77 77 77
Width: 1023
Flags: W
TopAccentHorizontal: 512
LayerCount: 2
Fore
SplineSet
973 677 m 1
 876 677 l 1
 876 52 l 1
 969 52 l 1
 969 0 l 1
 684 0 l 1
 684 52 l 1
 777 52 l 1
 777 615 l 1
 527 107 l 1
 458 107 l 1
 208 615 l 1
 208 52 l 1
 301 52 l 1
 301 0 l 1
 55 0 l 1
 55 52 l 1
 148 52 l 1
 148 677 l 1
 50 677 l 1
 50 729 l 1
 262 729 l 1
 518 210 l 1
 774 729 l 1
 973 729 l 1
 973 677 l 1
EndSplineSet
AlternateSubs2: "'aalt' Access All Alternates in Mathematical Alphanumeric Symbols lookup 0 subtable" M.st M.sts
AlternateSubs2: "sstyMATH subtable" M.st M.sts
EndChar
StartChar: N
Encoding: 78 78 78
Width: 875
Flags: W
TopAccentHorizontal: 440
LayerCount: 2
Fore
SplineSet
831 677 m 1x78
 733 677 l 1
 733 -14 l 1
 674 -14 l 1xb8
 207 600 l 1
 207 52 l 1
 305 52 l 1
 305 0 l 1
 49 0 l 1
 49 52 l 1
 147 52 l 1
 147 677 l 1
 49 677 l 1
 49 729 l 1
 236 729 l 1
 673 154 l 1
 673 677 l 1
 575 677 l 1
 575 729 l 1
 831 729 l 1
 831 677 l 1x78
EndSplineSet
AlternateSubs2: "'aalt' Access All Alternates in Mathematical Alphanumeric Symbols lookup 0 subtable" N.st N.sts
AlternateSubs2: "sstyMATH subtable" N.st N.sts
EndChar
StartChar: O
Encoding: 79 79 79
Width: 819
Flags: W
TopAccentHorizontal: 406
LayerCount: 2
Fore
SplineSet
764 364 m 0
 764 306 755 254 737 206 c 0
 719 160 692 118 656 82 c 0
 624 50 588 26 546 10 c 0
 506 -6 460 -14 410 -14 c 0
 361 -14 315 -6 274 10 c 0
 232 27 195 51 164 82 c 0
 127 119 100 160 82 206 c 0
 65 252 56 305 56 364 c 0
 56 423 65 475 82 522 c 0
 100 568 127 609 164 646 c 0
 196 678 232 702 274 718 c 0
 314 734 360 742 410 742 c 0
 516 742 602 707 666 638 c 0
 732 569 764 477 764 364 c 0
652 364 m 0
 652 472 632 553 591 608 c 0
 550 663 490 690 410 690 c 0
 330 690 270 662 229 608 c 0
 188 552 168 471 168 364 c 0
 168 257 188 176 229 120 c 0
 270 66 330 38 410 38 c 0
 490 38 550 66 591 120 c 0
 632 176 652 257 652 364 c 0
EndSplineSet
AlternateSubs2: "'aalt' Access All Alternates in Mathematical Alphanumeric Symbols lookup 0 subtable" O.st O.sts
AlternateSubs2: "sstyMATH subtable" O.st O.sts
EndChar
StartChar: P
Encoding: 80 80 80
Width: 672
Flags: W
TopAccentHorizontal: 276
LayerCount: 2
Fore
SplineSet
637 524 m 0
 637 461 616 411 573 374 c 0
 530 338 473 319 400 319 c 2
 247 319 l 1
 247 52 l 1
 360 52 l 1
 360 0 l 1
 55 0 l 1
 55 52 l 1
 148 52 l 1
 148 677 l 1
 55 677 l 1
 55 729 l 1
 400 729 l 2
 473 729 530 710 573 674 c 0
 616 636 637 587 637 524 c 0
525 524 m 0
 525 574 512 612 487 638 c 0
 462 664 425 677 376 677 c 2
 247 677 l 1
 247 371 l 1
 376 371 l 2
 425 371 462 384 487 410 c 0
 512 437 525 475 525 524 c 0
EndSplineSet
AlternateSubs2: "'aalt' Access All Alternates in Mathematical Alphanumeric Symbols lookup 0 subtable" P.st P.sts
AlternateSubs2: "sstyMATH subtable" P.st P.sts
EndChar
StartChar: Q
Encoding: 81 81 81
Width: 819
Flags: W
TopAccentHorizontal: 406
LayerCount: 2
Fore
SplineSet
652 364 m 0
 652 472 632 553 591 608 c 0
 550 663 490 690 410 690 c 0
 330 690 270 662 229 608 c 0
 188 552 168 471 168 364 c 0
 168 257 188 176 229 120 c 0
 270 66 330 38 410 38 c 0
 490 38 550 66 591 120 c 0
 632 176 652 257 652 364 c 0
764 364 m 0
 764 267 740 186 691 120 c 0
 642 55 575 13 489 -6 c 1
 506 -28 528 -44 553 -54 c 0
 578 -65 609 -70 644 -70 c 2
 659 -70 l 1
 659 -160 l 1
 604 -157 556 -144 518 -120 c 0
 478 -95 447 -60 422 -14 c 1
 311 -14 222 20 156 88 c 0
 89 157 56 249 56 364 c 0
 56 423 65 475 82 522 c 0
 100 568 127 609 164 646 c 0
 196 678 232 702 274 718 c 0
 314 734 360 742 410 742 c 0
 516 742 602 707 666 638 c 0
 732 569 764 477 764 364 c 0
EndSplineSet
AlternateSubs2: "'aalt' Access All Alternates in Mathematical Alphanumeric Symbols lookup 0 subtable" Q.st Q.sts
AlternateSubs2: "sstyMATH subtable" Q.st Q.sts
EndChar
StartChar: R
Encoding: 82 82 82
Width: 752
Flags: W
ItalicCorrection: 53
TopAccentHorizontal: 287
LayerCount: 2
Fore
SplineSet
535 534 m 0
 535 583 523 619 500 642 c 0
 477 665 440 677 391 677 c 2
 247 677 l 1
 247 391 l 1
 391 391 l 2
 440 391 477 403 500 426 c 0
 523 449 535 485 535 534 c 0
777 0 m 1
 605 0 l 1
 491 232 l 2
 469 277 449 306 431 319 c 0
 413 332 388 339 356 339 c 2
 247 339 l 1
 247 52 l 1
 350 52 l 1
 350 0 l 1
 55 0 l 1
 55 52 l 1
 148 52 l 1
 148 677 l 1
 55 677 l 1
 55 729 l 1
 425 729 l 2
 496 729 550 712 589 678 c 0
 628 644 647 596 647 534 c 0
 647 484 633 445 604 416 c 0
 576 387 534 369 479 362 c 1
 502 356 521 346 538 330 c 0
 554 315 569 295 582 268 c 2
 688 52 l 1
 777 52 l 1
 777 0 l 1
EndSplineSet
AlternateSubs2: "'aalt' Access All Alternates in Mathematical Alphanumeric Symbols lookup 0 subtable" R.st R.sts
AlternateSubs2: "sstyMATH subtable" R.st R.sts
EndChar
StartChar: S
Encoding: 83 83 83
Width: 685
Flags: W
TopAccentHorizontal: 344
LayerCount: 2
Fore
SplineSet
612 199 m 0xe8
 612 128 589 75 544 40 c 0
 499 4 431 -14 342 -14 c 0
 302 -14 261 -10 220 -2 c 0
 178 6 136 18 93 35 c 1
 93 201 l 1
 149 201 l 1
 150 146 166 105 197 78 c 0
 228 51 274 38 336 38 c 0
 394 38 438 50 468 72 c 0
 499 96 514 129 514 173 c 0xd8
 514 208 505 235 486 254 c 0
 468 273 429 291 370 309 c 2
 274 338 l 2
 205 359 156 386 127 417 c 0
 98 448 84 492 84 547 c 0
 84 609 106 657 150 691 c 0
 194 725 256 742 335 742 c 0
 369 742 406 738 446 731 c 0
 487 724 530 713 575 699 c 1
 575 544 l 1
 520 544 l 1xe4
 515 595 497 632 468 656 c 0
 440 678 396 690 337 690 c 0
 286 690 246 680 220 658 c 0
 192 638 179 607 179 567 c 0
 179 532 189 505 210 485 c 0
 230 465 273 445 338 426 c 2
 428 399 l 2
 494 379 541 354 570 323 c 0
 598 292 612 251 612 199 c 0xe8
EndSplineSet
AlternateSubs2: "'aalt' Access All Alternates in Mathematical Alphanumeric Symbols lookup 0 subtable" S.st S.sts
AlternateSubs2: "sstyMATH subtable" S.st S.sts
EndChar
StartChar: T
Encoding: 84 84 84
Width: 666
Flags: W
ItalicCorrection: 19
TopAccentHorizontal: 334
CounterMasks: 1 1c
LayerCount: 2
Fore
SplineSet
657 557 m 1xdc
 597 557 l 1xdc
 597 671 l 1
 383 671 l 1
 383 52 l 1
 476 52 l 1
 476 0 l 1
 191 0 l 1
 191 52 l 1
 284 52 l 1
 284 671 l 1
 70 671 l 1xbc
 70 557 l 1
 10 557 l 1
 10 729 l 1
 657 729 l 1
 657 557 l 1xdc
EndSplineSet
AlternateSubs2: "'aalt' Access All Alternates in Mathematical Alphanumeric Symbols lookup 0 subtable" T.st T.sts
AlternateSubs2: "sstyMATH subtable" T.st T.sts
EndChar
StartChar: U
Encoding: 85 85 85
Width: 842
Flags: W
TopAccentHorizontal: 423
LayerCount: 2
Fore
SplineSet
798 677 m 1
 705 677 l 1
 705 290 l 2
 705 179 684 100 641 54 c 0
 598 9 526 -14 424 -14 c 0
 322 -14 249 9 206 56 c 0
 162 102 140 180 140 290 c 2
 140 677 l 1
 47 677 l 1
 47 729 l 1
 332 729 l 1
 332 677 l 1
 239 677 l 1
 239 300 l 2
 239 207 254 142 284 105 c 0
 315 68 367 50 442 50 c 0
 517 50 569 68 600 105 c 0
 630 142 645 207 645 300 c 2
 645 677 l 1
 552 677 l 1
 552 729 l 1
 798 729 l 1
 798 677 l 1
EndSplineSet
AlternateSubs2: "'aalt' Access All Alternates in Mathematical Alphanumeric Symbols lookup 0 subtable" U.st U.sts
AlternateSubs2: "sstyMATH subtable" U.st U.sts
EndChar
StartChar: V
Encoding: 86 86 86
Width: 722
Flags: W
ItalicCorrection: 43
TopAccentHorizontal: 364
LayerCount: 2
Fore
SplineSet
737 677 m 1
 666 677 l 1
 406 0 l 1
 322 0 l 1
 63 677 l 1
 -10 677 l 1
 -10 729 l 1
 256 729 l 1
 256 677 l 1
 175 677 l 1
 390 117 l 1
 605 677 l 1
 523 677 l 1
 523 729 l 1
 737 729 l 1
 737 677 l 1
EndSplineSet
AlternateSubs2: "'aalt' Access All Alternates in Mathematical Alphanumeric Symbols lookup 0 subtable" V.st V.sts
AlternateSubs2: "sstyMATH subtable" V.st V.sts
EndChar
StartChar: W
Encoding: 87 87 87
Width: 1027
Flags: W
ItalicCorrection: 26
TopAccentHorizontal: 515
LayerCount: 2
Fore
SplineSet
1025 677 m 1
 953 677 l 1
 762 0 l 1
 682 0 l 1
 515 593 l 1
 348 0 l 1
 268 0 l 1
 77 677 l 1
 5 677 l 1
 5 729 l 1
 271 729 l 1
 271 677 l 1
 180 677 l 1
 332 138 l 1
 498 729 l 1
 577 729 l 1
 746 132 l 1
 899 677 l 1
 815 677 l 1
 815 729 l 1
 1025 729 l 1
 1025 677 l 1
EndSplineSet
AlternateSubs2: "'aalt' Access All Alternates in Mathematical Alphanumeric Symbols lookup 0 subtable" W.st W.sts
AlternateSubs2: "sstyMATH subtable" W.st W.sts
EndChar
StartChar: X
Encoding: 88 88 88
Width: 711
Flags: W
ItalicCorrection: 24
TopAccentHorizontal: 342
LayerCount: 2
Fore
SplineSet
707 0 m 1
 418 0 l 1
 418 52 l 1
 505 52 l 1
 331 312 l 1
 153 52 l 1
 247 52 l 1
 247 0 l 1
 6 0 l 1
 6 52 l 1
 90 52 l 1
 300 358 l 1
 87 677 l 1
 9 677 l 1
 9 729 l 1
 298 729 l 1
 298 677 l 1
 212 677 l 1
 368 442 l 1
 529 677 l 1
 435 677 l 1
 435 729 l 1
 674 729 l 1
 674 677 l 1
 592 677 l 1
 399 396 l 1
 629 52 l 1
 707 52 l 1
 707 0 l 1
EndSplineSet
AlternateSubs2: "'aalt' Access All Alternates in Mathematical Alphanumeric Symbols lookup 0 subtable" X.st X.sts
AlternateSubs2: "sstyMATH subtable" X.st X.sts
EndChar
StartChar: Y
Encoding: 89 89 89
Width: 660
Flags: W
ItalicCorrection: 37
TopAccentHorizontal: 329
LayerCount: 2
Fore
SplineSet
669 677 m 1
 600 677 l 1
 381 323 l 1
 381 52 l 1
 474 52 l 1
 474 0 l 1
 189 0 l 1
 189 52 l 1
 282 52 l 1
 282 314 l 1
 57 677 l 1
 -11 677 l 1
 -11 729 l 1
 260 729 l 1
 260 677 l 1
 175 677 l 1
 357 382 l 1
 539 677 l 1
 457 677 l 1
 457 729 l 1
 669 729 l 1
 669 677 l 1
EndSplineSet
AlternateSubs2: "'aalt' Access All Alternates in Mathematical Alphanumeric Symbols lookup 0 subtable" Y.st Y.sts
AlternateSubs2: "sstyMATH subtable" Y.st Y.sts
EndChar
StartChar: Z
Encoding: 90 90 90
Width: 694
Flags: W
TopAccentHorizontal: 350
LayerCount: 2
Fore
SplineSet
656 0 m 1
 45 0 l 1
 45 35 l 1
 499 669 l 1
 122 669 l 1
 122 560 l 1
 62 560 l 1
 62 729 l 1
 638 729 l 1
 638 694 l 1
 184 60 l 1
 596 60 l 1
 596 162 l 1
 656 162 l 1
 656 0 l 1
EndSplineSet
AlternateSubs2: "'aalt' Access All Alternates in Mathematical Alphanumeric Symbols lookup 0 subtable" Z.st Z.sts
AlternateSubs2: "sstyMATH subtable" Z.st Z.sts
EndChar
StartChar: bracketleft
Encoding: 91 91 91
Width: 419
Flags: W
GlyphVariantsVertical: bracketleft bracketleft.v1 bracketleft.v2 bracketleft.v3 bracketleft.v4 bracketleft.v5 bracketleft.v6
GlyphCompositionVertical: 3  uni23A3%0,0,430,1291 uni23A2%1,860,860,860 uni23A1%0,430,0,1291
LayerCount: 2
Fore
SplineSet
366 -173 m 1
 120 -173 l 1
 120 723 l 1
 366 723 l 1
 366 671 l 1
 208 671 l 1
 208 -121 l 1
 366 -121 l 1
 366 -173 l 1
EndSplineSet
EndChar
StartChar: backslash
Encoding: 92 92 92
Width: 452
Flags: W
GlyphVariantsVertical: backslash backslash.v1 backslash.v2 backslash.v3 backslash.v4 backslash.v5 backslash.v6
LayerCount: 2
Fore
SplineSet
372 -147 m 1
 306 -147 l 1
 80 697 l 1
 146 697 l 1
 372 -147 l 1
EndSplineSet
EndChar
StartChar: bracketright
Encoding: 93 93 93
Width: 419
Flags: W
GlyphVariantsVertical: bracketright bracketright.v1 bracketright.v2 bracketright.v3 bracketright.v4 bracketright.v5 bracketright.v6
GlyphCompositionVertical: 3  uni23A6%0,0,430,1291 uni23A5%1,860,860,860 uni23A4%0,430,0,1291
LayerCount: 2
Fore
SplineSet
299 -173 m 1
 53 -173 l 1
 53 -121 l 1
 211 -121 l 1
 211 671 l 1
 53 671 l 1
 53 723 l 1
 299 723 l 1
 299 -173 l 1
EndSplineSet
EndChar
StartChar: asciicircum
Encoding: 94 94 94
Width: 837
Flags: W
LayerCount: 2
Fore
SplineSet
732 457 m 1
 657 457 l 1
 419 643 l 1
 181 457 l 1
 106 457 l 1
 371 729 l 1
 467 729 l 1
 732 457 l 1
EndSplineSet
EndChar
StartChar: underscore
Encoding: 95 95 95
Width: 500
Flags: W
ItalicCorrection: 28
LayerCount: 2
Fore
SplineSet
500 -186 m 1
 0 -186 l 1
 0 -134 l 1
 500 -134 l 1
 500 -186 l 1
EndSplineSet
EndChar
StartChar: quoteleft
Encoding: 96 8216 96
Width: 317
Flags: W
LayerCount: 2
Fore
SplineSet
268 703 m 1
 243 682 225 658 214 630 c 0
 202 603 197 568 197 526 c 2
 197 495 l 1
 102 495 l 1
 102 552 112 600 133 639 c 0
 154 678 186 713 230 742 c 1
 268 703 l 1
EndSplineSet
AlternateSubs2: "'aalt' Access All Alternates in Mathematical Alphanumeric Symbols lookup 0 subtable" quoteleft.st quoteleft.sts
AlternateSubs2: "sstyMATH subtable" quoteleft.st quoteleft.sts
EndChar
StartChar: a
Encoding: 97 97 97
Width: 596
Flags: W
TopAccentHorizontal: 263
LayerCount: 2
Fore
SplineSet
568 0 m 1x6b
 398 0 l 1x6b
 398 56 l 1
 378 32 355 14 329 3 c 0
 303 -8 273 -14 238 -14 c 0
 181 -14 135 1 101 32 c 0
 67 63 50 104 50 156 c 0
 50 210 69 252 108 281 c 0
 147 310 201 325 272 325 c 2
 398 325 l 1
 398 361 l 2
 398 400 386 431 362 452 c 0
 338 474 304 485 261 485 c 0xad
 225 485 196 477 176 460 c 0
 154 444 141 420 136 388 c 1
 90 388 l 1
 90 493 l 1x33
 121 506 152 516 181 523 c 0
 210 530 239 533 267 533 c 0
 339 533 394 515 432 480 c 0
 469 444 488 392 488 324 c 2
 488 52 l 1
 568 52 l 1
 568 0 l 1x6b
398 163 m 2
 398 273 l 1
 282 273 l 2
 237 273 204 263 182 244 c 0
 161 225 150 195 150 156 c 0
 150 120 161 91 183 70 c 0
 205 49 235 38 273 38 c 0xa5
 310 38 341 50 364 72 c 0
 386 96 398 126 398 163 c 2
EndSplineSet
AlternateSubs2: "'aalt' Access All Alternates in Mathematical Alphanumeric Symbols lookup 0 subtable" a.st a.sts
AlternateSubs2: "sstyMATH subtable" a.st a.sts
EndChar
StartChar: b
Encoding: 98 98 98
Width: 640
Flags: W
TopAccentHorizontal: 117
LayerCount: 2
Fore
SplineSet
485 260 m 0xb6
 485 332 473 386 450 422 c 0
 426 459 391 477 345 477 c 0
 300 477 265 460 241 428 c 0
 217 394 205 347 205 285 c 2
 205 234 l 2
 205 171 217 124 241 91 c 0
 265 58 300 42 345 42 c 0
 391 42 426 60 450 97 c 0
 473 134 485 188 485 260 c 0xb6
590 260 m 0
 590 179 570 113 530 62 c 0
 489 11 437 -14 373 -14 c 0
 333 -14 299 -6 272 9 c 0
 245 24 222 48 205 81 c 1xb6
 205 0 l 1
 29 0 l 1
 29 52 l 1x7a
 115 52 l 1
 115 708 l 1x76
 29 708 l 1
 29 760 l 1
 205 760 l 1x7a
 205 438 l 1
 222 471 245 495 272 510 c 0
 299 525 333 533 373 533 c 0
 437 533 489 508 530 458 c 0
 570 407 590 341 590 260 c 0
EndSplineSet
AlternateSubs2: "'aalt' Access All Alternates in Mathematical Alphanumeric Symbols lookup 0 subtable" b.st b.sts
AlternateSubs2: "sstyMATH subtable" b.st b.sts
EndChar
StartChar: c
Encoding: 99 99 99
Width: 560
Flags: W
TopAccentHorizontal: 313
LayerCount: 2
Fore
SplineSet
514 156 m 1xf0
 501 101 477 58 441 30 c 0
 405 0 358 -14 301 -14 c 0
 226 -14 165 11 119 61 c 0
 73 111 50 177 50 260 c 0
 50 343 73 410 119 459 c 0
 165 508 226 533 301 533 c 0
 334 533 366 529 399 522 c 0
 432 514 464 502 497 487 c 1
 497 354 l 1
 445 354 l 1xe8
 438 399 423 432 400 454 c 0
 377 474 345 485 302 485 c 0
 253 485 217 466 192 428 c 0
 167 391 155 335 155 260 c 0
 155 185 167 129 192 91 c 0
 217 53 253 34 302 34 c 0
 341 34 372 44 394 64 c 0
 418 85 433 115 442 156 c 1
 514 156 l 1xf0
EndSplineSet
AlternateSubs2: "'aalt' Access All Alternates in Mathematical Alphanumeric Symbols lookup 0 subtable" c.st c.sts
AlternateSubs2: "sstyMATH subtable" c.st c.sts
EndChar
StartChar: d
Encoding: 100 100 100
Width: 640
Flags: W
TopAccentHorizontal: 438
LayerCount: 2
Fore
SplineSet
435 234 m 2xbc
 435 285 l 2
 435 347 423 394 399 428 c 0
 375 460 340 477 295 477 c 0
 249 477 214 459 190 422 c 0
 167 386 155 332 155 260 c 0
 155 189 167 135 190 98 c 0
 214 60 249 42 295 42 c 0
 340 42 375 58 399 91 c 0
 423 124 435 171 435 234 c 2xbc
611 0 m 1x7c
 435 0 l 1x7c
 435 81 l 1
 418 48 395 24 368 9 c 0
 341 -6 307 -14 267 -14 c 0xbc
 203 -14 151 11 110 62 c 0
 70 113 50 179 50 260 c 0
 50 341 70 407 110 458 c 0
 151 508 203 533 267 533 c 0
 307 533 341 525 368 510 c 0
 395 495 418 471 435 438 c 1
 435 708 l 1
 350 708 l 1
 350 760 l 1
 525 760 l 1
 525 52 l 1
 611 52 l 1
 611 0 l 1x7c
EndSplineSet
AlternateSubs2: "'aalt' Access All Alternates in Mathematical Alphanumeric Symbols lookup 0 subtable" d.st d.sts
AlternateSubs2: "sstyMATH subtable" d.st d.sts
EndChar
StartChar: e
Encoding: 101 101 101
Width: 591
Flags: W
TopAccentHorizontal: 298
LayerCount: 2
Fore
SplineSet
436 302 m 1
 434 363 421 408 398 439 c 0
 374 470 340 485 296 485 c 0
 255 485 222 470 198 438 c 0
 175 408 160 362 155 302 c 1
 436 302 l 1
542 250 m 1
 155 250 l 1
 155 246 l 2
 155 176 168 123 194 88 c 0
 221 52 260 34 311 34 c 0
 350 34 383 44 408 65 c 0
 433 86 451 116 461 157 c 1
 533 157 l 1
 519 100 493 58 454 29 c 0
 415 0 365 -14 302 -14 c 0
 226 -14 165 11 119 61 c 0
 73 111 50 177 50 260 c 0
 50 342 73 408 118 458 c 0
 163 508 223 533 296 533 c 0
 375 533 435 509 477 460 c 0
 519 412 541 342 542 250 c 1
EndSplineSet
AlternateSubs2: "'aalt' Access All Alternates in Mathematical Alphanumeric Symbols lookup 0 subtable" e.st e.sts
AlternateSubs2: "sstyMATH subtable" e.st e.sts
EndChar
StartChar: f
Encoding: 102 102 102
Width: 370
Flags: W
ItalicCorrection: 88
TopAccentHorizontal: 310
LayerCount: 2
Fore
SplineSet
430 637 m 1xec
 383 637 l 1xec
 383 662 376 680 362 693 c 0
 349 706 329 712 303 712 c 0
 270 712 246 703 232 684 c 0
 219 666 212 633 212 586 c 2
 212 519 l 1
 357 519 l 1
 357 467 l 1
 212 467 l 1
 212 52 l 1
 327 52 l 1
 327 0 l 1
 36 0 l 1
 36 52 l 1
 122 52 l 1
 122 467 l 1
 36 467 l 1
 36 519 l 1
 122 519 l 1
 122 584 l 2
 122 642 137 686 167 716 c 0
 197 745 241 760 300 760 c 0xdc
 322 760 344 758 366 754 c 0
 387 750 409 744 430 736 c 1
 430 637 l 1xec
EndSplineSet
AlternateSubs2: "'aalt' Access All Alternates in Mathematical Alphanumeric Symbols lookup 0 subtable" f.st f.sts
AlternateSubs2: "sstyMATH subtable" f.st f.sts
EndChar
StartChar: g
Encoding: 103 103 103
Width: 640
Flags: W
TopAccentHorizontal: 403
LayerCount: 2
Fore
SplineSet
435 234 m 2x2d
 435 285 l 2
 435 347 423 394 399 428 c 0
 375 460 340 477 295 477 c 0
 249 477 214 459 190 422 c 0
 167 386 155 332 155 260 c 0
 155 189 167 135 190 98 c 0
 214 60 249 42 295 42 c 0
 340 42 375 58 399 91 c 0
 423 124 435 171 435 234 c 2x2d
611 467 m 1x35
 525 467 l 1
 525 11 l 2
 525 -64 504 -121 464 -162 c 0
 422 -202 364 -222 288 -222 c 0xb5
 254 -222 221 -219 190 -213 c 0
 159 -207 129 -198 100 -185 c 1
 100 -76 l 1
 147 -76 l 1x63
 153 -110 167 -135 188 -150 c 0
 210 -166 241 -174 282 -174 c 0
 335 -174 373 -159 398 -129 c 0
 423 -99 435 -52 435 11 c 2
 435 81 l 1
 418 48 395 24 368 9 c 0
 341 -6 307 -14 267 -14 c 0
 203 -14 151 11 110 62 c 0
 70 113 50 179 50 260 c 0
 50 341 70 407 110 458 c 0
 151 508 203 533 267 533 c 0xad
 307 533 341 525 368 510 c 0
 395 495 418 471 435 438 c 1
 435 519 l 1
 611 519 l 1
 611 467 l 1x35
EndSplineSet
AlternateSubs2: "'aalt' Access All Alternates in Mathematical Alphanumeric Symbols lookup 0 subtable" g.st g.sts
AlternateSubs2: "sstyMATH subtable" g.st g.sts
EndChar
StartChar: h
Encoding: 104 104 104
Width: 644
Flags: W
TopAccentHorizontal: 124
LayerCount: 2
Fore
SplineSet
616 0 m 1
 368 0 l 1
 368 52 l 1
 446 52 l 1
 446 302 l 2
 446 365 438 409 422 432 c 0
 407 455 379 467 340 467 c 0
 299 467 267 452 245 422 c 0
 223 391 212 347 212 289 c 2
 212 52 l 1
 290 52 l 1
 290 0 l 1
 41 0 l 1
 41 52 l 1
 122 52 l 1
 122 708 l 1
 36 708 l 1
 36 760 l 1
 212 760 l 1
 212 427 l 1
 229 462 250 489 276 506 c 0
 303 524 334 533 369 533 c 0
 426 533 469 517 496 484 c 0
 522 451 536 400 536 330 c 2
 536 52 l 1
 616 52 l 1
 616 0 l 1
EndSplineSet
AlternateSubs2: "'aalt' Access All Alternates in Mathematical Alphanumeric Symbols lookup 0 subtable" h.st h.sts
AlternateSubs2: "sstyMATH subtable" h.st h.sts
EndChar
StartChar: i
Encoding: 105 105 105
Width: 319
Flags: W
ItalicCorrection: 6
TopAccentHorizontal: 153
LayerCount: 2
Fore
SplineSet
297 0 m 1xe8
 36 0 l 1
 36 52 l 1
 122 52 l 1
 122 467 l 1
 36 467 l 1
 36 519 l 1
 212 519 l 1
 212 52 l 1
 297 52 l 1
 297 0 l 1xe8
208 680 m 0xf0
 208 665 203 652 192 641 c 0
 181 630 168 625 153 625 c 0
 138 625 124 630 114 641 c 0
 102 652 97 665 97 680 c 0
 97 695 102 708 114 719 c 0
 124 730 138 736 153 736 c 0
 168 736 181 730 192 720 c 0
 202 708 208 695 208 680 c 0xf0
EndSplineSet
AlternateSubs2: "'aalt' Access All Alternates in Mathematical Alphanumeric Symbols lookup 0 subtable" i.st i.sts dotlessi
AlternateSubs2: "sstyMATH subtable" i.st i.sts
Substitution2: "dtlsMATH subtable" dotlessi
EndChar
StartChar: j
Encoding: 106 106 106
Width: 310
Flags: W
TopAccentHorizontal: 155
LayerCount: 2
Fore
SplineSet
212 -51 m 2xba
 212 -104 196 -146 164 -176 c 0
 133 -207 89 -222 33 -222 c 0xba
 10 -222 -13 -219 -34 -214 c 0
 -55 -209 -76 -201 -96 -190 c 1
 -96 -83 l 1
 -50 -83 l 1x7a
 -48 -114 -40 -137 -26 -152 c 0
 -12 -167 8 -174 35 -174 c 0
 64 -174 86 -164 100 -144 c 0xbc
 115 -124 122 -93 122 -51 c 2
 122 467 l 1
 37 467 l 1
 37 519 l 1
 212 519 l 1
 212 -51 l 2xba
211 680 m 0x3c
 211 665 206 652 195 641 c 0
 184 630 171 625 156 625 c 0
 141 625 127 630 116 641 c 0
 106 652 100 665 100 680 c 0
 100 695 106 708 116 719 c 0
 128 730 141 736 156 736 c 0
 171 736 184 730 194 720 c 0
 206 708 211 695 211 680 c 0x3c
EndSplineSet
AlternateSubs2: "'aalt' Access All Alternates in Mathematical Alphanumeric Symbols lookup 0 subtable" j.st j.sts dotlessj
AlternateSubs2: "sstyMATH subtable" j.st j.sts
Substitution2: "dtlsMATH subtable" dotlessj
EndChar
StartChar: k
Encoding: 107 107 107
Width: 605
Flags: W
ItalicCorrection: 36
TopAccentHorizontal: 117
LayerCount: 2
Fore
SplineSet
613 0 m 1
 357 0 l 1
 357 52 l 1
 431 52 l 1
 276 265 l 1
 205 199 l 1
 205 52 l 1
 286 52 l 1
 286 0 l 1
 34 0 l 1
 34 52 l 1
 115 52 l 1
 115 708 l 1
 29 708 l 1
 29 760 l 1
 205 760 l 1
 205 265 l 1
 424 467 l 1
 349 467 l 1
 349 519 l 1
 584 519 l 1
 584 467 l 1
 495 467 l 1
 341 324 l 1
 538 52 l 1
 613 52 l 1
 613 0 l 1
EndSplineSet
AlternateSubs2: "'aalt' Access All Alternates in Mathematical Alphanumeric Symbols lookup 0 subtable" k.st k.sts
AlternateSubs2: "sstyMATH subtable" k.st k.sts
EndChar
StartChar: l
Encoding: 108 108 108
Width: 319
Flags: W
TopAccentHorizontal: 117
LayerCount: 2
Fore
SplineSet
290 0 m 1
 29 0 l 1
 29 52 l 1
 115 52 l 1
 115 708 l 1
 29 708 l 1
 29 760 l 1
 205 760 l 1
 205 52 l 1
 290 52 l 1
 290 0 l 1
EndSplineSet
AlternateSubs2: "'aalt' Access All Alternates in Mathematical Alphanumeric Symbols lookup 0 subtable" l.st l.sts
AlternateSubs2: "sstyMATH subtable" l.st l.sts
EndChar
StartChar: m
Encoding: 109 109 109
Width: 948
Flags: W
TopAccentHorizontal: 393
CounterMasks: 1 1c
LayerCount: 2
Fore
SplineSet
921 0 m 1xdc
 672 0 l 1
 672 52 l 1
 750 52 l 1
 750 320 l 2
 750 373 742 411 726 434 c 0
 711 456 685 467 649 467 c 0
 609 467 578 452 558 422 c 0
 536 391 526 347 526 289 c 2
 526 52 l 1
 604 52 l 1
 604 0 l 1
 358 0 l 1
 358 52 l 1
 436 52 l 1
 436 323 l 2
 436 375 428 412 412 434 c 0
 397 456 371 467 335 467 c 0xdc
 295 467 264 452 244 422 c 0
 222 391 212 347 212 289 c 2
 212 52 l 1
 290 52 l 1
 290 0 l 1
 41 0 l 1
 41 52 l 1
 122 52 l 1
 122 468 l 1
 36 468 l 1
 36 519 l 1
 212 519 l 1xbc
 212 427 l 1
 229 462 250 488 276 506 c 0
 301 524 330 533 363 533 c 0
 404 533 437 523 464 503 c 0
 491 483 509 455 518 418 c 1
 535 456 558 485 584 504 c 0
 612 523 643 533 678 533 c 0
 733 533 773 516 800 482 c 0
 827 449 840 398 840 330 c 2
 840 52 l 1
 921 52 l 1
 921 0 l 1xdc
EndSplineSet
AlternateSubs2: "'aalt' Access All Alternates in Mathematical Alphanumeric Symbols lookup 0 subtable" m.st m.sts
AlternateSubs2: "sstyMATH subtable" m.st m.sts
EndChar
StartChar: n
Encoding: 110 110 110
Width: 644
Flags: W
TopAccentHorizontal: 240
LayerCount: 2
Fore
SplineSet
616 0 m 1xb8
 368 0 l 1
 368 52 l 1
 446 52 l 1
 446 302 l 2
 446 365 438 409 422 432 c 0
 407 456 379 468 340 468 c 0xb8
 299 468 267 453 245 422 c 0
 223 391 212 347 212 289 c 2
 212 52 l 1
 290 52 l 1
 290 0 l 1
 41 0 l 1
 41 52 l 1
 122 52 l 1
 122 467 l 1
 36 467 l 1
 36 519 l 1
 212 519 l 1xd8
 212 427 l 1
 229 462 250 489 276 506 c 0
 303 524 334 533 369 533 c 0
 426 533 469 517 496 484 c 0
 522 451 536 400 536 330 c 2
 536 52 l 1
 616 52 l 1
 616 0 l 1xb8
EndSplineSet
AlternateSubs2: "'aalt' Access All Alternates in Mathematical Alphanumeric Symbols lookup 0 subtable" n.st n.sts
AlternateSubs2: "sstyMATH subtable" n.st n.sts
EndChar
StartChar: o
Encoding: 111 111 111
Width: 602
Flags: W
TopAccentHorizontal: 301
LayerCount: 2
Fore
SplineSet
552 260 m 0
 552 177 529 111 484 61 c 0
 438 11 377 -14 301 -14 c 0
 226 -14 165 11 119 61 c 0
 73 111 50 177 50 260 c 0
 50 343 73 409 118 458 c 0
 164 508 225 533 301 533 c 0
 377 533 438 508 484 458 c 0
 529 409 552 343 552 260 c 0
447 260 m 0
 447 334 435 390 410 428 c 0
 385 466 349 485 301 485 c 0
 253 485 217 466 192 428 c 0
 167 390 155 334 155 260 c 0
 155 186 167 130 192 92 c 0
 217 53 253 34 301 34 c 0
 349 34 385 53 410 91 c 0
 435 129 447 185 447 260 c 0
EndSplineSet
AlternateSubs2: "'aalt' Access All Alternates in Mathematical Alphanumeric Symbols lookup 0 subtable" o.st o.sts
AlternateSubs2: "sstyMATH subtable" o.st o.sts
EndChar
StartChar: p
Encoding: 112 112 112
Width: 640
Flags: W
TopAccentHorizontal: 237
LayerCount: 2
Fore
SplineSet
590 260 m 0xdc
 590 179 570 113 530 62 c 0
 489 11 437 -14 373 -14 c 0
 333 -14 299 -6 272 9 c 0
 245 24 222 48 205 81 c 1
 205 -156 l 1
 290 -156 l 1
 290 -208 l 1
 29 -208 l 1
 29 -156 l 1
 115 -156 l 1
 115 467 l 1
 29 467 l 1
 29 519 l 1
 205 519 l 1xec
 205 438 l 1
 222 471 245 495 272 510 c 0
 299 525 333 533 373 533 c 0
 437 533 489 508 530 458 c 0
 570 407 590 341 590 260 c 0xdc
485 260 m 0
 485 332 473 386 450 422 c 0
 426 459 391 477 345 477 c 0xdc
 300 477 265 460 241 428 c 0
 217 394 205 347 205 285 c 2
 205 234 l 2
 205 171 217 124 241 91 c 0
 265 58 300 42 345 42 c 0
 391 42 426 60 450 97 c 0
 473 134 485 188 485 260 c 0
EndSplineSet
AlternateSubs2: "'aalt' Access All Alternates in Mathematical Alphanumeric Symbols lookup 0 subtable" p.st p.sts
AlternateSubs2: "sstyMATH subtable" p.st p.sts
EndChar
StartChar: q
Encoding: 113 113 113
Width: 640
Flags: W
TopAccentHorizontal: 403
LayerCount: 2
Fore
SplineSet
435 234 m 2xdc
 435 285 l 2
 435 347 423 394 399 428 c 0
 375 460 340 477 295 477 c 0
 249 477 214 459 190 422 c 0
 167 386 155 332 155 260 c 0
 155 189 167 135 190 98 c 0
 214 60 249 42 295 42 c 0
 340 42 375 58 399 91 c 0
 423 124 435 171 435 234 c 2xdc
611 -208 m 1
 350 -208 l 1
 350 -156 l 1
 435 -156 l 1
 435 81 l 1
 418 48 395 24 368 9 c 0
 341 -6 307 -14 267 -14 c 0
 203 -14 151 11 110 62 c 0
 70 113 50 179 50 260 c 0
 50 341 70 407 110 458 c 0
 151 508 203 533 267 533 c 0xdc
 307 533 341 525 368 510 c 0
 395 495 418 471 435 438 c 1
 435 519 l 1
 611 519 l 1
 611 467 l 1
 525 467 l 1xec
 525 -156 l 1
 611 -156 l 1
 611 -208 l 1
EndSplineSet
AlternateSubs2: "'aalt' Access All Alternates in Mathematical Alphanumeric Symbols lookup 0 subtable" q.st q.sts
AlternateSubs2: "sstyMATH subtable" q.st q.sts
EndChar
StartChar: r
Encoding: 114 114 114
Width: 478
Flags: W
ItalicCorrection: 28
TopAccentHorizontal: 257
LayerCount: 2
Fore
SplineSet
478 390 m 1xd8
 426 390 l 1
 425 416 418 435 405 448 c 0
 392 461 374 467 349 467 c 0xd8
 305 467 271 452 248 421 c 0
 224 390 212 346 212 289 c 2
 212 52 l 1
 316 52 l 1
 316 0 l 1
 41 0 l 1
 41 52 l 1
 122 52 l 1
 122 468 l 1
 36 468 l 1
 36 519 l 1
 212 519 l 1xb8
 212 427 l 1
 229 463 252 490 280 507 c 0
 307 524 341 533 381 533 c 0
 396 533 411 532 427 530 c 2
 478 520 l 1
 478 390 l 1xd8
EndSplineSet
AlternateSubs2: "'aalt' Access All Alternates in Mathematical Alphanumeric Symbols lookup 0 subtable" r.st r.sts
AlternateSubs2: "sstyMATH subtable" r.st r.sts
EndChar
StartChar: s
Encoding: 115 115 115
Width: 513
Flags: W
TopAccentHorizontal: 254
LayerCount: 2
Fore
SplineSet
462 144 m 0x16
 462 95 443 56 406 28 c 0
 368 0 316 -14 250 -14 c 0x96
 217 -14 184 -10 152 -3 c 0
 120 4 88 15 56 29 c 1
 56 150 l 1
 108 150 l 1x4a
 109 111 122 82 144 63 c 0
 168 44 201 34 246 34 c 0
 287 34 318 42 338 57 c 0
 360 72 370 94 370 123 c 0
 370 146 362 164 347 178 c 0
 332 192 299 207 249 223 c 2
 184 245 l 2
 139 259 107 277 87 298 c 0
 67 320 57 348 57 381 c 0
 57 428 74 466 110 492 c 0
 144 520 193 533 254 533 c 0x96
 281 533 310 530 340 522 c 0
 371 516 402 505 434 491 c 1
 434 378 l 1
 382 378 l 1x25
 381 411 369 438 347 456 c 0
 325 476 295 485 257 485 c 0
 219 485 190 478 171 465 c 0
 152 452 142 432 142 405 c 0
 142 383 149 366 164 352 c 0
 179 340 208 326 252 312 c 2
 323 290 l 2
 372 275 408 256 430 232 c 0
 451 210 462 180 462 144 c 0x16
EndSplineSet
AlternateSubs2: "'aalt' Access All Alternates in Mathematical Alphanumeric Symbols lookup 0 subtable" s.st s.sts
AlternateSubs2: "sstyMATH subtable" s.st s.sts
EndChar
StartChar: t
Encoding: 116 116 116
Width: 401
Flags: W
ItalicCorrection: 21
TopAccentHorizontal: 153
LayerCount: 2
Fore
SplineSet
394 122 m 1
 391 75 378 40 356 18 c 0
 332 -3 297 -14 250 -14 c 0
 198 -14 161 -2 140 20 c 0
 119 44 108 82 108 137 c 2
 108 467 l 1
 29 467 l 1
 29 519 l 1
 108 519 l 1
 108 680 l 1
 198 680 l 1
 198 519 l 1
 367 519 l 1
 367 467 l 1
 198 467 l 1
 198 137 l 2
 198 93 202 65 211 52 c 0
 220 40 235 34 258 34 c 0
 281 34 298 41 309 55 c 0
 320 69 325 91 326 122 c 1
 394 122 l 1
EndSplineSet
AlternateSubs2: "'aalt' Access All Alternates in Mathematical Alphanumeric Symbols lookup 0 subtable" t.st t.sts
AlternateSubs2: "sstyMATH subtable" t.st t.sts
EndChar
StartChar: u
Encoding: 117 117 117
Width: 644
Flags: W
TopAccentHorizontal: 275
LayerCount: 2
Fore
SplineSet
607 0 m 1x78
 432 0 l 1x78
 432 92 l 1
 415 57 394 31 368 13 c 0
 341 -5 311 -14 276 -14 c 0
 219 -14 176 2 149 35 c 0
 122 68 108 119 108 189 c 2
 108 467 l 1
 27 467 l 1
 27 519 l 1
 198 519 l 1
 198 217 l 2
 198 154 206 110 222 87 c 0
 237 64 265 52 304 52 c 0xb8
 345 52 377 67 399 98 c 0
 421 129 432 173 432 231 c 2
 432 467 l 1
 354 467 l 1
 354 519 l 1
 522 519 l 1
 522 52 l 1
 607 52 l 1
 607 0 l 1x78
EndSplineSet
AlternateSubs2: "'aalt' Access All Alternates in Mathematical Alphanumeric Symbols lookup 0 subtable" u.st u.sts
AlternateSubs2: "sstyMATH subtable" u.st u.sts
EndChar
StartChar: v
Encoding: 118 118 118
Width: 564
Flags: W
ItalicCorrection: 26
TopAccentHorizontal: 280
LayerCount: 2
Fore
SplineSet
562 467 m 1
 504 467 l 1
 313 0 l 1
 247 0 l 1
 56 467 l 1
 -3 467 l 1
 -3 519 l 1
 236 519 l 1
 236 467 l 1
 153 467 l 1
 299 110 l 1
 445 467 l 1
 367 467 l 1
 367 519 l 1
 562 519 l 1
 562 467 l 1
EndSplineSet
AlternateSubs2: "'aalt' Access All Alternates in Mathematical Alphanumeric Symbols lookup 0 subtable" v.st v.sts
AlternateSubs2: "sstyMATH subtable" v.st v.sts
EndChar
StartChar: w
Encoding: 119 119 119
Width: 855
Flags: W
ItalicCorrection: 16
TopAccentHorizontal: 430
LayerCount: 2
Fore
SplineSet
843 467 m 1
 785 467 l 1
 631 0 l 1
 556 0 l 1
 428 388 l 1
 300 0 l 1
 228 0 l 1
 74 467 l 1
 16 467 l 1
 16 519 l 1
 251 519 l 1
 251 467 l 1
 167 467 l 1
 283 114 l 1
 417 519 l 1
 480 519 l 1
 613 114 l 1
 730 467 l 1
 655 467 l 1
 655 519 l 1
 843 519 l 1
 843 467 l 1
EndSplineSet
AlternateSubs2: "'aalt' Access All Alternates in Mathematical Alphanumeric Symbols lookup 0 subtable" w.st w.sts
AlternateSubs2: "sstyMATH subtable" w.st w.sts
EndChar
StartChar: x
Encoding: 120 120 120
Width: 563
Flags: W
ItalicCorrection: 17
TopAccentHorizontal: 271
LayerCount: 2
Fore
SplineSet
552 0 m 1
 312 0 l 1
 312 52 l 1
 378 52 l 1
 265 207 l 1
 152 52 l 1
 219 52 l 1
 219 0 l 1
 22 0 l 1
 22 52 l 1
 91 52 l 1
 234 249 l 1
 76 467 l 1
 12 467 l 1
 12 519 l 1
 244 519 l 1
 244 467 l 1
 182 467 l 1
 291 317 l 1
 400 467 l 1
 330 467 l 1
 330 519 l 1
 530 519 l 1
 530 467 l 1
 461 467 l 1
 322 275 l 1
 484 52 l 1
 552 52 l 1
 552 0 l 1
EndSplineSet
AlternateSubs2: "'aalt' Access All Alternates in Mathematical Alphanumeric Symbols lookup 0 subtable" x.st x.sts
AlternateSubs2: "sstyMATH subtable" x.st x.sts
EndChar
StartChar: y
Encoding: 121 121 121
Width: 564
Flags: W
ItalicCorrection: 26
TopAccentHorizontal: 280
LayerCount: 2
Fore
SplineSet
562 467 m 1xb0
 504 467 l 1
 266 -117 l 2
 250 -158 232 -185 212 -200 c 0
 192 -215 164 -222 128 -222 c 0xb0
 113 -222 97 -221 81 -218 c 0
 65 -215 49 -212 32 -207 c 1
 32 -108 l 1
 78 -108 l 1x70
 80 -130 86 -146 95 -156 c 0
 104 -165 119 -170 138 -170 c 0
 156 -170 170 -165 182 -155 c 0
 192 -145 204 -125 216 -95 c 2
 250 -9 l 1
 56 467 l 1
 -3 467 l 1
 -3 519 l 1
 236 519 l 1
 236 467 l 1
 153 467 l 1
 299 110 l 1
 445 467 l 1
 367 467 l 1
 367 519 l 1
 562 519 l 1
 562 467 l 1xb0
EndSplineSet
AlternateSubs2: "'aalt' Access All Alternates in Mathematical Alphanumeric Symbols lookup 0 subtable" y.st y.sts
AlternateSubs2: "sstyMATH subtable" y.st y.sts
EndChar
StartChar: z
Encoding: 122 122 122
Width: 526
Flags: W
TopAccentHorizontal: 269
LayerCount: 2
Fore
SplineSet
490 0 m 1
 40 0 l 1
 40 42 l 1
 365 467 l 1
 108 467 l 1
 108 377 l 1
 56 377 l 1
 56 519 l 1
 481 519 l 1
 481 477 l 1
 156 52 l 1
 438 52 l 1
 438 146 l 1
 490 146 l 1
 490 0 l 1
EndSplineSet
AlternateSubs2: "'aalt' Access All Alternates in Mathematical Alphanumeric Symbols lookup 0 subtable" z.st z.sts
AlternateSubs2: "sstyMATH subtable" z.st z.sts
EndChar
StartChar: braceleft
Encoding: 123 123 123
Width: 418
Flags: W
GlyphVariantsVertical: braceleft braceleft.v1 braceleft.v2 braceleft.v3 braceleft.v4 braceleft.v5 braceleft.v6
GlyphCompositionVertical: 5  uni23A9%0,0,314,656 braceleft.ex%1,628,628,628 uni23A8%0,314,314,1260 braceleft.ex%1,628,628,628 uni23A7%0,314,0,656
CounterMasks: 1 e0
LayerCount: 2
Fore
SplineSet
365 -173 m 1
 236 -173 165 -122 165 -6 c 2
 165 134 l 2
 165 206 132 249 53 249 c 1
 53 301 l 1
 132 301 165 344 165 416 c 2
 165 556 l 2
 165 672 236 723 365 723 c 1
 365 671 l 1
 286 671 253 628 253 556 c 2
 253 416 l 2
 253 347 228 301 180 275 c 1
 228 249 253 203 253 134 c 2
 253 -6 l 2
 253 -78 286 -121 365 -121 c 1
 365 -173 l 1
EndSplineSet
EndChar
StartChar: bar
Encoding: 124 124 124
Width: 224
Flags: W
GlyphVariantsVertical: bar divides.v1 divides.v2 divides.v3 divides.v4 divides.v5 divides.v6
GlyphCompositionVertical: 3  divides.bt%0,0,420,840 divides.ex%1,840,840,840 divides.tp%0,420,0,840
LayerCount: 2
Fore
SplineSet
144 -147 m 1
 80 -147 l 1
 80 697 l 1
 144 697 l 1
 144 -147 l 1
EndSplineSet
EndChar
StartChar: braceright
Encoding: 125 125 125
Width: 418
Flags: W
GlyphVariantsVertical: braceright braceright.v1 braceright.v2 braceright.v3 braceright.v4 braceright.v5 braceright.v6
GlyphCompositionVertical: 5  uni23AD%0,0,314,656 braceright.ex%1,628,628,628 uni23AC%0,314,314,1260 braceright.ex%1,628,628,628 uni23AB%0,314,0,656
CounterMasks: 1 e0
LayerCount: 2
Fore
SplineSet
365 249 m 1
 286 249 253 206 253 134 c 2
 253 -6 l 2
 253 -122 182 -173 53 -173 c 1
 53 -121 l 1
 132 -121 165 -78 165 -6 c 2
 165 134 l 2
 165 203 190 249 238 275 c 1
 190 301 165 347 165 416 c 2
 165 556 l 2
 165 628 132 671 53 671 c 1
 53 723 l 1
 182 723 253 672 253 556 c 2
 253 416 l 2
 253 344 286 301 365 301 c 1
 365 249 l 1
EndSplineSet
EndChar
StartChar: asciitilde
Encoding: 126 126 126
Width: 837
Flags: W
LayerCount: 2
Fore
SplineSet
732 322 m 1x80
 699 293 668 272 639 258 c 0
 610 245 580 238 550 238 c 0x80
 519 238 475 249 418 270 c 2
 413 272 l 2
 410 273 404 275 397 278 c 0
 349 297 310 306 279 306 c 0
 249 306 220 300 192 288 c 0
 163 277 135 258 106 233 c 1
 106 307 l 1
 139 335 170 356 198 369 c 0
 228 382 257 389 288 389 c 0x40
 319 389 363 378 420 357 c 2
 425 355 l 1
 440 349 l 2
 487 330 527 321 558 321 c 0
 588 321 617 327 646 339 c 0
 675 351 703 369 732 394 c 1
 732 322 l 1x80
EndSplineSet
EndChar
StartChar: exclamdown
Encoding: 161 161 161
Width: 401
Flags: W
LayerCount: 2
Fore
SplineSet
264 0 m 1xe8
 138 0 l 1
 171 401 l 1
 171 524 l 1
 231 524 l 1
 231 401 l 1
 264 0 l 1xe8
266 678 m 0xf0
 266 660 260 645 247 632 c 0
 234 619 219 613 201 613 c 0
 182 613 167 619 154 632 c 0
 142 645 136 660 136 678 c 0
 136 696 142 711 154 724 c 0
 167 737 182 743 201 743 c 0
 219 743 234 737 247 724 c 0
 260 711 266 696 266 678 c 0xf0
EndSplineSet
AlternateSubs2: "'aalt' Access All Alternates in Mathematical Alphanumeric Symbols lookup 0 subtable" exclamdown.st exclamdown.sts
AlternateSubs2: "sstyMATH subtable" exclamdown.st exclamdown.sts
EndChar
StartChar: cent
Encoding: 162 162 162
Width: 636
Flags: W
LayerCount: 2
Fore
SplineSet
539 156 m 1xf8
 528 106 507 67 476 38 c 0
 445 10 405 -7 356 -13 c 1
 356 -145 l 1
 307 -145 l 1
 307 -13 l 1
 236 -7 179 20 138 70 c 0
 96 118 75 182 75 260 c 0
 75 339 96 402 138 451 c 0
 179 500 236 527 307 532 c 1
 307 662 l 1
 356 662 l 1
 356 532 l 1
 386 529 415 524 442 517 c 0
 469 510 496 500 522 487 c 1
 522 354 l 1
 470 354 l 1xf4
 464 394 452 425 433 446 c 0
 414 467 389 480 356 484 c 1
 356 35 l 1
 385 39 409 51 428 72 c 0
 448 93 460 121 467 156 c 1
 539 156 l 1xf8
307 35 m 1
 307 484 l 1
 265 479 234 458 212 420 c 0
 192 383 181 329 181 260 c 0
 181 190 192 136 212 98 c 0
 234 61 265 40 307 35 c 1
EndSplineSet
AlternateSubs2: "'aalt' Access All Alternates in Mathematical Alphanumeric Symbols lookup 0 subtable" cent.st cent.sts
AlternateSubs2: "sstyMATH subtable" cent.st cent.sts
EndChar
StartChar: sterling
Encoding: 163 163 163
Width: 636
Flags: W
LayerCount: 2
Fore
SplineSet
549 0 m 1x65
 67 0 l 1
 67 52 l 1
 161 52 l 1
 161 338 l 1
 67 338 l 1
 67 390 l 1
 161 390 l 1
 161 538 l 2
 161 605 180 655 217 690 c 0
 254 725 309 742 381 742 c 0x6d
 409 742 436 740 462 736 c 0
 488 732 513 726 538 718 c 1
 538 598 l 1
 487 598 l 1x36
 484 629 473 652 454 669 c 0
 436 686 411 694 380 694 c 0
 339 694 308 681 288 656 c 0
 269 631 259 591 259 538 c 2
 259 390 l 1
 460 390 l 1
 460 338 l 1
 259 338 l 1
 259 59 l 1
 492 59 l 1xad
 492 170 l 1
 549 170 l 1
 549 0 l 1x65
EndSplineSet
AlternateSubs2: "'aalt' Access All Alternates in Mathematical Alphanumeric Symbols lookup 0 subtable" sterling.st sterling.sts
AlternateSubs2: "sstyMATH subtable" sterling.st sterling.sts
EndChar
StartChar: fraction
Encoding: 164 8260 164
Width: 452
Flags: W
GlyphVariantsVertical: fraction fraction.v1 fraction.v2 fraction.v3 fraction.v4 fraction.v5 fraction.v6
LayerCount: 2
Fore
SplineSet
372 697 m 1
 146 -147 l 1
 80 -147 l 1
 306 697 l 1
 372 697 l 1
EndSplineSet
EndChar
StartChar: yen
Encoding: 165 165 165
Width: 636
Flags: W
ItalicCorrection: 31
LayerCount: 2
Fore
SplineSet
639 677 m 1
 570 677 l 1
 431 434 l 1
 564 434 l 1
 564 383 l 1
 402 383 l 1
 367 323 l 1
 367 282 l 1
 564 282 l 1
 564 231 l 1
 367 231 l 1
 367 52 l 1
 460 52 l 1
 460 0 l 1
 176 0 l 1
 176 52 l 1
 269 52 l 1
 269 231 l 1
 72 231 l 1
 72 282 l 1
 269 282 l 1
 269 314 l 1
 229 383 l 1
 72 383 l 1
 72 434 l 1
 200 434 l 1
 60 677 l 1
 -8 677 l 1
 -8 729 l 1
 262 729 l 1
 262 677 l 1
 177 677 l 1
 344 382 l 1
 510 677 l 1
 428 677 l 1
 428 729 l 1
 639 729 l 1
 639 677 l 1
EndSplineSet
AlternateSubs2: "'aalt' Access All Alternates in Mathematical Alphanumeric Symbols lookup 0 subtable" yen.st yen.sts
AlternateSubs2: "sstyMATH subtable" yen.st yen.sts
EndChar
StartChar: florin
Encoding: 166 402 166
Width: 370
Flags: W
ItalicCorrection: 88
CounterMasks: 1 07
LayerCount: 2
Fore
SplineSet
430 637 m 1x37
 383 637 l 1x37
 383 644 382 650 381 657 c 0
 378 672 372 684 362 693 c 0
 348 706 328 712 303 712 c 0
 270 712 246 703 232 685 c 0
 218 666 211 633 212 586 c 2
 212 519 l 1
 357 519 l 1
 357 467 l 1
 212 467 l 1
 212 -9 l 2
 212 -67 197 -111 167 -141 c 0
 137 -170 93 -185 34 -185 c 0xaf
 12 -185 -10 -183 -31 -179 c 0
 -53 -175 -75 -169 -96 -161 c 1
 -96 -62 l 1
 -49 -62 l 1x67
 -49 -69 -48 -75 -47 -82 c 0
 -44 -97 -38 -109 -28 -118 c 0
 -14 -131 6 -137 31 -137 c 0
 64 -137 88 -128 102 -109 c 0
 116 -91 123 -58 122 -9 c 2
 122 467 l 1
 36 467 l 1
 36 519 l 1
 122 519 l 1
 122 584 l 2
 122 642 137 686 167 715 c 0
 197 744 241 759 300 760 c 0xaf
 322 760 344 758 365 754 c 0
 387 750 409 744 430 736 c 1
 430 637 l 1x37
EndSplineSet
EndChar
StartChar: section
Encoding: 167 167 167
Width: 500
Flags: W
LayerCount: 2
Fore
SplineSet
455 304 m 0x1440
 455 273 446 248 430 227 c 0
 412 206 385 189 348 175 c 1
 373 160 392 142 404 121 c 0
 416 100 422 75 422 46 c 0
 422 3 405 -31 372 -56 c 0
 339 -82 294 -95 238 -95 c 0x91
 209 -95 181 -93 155 -88 c 0
 129 -84 103 -77 78 -68 c 1
 78 34 l 1
 123 34 l 1x43
 124 8 133 -12 150 -25 c 0
 168 -38 194 -45 229 -45 c 0
 263 -45 290 -37 310 -21 c 0
 329 -5 339 17 339 44 c 0
 339 81 302 120 228 161 c 0
 221 165 216 168 212 170 c 0
 142 210 97 242 76 266 c 0
 55 291 45 319 45 351 c 0x89
 45 382 55 408 74 430 c 0
 93 451 121 467 156 477 c 1
 129 493 110 511 96 532 c 0
 84 552 77 575 77 601 c 0
 77 643 93 677 126 703 c 0
 159 729 202 742 256 742 c 0x94
 281 742 306 740 331 736 c 0
 356 731 380 724 405 715 c 1
 405 616 l 1
 360 616 l 1x2480
 359 639 350 658 334 672 c 0
 316 685 294 692 265 692 c 0
 232 692 207 684 188 668 c 0
 169 653 160 631 160 604 c 0
 160 573 200 535 280 490 c 0
 289 485 295 482 299 479 c 0
 362 444 404 414 424 390 c 0
 445 365 455 337 455 304 c 0x1440
375 289 m 0x0040
 375 314 364 337 341 358 c 0
 318 380 266 413 185 457 c 1
 163 442 148 428 138 414 c 0
 130 401 125 385 125 368 c 0
 125 325 184 271 302 205 c 2
 318 196 l 1
 337 209 351 223 360 238 c 0x0880
 370 253 375 270 375 289 c 0x0040
EndSplineSet
AlternateSubs2: "'aalt' Access All Alternates in Mathematical Alphanumeric Symbols lookup 0 subtable" section.st section.sts
AlternateSubs2: "sstyMATH subtable" section.st section.sts
EndChar
StartChar: currency
Encoding: 168 164 168
Width: 636
Flags: W
LayerCount: 2
Fore
SplineSet
450 314 m 0
 450 351 438 382 412 406 c 0
 388 432 356 444 319 444 c 0
 282 444 251 432 226 406 c 0
 201 381 188 351 188 314 c 0
 188 277 201 245 226 220 c 0
 251 195 282 182 319 182 c 0
 356 182 387 195 412 220 c 0
 437 246 450 277 450 314 c 0
588 536 m 1
 486 434 l 1
 500 415 510 395 517 375 c 0
 524 355 527 334 527 313 c 0
 527 290 524 269 517 250 c 0
 510 232 500 213 485 194 c 1
 586 93 l 1
 539 47 l 1
 438 147 l 1
 420 133 401 122 382 116 c 0
 363 108 342 105 319 105 c 0
 298 105 278 108 258 115 c 0
 237 122 217 132 197 145 c 1
 97 45 l 1
 51 91 l 1
 151 192 l 1
 138 212 128 232 121 252 c 0
 114 272 111 292 111 313 c 0
 111 336 114 357 121 376 c 0
 128 395 138 414 153 433 c 1
 52 534 l 1
 98 580 l 1
 199 479 l 1
 217 493 236 504 256 510 c 0
 275 518 296 521 319 521 c 0
 340 521 361 518 381 512 c 0
 401 505 421 495 440 481 c 1
 542 582 l 1
 588 536 l 1
EndSplineSet
EndChar
StartChar: quotesingle
Encoding: 169 39 169
Width: 274
Flags: W
LayerCount: 2
Fore
SplineSet
176 458 m 1
 98 458 l 1
 98 729 l 1
 176 729 l 1
 176 458 l 1
EndSplineSet
AlternateSubs2: "'aalt' Access All Alternates in Mathematical Alphanumeric Symbols lookup 0 subtable" quotesingle.st quotesingle.sts
AlternateSubs2: "sstyMATH subtable" quotesingle.st quotesingle.sts
EndChar
StartChar: quotedblleft
Encoding: 170 8220 170
Width: 511
Flags: W
LayerCount: 2
Fore
SplineSet
268 703 m 1
 243 682 225 658 214 630 c 0
 202 603 197 568 197 526 c 2
 197 495 l 1
 102 495 l 1
 102 552 112 600 133 639 c 0
 154 678 186 713 230 742 c 1
 268 703 l 1
461 703 m 1
 436 682 418 658 407 630 c 0
 396 603 390 568 390 526 c 2
 390 495 l 1
 295 495 l 1
 296 552 306 600 326 639 c 0
 346 678 378 713 423 742 c 1
 461 703 l 1
EndSplineSet
AlternateSubs2: "'aalt' Access All Alternates in Mathematical Alphanumeric Symbols lookup 0 subtable" quotedblleft.st quotedblleft.sts
AlternateSubs2: "sstyMATH subtable" quotedblleft.st quotedblleft.sts
EndChar
StartChar: guillemotleft
Encoding: 171 171 171
Width: 611
Flags: W
LayerCount: 2
Fore
SplineSet
306 69 m 1
 77 273 l 1
 77 313 l 1
 306 517 l 1
 306 461 l 1
 161 293 l 1
 306 125 l 1
 306 69 l 1
518 69 m 1
 289 273 l 1
 289 313 l 1
 518 517 l 1
 518 461 l 1
 373 293 l 1
 518 125 l 1
 518 69 l 1
EndSplineSet
AlternateSubs2: "'aalt' Access All Alternates in Mathematical Alphanumeric Symbols lookup 0 subtable" guillemotleft.st guillemotleft.sts
AlternateSubs2: "sstyMATH subtable" guillemotleft.st guillemotleft.sts
EndChar
StartChar: guilsinglleft
Encoding: 172 8249 172
Width: 399
Flags: W
LayerCount: 2
Fore
SplineSet
306 69 m 1
 77 273 l 1
 77 313 l 1
 306 517 l 1
 306 461 l 1
 161 293 l 1
 306 125 l 1
 306 69 l 1
EndSplineSet
AlternateSubs2: "'aalt' Access All Alternates in Mathematical Alphanumeric Symbols lookup 0 subtable" guilsinglleft.st guilsinglleft.sts
AlternateSubs2: "sstyMATH subtable" guilsinglleft.st guilsinglleft.sts
EndChar
StartChar: guilsinglright
Encoding: 173 8250 173
Width: 399
Flags: W
LayerCount: 2
Fore
SplineSet
323 273 m 1
 94 69 l 1
 94 125 l 1
 239 293 l 1
 94 461 l 1
 94 517 l 1
 323 313 l 1
 323 273 l 1
EndSplineSet
AlternateSubs2: "'aalt' Access All Alternates in Mathematical Alphanumeric Symbols lookup 0 subtable" guilsinglright.st guilsinglright.sts
AlternateSubs2: "sstyMATH subtable" guilsinglright.st guilsinglright.sts
EndChar
StartChar: f_i
Encoding: 174 64257 174
Width: 666
Flags: W
ItalicCorrection: 6
LayerCount: 2
Fore
SplineSet
644 0 m 1xdc
 383 0 l 1
 383 52 l 1
 469 52 l 1
 469 467 l 1
 212 467 l 1
 212 52 l 1
 297 52 l 1
 297 0 l 1
 36 0 l 1
 36 52 l 1
 122 52 l 1
 122 467 l 1
 36 467 l 1
 36 519 l 1
 122 519 l 1
 122 566 l 2
 122 630 141 678 179 711 c 0
 217 744 273 760 348 760 c 0xdc
 376 760 405 758 434 754 c 0
 464 749 494 743 523 734 c 1
 523 628 l 1
 477 628 l 1xea
 476 656 466 677 446 691 c 0
 426 705 396 712 356 712 c 0
 306 712 270 700 246 678 c 0
 224 654 212 618 212 568 c 2
 212 519 l 1
 559 519 l 1
 559 52 l 1
 644 52 l 1
 644 0 l 1xdc
EndSplineSet
AlternateSubs2: "'aalt' Access All Alternates in Mathematical Alphanumeric Symbols lookup 0 subtable" f_i.st f_i.sts
AlternateSubs2: "sstyMATH subtable" f_i.st f_i.sts
EndChar
StartChar: f_l
Encoding: 175 64258 175
Width: 666
Flags: W
LayerCount: 2
Fore
SplineSet
637 0 m 1
 376 0 l 1
 376 52 l 1
 462 52 l 1
 462 708 l 1
 357 708 l 2
 304 708 266 698 244 676 c 0
 223 655 212 619 212 568 c 2
 212 519 l 1
 356 519 l 1
 356 467 l 1
 212 467 l 1
 212 52 l 1
 297 52 l 1
 297 0 l 1
 36 0 l 1
 36 52 l 1
 122 52 l 1
 122 467 l 1
 36 467 l 1
 36 519 l 1
 122 519 l 1
 122 566 l 2
 122 631 142 680 180 712 c 0
 220 744 279 760 358 760 c 2
 552 760 l 1
 552 52 l 1
 637 52 l 1
 637 0 l 1
EndSplineSet
AlternateSubs2: "'aalt' Access All Alternates in Mathematical Alphanumeric Symbols lookup 0 subtable" f_l.st f_l.sts
AlternateSubs2: "sstyMATH subtable" f_l.st f_l.sts
EndChar
StartChar: endash
Encoding: 177 8211 177
Width: 500
Flags: W
LayerCount: 2
Fore
SplineSet
456 232 m 1
 44 232 l 1
 44 296 l 1
 456 296 l 1
 456 232 l 1
EndSplineSet
EndChar
StartChar: dagger
Encoding: 178 8224 178
Width: 500
Flags: W
LayerCount: 2
Fore
SplineSet
472 446 m 1xd0
 277 460 l 1xd0
 294 -96 l 1
 206 -96 l 1xe0
 223 460 l 1
 28 446 l 1
 28 527 l 1
 223 513 l 1xd0
 206 729 l 1
 294 729 l 1xe0
 277 513 l 1
 472 527 l 1
 472 446 l 1xd0
EndSplineSet
EndChar
StartChar: daggerdbl
Encoding: 179 8225 179
Width: 500
Flags: W
LayerCount: 2
Fore
SplineSet
472 106 m 1
 277 120 l 1
 294 -96 l 1
 206 -96 l 1
 223 120 l 1
 28 106 l 1
 28 187 l 1
 223 173 l 1
 206 316 l 1
 223 460 l 1
 28 446 l 1
 28 527 l 1
 223 513 l 1
 206 729 l 1
 294 729 l 1
 277 513 l 1
 472 527 l 1
 472 446 l 1
 277 460 l 1
 294 316 l 1
 277 173 l 1
 472 187 l 1
 472 106 l 1
EndSplineSet
EndChar
StartChar: paragraph
Encoding: 182 182 182
Width: 636
Flags: W
LayerCount: 2
Fore
SplineSet
572 677 m 1xd0
 514 677 l 1
 514 -96 l 1
 462 -96 l 1
 462 677 l 1
 349 677 l 1
 349 -96 l 1
 297 -96 l 1
 297 317 l 1xb0
 227 322 173 343 134 379 c 0
 96 415 77 463 77 523 c 0
 77 585 98 635 140 672 c 0
 183 710 239 729 309 729 c 2
 572 729 l 1
 572 677 l 1xd0
EndSplineSet
AlternateSubs2: "'aalt' Access All Alternates in Mathematical Alphanumeric Symbols lookup 0 subtable" paragraph.st paragraph.sts
AlternateSubs2: "sstyMATH subtable" paragraph.st paragraph.sts
EndChar
StartChar: bullet
Encoding: 183 8226 183
Width: 440
Flags: W
LayerCount: 2
Fore
SplineSet
360 275 m 0
 360 198 297 135 220 135 c 0
 143 135 80 198 80 275 c 0
 80 352 143 415 220 415 c 0
 297 415 360 352 360 275 c 0
EndSplineSet
EndChar
StartChar: quotesinglbase
Encoding: 184 8218 184
Width: 317
Flags: W
LayerCount: 2
Fore
SplineSet
229 111 m 1
 226 56 213 8 190 -32 c 0
 166 -72 130 -107 83 -136 c 1
 44 -97 l 1
 75 -74 97 -48 112 -18 c 0
 126 13 133 50 133 93 c 2
 133 111 l 1
 229 111 l 1
EndSplineSet
AlternateSubs2: "'aalt' Access All Alternates in Mathematical Alphanumeric Symbols lookup 0 subtable" quotesinglbase.st quotesinglbase.sts
AlternateSubs2: "sstyMATH subtable" quotesinglbase.st quotesinglbase.sts
EndChar
StartChar: quotedblbase
Encoding: 185 8222 185
Width: 518
Flags: W
LayerCount: 2
Fore
SplineSet
422 111 m 1
 420 56 407 8 384 -32 c 0
 360 -72 324 -107 276 -136 c 1
 237 -97 l 1
 268 -74 290 -48 304 -18 c 0
 319 13 326 50 326 93 c 2
 326 111 l 1
 422 111 l 1
229 111 m 1
 226 56 213 8 190 -32 c 0
 166 -72 130 -107 83 -136 c 1
 44 -97 l 1
 75 -74 97 -48 112 -18 c 0
 126 13 133 50 133 93 c 2
 133 111 l 1
 229 111 l 1
EndSplineSet
AlternateSubs2: "'aalt' Access All Alternates in Mathematical Alphanumeric Symbols lookup 0 subtable" quotedblbase.st quotedblbase.sts
AlternateSubs2: "sstyMATH subtable" quotedblbase.st quotedblbase.sts
EndChar
StartChar: quotedblright
Encoding: 186 8221 186
Width: 511
Flags: W
LayerCount: 2
Fore
SplineSet
431 729 m 1
 431 672 421 624 400 585 c 0
 379 546 347 511 303 482 c 1
 265 521 l 1
 290 542 308 566 319 594 c 0
 330 621 336 656 336 698 c 2
 336 729 l 1
 431 729 l 1
238 729 m 1
 238 673 228 625 207 586 c 0
 186 546 154 511 109 482 c 1
 71 521 l 1
 96 542 115 566 126 594 c 0
 137 622 143 657 143 699 c 2
 143 729 l 1
 238 729 l 1
EndSplineSet
AlternateSubs2: "'aalt' Access All Alternates in Mathematical Alphanumeric Symbols lookup 0 subtable" quotedblright.st quotedblright.sts
AlternateSubs2: "sstyMATH subtable" quotedblright.st quotedblright.sts
EndChar
StartChar: guillemotright
Encoding: 187 187 187
Width: 611
Flags: W
LayerCount: 2
Fore
SplineSet
323 273 m 1
 94 69 l 1
 94 125 l 1
 239 293 l 1
 94 461 l 1
 94 517 l 1
 323 313 l 1
 323 273 l 1
535 273 m 1
 306 69 l 1
 306 125 l 1
 451 293 l 1
 306 461 l 1
 306 517 l 1
 535 313 l 1
 535 273 l 1
EndSplineSet
AlternateSubs2: "'aalt' Access All Alternates in Mathematical Alphanumeric Symbols lookup 0 subtable" guillemotright.st guillemotright.sts
AlternateSubs2: "sstyMATH subtable" guillemotright.st guillemotright.sts
EndChar
StartChar: ellipsis
Encoding: 188 8230 188
Width: 910
Flags: W
CounterMasks: 1 70
LayerCount: 2
Fore
SplineSet
210 65 m 0
 210 29 181 0 145 0 c 0
 109 0 80 29 80 65 c 0
 80 101 109 130 145 130 c 0
 181 130 210 101 210 65 c 0
520 65 m 0
 520 29 491 0 455 0 c 0
 419 0 390 29 390 65 c 0
 390 101 419 130 455 130 c 0
 491 130 520 101 520 65 c 0
830 65 m 0
 830 29 801 0 765 0 c 0
 729 0 700 29 700 65 c 0
 700 101 729 130 765 130 c 0
 801 130 830 101 830 65 c 0
EndSplineSet
EndChar
StartChar: perthousand
Encoding: 189 8240 189
Width: 1341
Flags: W
LayerCount: 2
Fore
SplineSet
392 544 m 0xbfc0
 392 483 377 434 346 398 c 0
 316 363 275 345 223 345 c 0
 171 345 130 363 100 398 c 0
 70 434 55 483 55 544 c 0
 55 605 70 653 100 688 c 0
 131 724 172 742 223 742 c 0
 274 742 315 724 346 688 c 0
 377 653 392 605 392 544 c 0xbfc0
740 742 m 1
 284 -14 l 1
 210 -14 l 1
 666 742 l 1
 740 742 l 1
895 184 m 0
 895 123 880 75 850 40 c 0
 819 4 778 -14 727 -14 c 0
 675 -14 634 4 604 40 c 0
 573 75 558 123 558 184 c 0
 558 245 573 294 604 330 c 0
 634 365 675 383 727 383 c 0xdfc0
 778 383 819 365 850 329 c 0
 880 293 895 245 895 184 c 0
817 184 m 0
 817 232 809 270 794 297 c 0
 778 324 756 338 728 338 c 2
 727 338 l 2
 698 338 676 324 660 298 c 0
 644 270 636 233 636 184 c 0
 636 136 644 98 660 72 c 0
 677 44 699 31 727 31 c 0
 755 31 777 44 793 72 c 0
 809 98 817 136 817 184 c 0
314 543 m 0
 314 591 306 629 290 656 c 0
 274 683 252 697 224 697 c 0
 195 697 173 684 157 656 c 0
 141 630 133 592 133 543 c 0
 133 496 141 458 158 431 c 0
 174 404 196 390 224 390 c 0xbfc0
 252 390 274 404 290 430 c 0
 306 458 314 495 314 543 c 0
1209 184 m 0
 1209 232 1201 270 1185 298 c 0
 1169 325 1147 339 1119 339 c 0xdfc0
 1091 339 1069 325 1052 298 c 0
 1036 271 1028 233 1028 184 c 0
 1028 136 1036 98 1052 72 c 0
 1069 44 1091 31 1119 31 c 0
 1147 31 1169 44 1185 72 c 0
 1201 98 1209 136 1209 184 c 0
1287 184 m 0
 1287 123 1272 75 1242 40 c 0
 1211 4 1170 -14 1119 -14 c 0
 1067 -14 1026 4 996 40 c 0
 965 75 950 123 950 184 c 0
 950 245 965 294 996 330 c 0
 1026 365 1067 383 1119 383 c 0
 1170 383 1211 365 1242 329 c 0
 1272 293 1287 245 1287 184 c 0
EndSplineSet
AlternateSubs2: "'aalt' Access All Alternates in Mathematical Alphanumeric Symbols lookup 0 subtable" perthousand.st perthousand.sts
AlternateSubs2: "sstyMATH subtable" perthousand.st perthousand.sts
EndChar
StartChar: questiondown
Encoding: 191 191 191
Width: 536
Flags: W
LayerCount: 2
Fore
SplineSet
488 32 m 1xec
 453 17 420 5 390 -2 c 0
 358 -9 329 -13 302 -13 c 0
 230 -13 173 4 131 39 c 0
 89 74 68 121 68 180 c 0
 68 241 86 290 122 328 c 0
 158 367 212 394 285 411 c 1
 285 535 l 1
 345 535 l 1
 345 375 l 1
 288 361 244 338 215 304 c 0
 186 272 171 230 171 179 c 0
 171 134 183 99 207 74 c 0
 231 48 263 35 304 35 c 0
 341 35 371 46 395 67 c 0
 419 88 434 119 441 159 c 1
 488 159 l 1
 488 32 l 1xec
380 678 m 0xf4
 380 660 374 645 361 632 c 0
 348 619 333 613 315 613 c 0
 297 613 282 619 269 632 c 0
 256 645 250 660 250 678 c 0
 250 696 256 711 269 724 c 0
 282 737 297 743 315 743 c 0
 334 743 349 737 362 724 c 0
 374 711 380 696 380 678 c 0xf4
EndSplineSet
AlternateSubs2: "'aalt' Access All Alternates in Mathematical Alphanumeric Symbols lookup 0 subtable" questiondown.st questiondown.sts
AlternateSubs2: "sstyMATH subtable" questiondown.st questiondown.sts
EndChar
StartChar: grave
Encoding: 193 96 193
Width: 500
Flags: W
TopAccentHorizontal: 195
LayerCount: 2
Fore
SplineSet
306 615 m 1
 249 615 l 1
 83 799 l 1
 179 799 l 1
 306 615 l 1
EndSplineSet
AlternateSubs2: "'aalt' Access All Alternates in Mathematical Alphanumeric Symbols lookup 0 subtable" grave.st grave.sts
AlternateSubs2: "sstyMATH subtable" grave.st grave.sts
EndChar
StartChar: acute
Encoding: 194 180 194
Width: 500
Flags: W
TopAccentHorizontal: 304
LayerCount: 2
Fore
SplineSet
415 800 m 1
 249 616 l 1
 192 616 l 1
 318 800 l 1
 415 800 l 1
EndSplineSet
AlternateSubs2: "'aalt' Access All Alternates in Mathematical Alphanumeric Symbols lookup 0 subtable" acute.st acute.sts
AlternateSubs2: "sstyMATH subtable" acute.st acute.sts
EndChar
StartChar: circumflex
Encoding: 195 710 195
Width: 500
Flags: W
TopAccentHorizontal: 250
LayerCount: 2
Fore
SplineSet
406 616 m 1
 349 616 l 1
 250 743 l 1
 151 616 l 1
 94 616 l 1
 209 800 l 1
 291 800 l 1
 406 616 l 1
EndSplineSet
AlternateSubs2: "'aalt' Access All Alternates in Mathematical Alphanumeric Symbols lookup 0 subtable" circumflex.st circumflex.sts
AlternateSubs2: "sstyMATH subtable" circumflex.st circumflex.sts
EndChar
StartChar: tilde
Encoding: 196 732 196
Width: 500
Flags: W
TopAccentHorizontal: 250
LayerCount: 2
Fore
SplineSet
411 777 m 1
 410 733 402 699 385 675 c 0
 368 651 345 639 316 639 c 0
 303 639 292 641 282 646 c 0
 271 651 260 658 248 669 c 2
 220 696 l 2
 211 704 204 709 199 712 c 0
 194 714 188 715 182 715 c 0
 168 715 157 708 150 696 c 0
 142 682 137 664 136 639 c 1
 89 639 l 1
 90 683 98 717 115 741 c 0
 132 765 155 777 184 777 c 0
 197 777 208 775 218 770 c 0
 229 765 240 758 252 747 c 2
 280 720 l 2
 287 713 294 708 300 705 c 0
 305 702 311 701 318 701 c 0
 332 701 343 708 350 720 c 0
 358 734 363 752 364 777 c 1
 411 777 l 1
EndSplineSet
AlternateSubs2: "'aalt' Access All Alternates in Mathematical Alphanumeric Symbols lookup 0 subtable" tilde.st tilde.sts
AlternateSubs2: "sstyMATH subtable" tilde.st tilde.sts
EndChar
StartChar: macron
Encoding: 197 175 197
Width: 500
Flags: W
TopAccentHorizontal: 250
LayerCount: 2
Fore
SplineSet
396 673 m 1
 104 673 l 1
 104 745 l 1
 396 745 l 1
 396 673 l 1
EndSplineSet
AlternateSubs2: "'aalt' Access All Alternates in Mathematical Alphanumeric Symbols lookup 0 subtable" macron.st macron.sts
AlternateSubs2: "sstyMATH subtable" macron.st macron.sts
EndChar
StartChar: breve
Encoding: 198 728 198
Width: 500
Flags: W
TopAccentHorizontal: 250
LayerCount: 2
Fore
SplineSet
403 785 m 1
 400 738 385 703 360 680 c 0
 334 657 297 645 250 645 c 0
 203 645 166 657 140 680 c 0
 115 703 100 738 97 785 c 1
 144 785 l 1
 148 759 158 740 176 729 c 0
 192 718 217 712 250 712 c 0
 283 712 308 718 324 730 c 0
 342 741 352 760 356 785 c 1
 403 785 l 1
EndSplineSet
AlternateSubs2: "'aalt' Access All Alternates in Mathematical Alphanumeric Symbols lookup 0 subtable" breve.st breve.sts
AlternateSubs2: "sstyMATH subtable" breve.st breve.sts
EndChar
StartChar: dotaccent
Encoding: 199 729 199
Width: 500
Flags: W
TopAccentHorizontal: 250
LayerCount: 2
Fore
SplineSet
307 709 m 0
 307 692 302 679 291 668 c 0
 280 657 267 652 250 652 c 0
 233 652 220 657 209 668 c 0
 198 679 193 692 193 709 c 0
 193 724 199 738 210 749 c 0
 221 760 235 766 250 766 c 0
 265 766 279 760 290 749 c 0
 301 738 307 724 307 709 c 0
EndSplineSet
AlternateSubs2: "'aalt' Access All Alternates in Mathematical Alphanumeric Symbols lookup 0 subtable" dotaccent.st dotaccent.sts
AlternateSubs2: "sstyMATH subtable" dotaccent.st dotaccent.sts
EndChar
StartChar: dieresis
Encoding: 200 168 200
Width: 500
Flags: W
TopAccentHorizontal: 250
LayerCount: 2
Fore
SplineSet
402 709 m 0
 402 692 397 679 386 668 c 0
 375 657 362 652 345 652 c 0
 328 652 315 657 304 668 c 0
 293 679 288 692 288 709 c 0
 288 724 294 738 305 749 c 0
 316 760 330 766 345 766 c 0
 360 766 374 760 385 749 c 0
 396 738 402 724 402 709 c 0
212 709 m 0
 212 692 207 679 196 668 c 0
 185 657 172 652 155 652 c 0
 139 652 126 657 114 668 c 0
 104 679 98 692 98 709 c 0
 98 724 104 738 115 749 c 0
 126 760 140 766 155 766 c 0
 170 766 184 760 195 749 c 0
 206 738 212 724 212 709 c 0
EndSplineSet
AlternateSubs2: "'aalt' Access All Alternates in Mathematical Alphanumeric Symbols lookup 0 subtable" dieresis.st dieresis.sts
AlternateSubs2: "sstyMATH subtable" dieresis.st dieresis.sts
EndChar
StartChar: ring
Encoding: 202 730 202
Width: 500
Flags: W
TopAccentHorizontal: 250
LayerCount: 2
Fore
SplineSet
324 744 m 0
 324 765 317 782 302 796 c 0
 288 811 271 818 250 818 c 0
 229 818 211 811 197 796 c 0
 183 782 176 765 176 744 c 0
 176 723 183 705 197 691 c 0
 211 677 229 670 250 670 c 0
 271 670 288 677 302 692 c 0
 317 706 324 723 324 744 c 0
384 744 m 0
 384 707 371 675 345 649 c 0
 319 623 287 610 250 610 c 0
 213 610 181 623 155 649 c 0
 129 675 116 707 116 744 c 0
 116 781 129 813 155 839 c 0
 181 865 213 878 250 878 c 0
 287 878 319 865 345 839 c 0
 371 813 384 781 384 744 c 0
EndSplineSet
AlternateSubs2: "'aalt' Access All Alternates in Mathematical Alphanumeric Symbols lookup 0 subtable" ring.st ring.sts
AlternateSubs2: "sstyMATH subtable" ring.st ring.sts
EndChar
StartChar: cedilla
Encoding: 203 184 203
Width: 500
Flags: W
LayerCount: 2
Fore
SplineSet
344 -110 m 0
 344 -137 334 -157 314 -172 c 0
 293 -186 265 -193 228 -193 c 0
 214 -193 200 -192 186 -190 c 0
 172 -188 157 -185 142 -181 c 1
 142 -117 l 1
 155 -122 168 -126 182 -130 c 0
 194 -132 207 -134 218 -134 c 0
 237 -134 251 -130 262 -121 c 0
 273 -112 278 -101 278 -86 c 0
 278 -77 274 -65 267 -50 c 0
 260 -36 249 -19 235 0 c 1
 282 0 l 1
 303 -21 318 -40 328 -58 c 0
 339 -77 344 -94 344 -110 c 0
EndSplineSet
AlternateSubs2: "'aalt' Access All Alternates in Mathematical Alphanumeric Symbols lookup 0 subtable" cedilla.st cedilla.sts
AlternateSubs2: "sstyMATH subtable" cedilla.st cedilla.sts
EndChar
StartChar: hungarumlaut
Encoding: 205 733 205
Width: 500
Flags: W
TopAccentHorizontal: 289
LayerCount: 2
Fore
SplineSet
459 800 m 1
 319 616 l 1
 262 616 l 1
 372 800 l 1
 459 800 l 1
294 800 m 1
 175 616 l 1
 119 616 l 1
 211 800 l 1
 294 800 l 1
EndSplineSet
AlternateSubs2: "'aalt' Access All Alternates in Mathematical Alphanumeric Symbols lookup 0 subtable" hungarumlaut.st hungarumlaut.sts
AlternateSubs2: "sstyMATH subtable" hungarumlaut.st hungarumlaut.sts
EndChar
StartChar: ogonek
Encoding: 206 731 206
Width: 500
Flags: W
LayerCount: 2
Fore
SplineSet
344 -183 m 1
 332 -186 320 -188 310 -190 c 0
 298 -191 288 -192 278 -192 c 0
 241 -192 213 -185 192 -170 c 0
 172 -155 162 -135 162 -109 c 0
 162 -93 167 -76 176 -60 c 0
 186 -42 202 -23 225 0 c 1
 271 0 l 1
 271 -1 l 1
 243 -41 229 -69 228 -84 c 0
 228 -99 234 -111 244 -120 c 0
 256 -129 270 -134 288 -134 c 0
 297 -134 306 -133 316 -130 c 0
 325 -128 335 -125 344 -121 c 1
 344 -183 l 1
EndSplineSet
AlternateSubs2: "'aalt' Access All Alternates in Mathematical Alphanumeric Symbols lookup 0 subtable" ogonek.st ogonek.sts
AlternateSubs2: "sstyMATH subtable" ogonek.st ogonek.sts
EndChar
StartChar: caron
Encoding: 207 711 207
Width: 500
Flags: W
TopAccentHorizontal: 250
LayerCount: 2
Fore
SplineSet
406 800 m 1
 291 616 l 1
 209 616 l 1
 94 800 l 1
 151 800 l 1
 250 673 l 1
 349 800 l 1
 406 800 l 1
EndSplineSet
AlternateSubs2: "'aalt' Access All Alternates in Mathematical Alphanumeric Symbols lookup 0 subtable" caron.st caron.sts
AlternateSubs2: "sstyMATH subtable" caron.st caron.sts
EndChar
StartChar: emdash
Encoding: 208 8212 208
Width: 1000
Flags: W
LayerCount: 2
Fore
SplineSet
956 232 m 1
 44 232 l 1
 44 296 l 1
 956 296 l 1
 956 232 l 1
EndSplineSet
EndChar
StartChar: AE
Encoding: 225 198 225
Width: 1000
Flags: W
LayerCount: 2
Fore
SplineSet
949 0 m 1x7340
 354 0 l 1
 354 52 l 1
 447 52 l 1
 447 212 l 1
 184 212 l 1
 110 52 l 1
 190 52 l 1
 190 0 l 1
 -17 0 l 1
 -17 52 l 1
 47 52 l 1
 335 677 l 1
 230 677 l 1
 230 729 l 1
 941 729 l 1x7780
 941 567 l 1
 881 567 l 1
 881 669 l 1x3b80
 545 669 l 1
 545 425 l 1
 785 425 l 1
 785 516 l 1
 845 516 l 1
 845 274 l 1
 785 274 l 1
 785 365 l 1
 545 365 l 1
 545 60 l 1
 889 60 l 1xbb40
 889 162 l 1
 949 162 l 1
 949 0 l 1x7340
447 264 m 1
 447 677 l 1
 398 677 l 1
 208 264 l 1
 447 264 l 1
EndSplineSet
AlternateSubs2: "'aalt' Access All Alternates in Mathematical Alphanumeric Symbols lookup 0 subtable" AE.st AE.sts
AlternateSubs2: "sstyMATH subtable" AE.st AE.sts
EndChar
StartChar: ordfeminine
Encoding: 227 170 227
Width: 475
Flags: W
LayerCount: 2
Fore
SplineSet
422 261 m 1x9080
 81 261 l 1
 81 312 l 1
 422 312 l 1
 422 261 l 1x9080
337 487 m 2
 337 559 l 1
 245 559 l 2
 211 559 185 552 168 540 c 0
 150 526 141 507 141 482 c 0
 141 455 149 435 166 422 c 0
 182 408 206 401 238 401 c 0xd280
 268 401 292 409 310 424 c 0
 328 440 337 461 337 487 c 2
448 369 m 1xb580
 337 369 l 1xb580
 337 408 l 1
 322 391 304 379 283 372 c 0
 262 364 238 360 210 360 c 0
 164 360 128 370 101 392 c 0
 74 412 61 441 61 478 c 0
 61 515 76 544 108 565 c 0
 138 586 182 596 237 596 c 2
 337 596 l 1
 337 618 l 2
 337 645 328 667 308 682 c 0
 290 697 263 705 229 705 c 0xd680
 201 705 179 699 162 688 c 0
 145 677 135 660 130 637 c 1
 93 637 l 1
 93 714 l 1x9980
 118 723 143 730 166 735 c 0
 189 740 212 742 233 742 c 0
 290 742 334 730 364 704 c 0
 394 680 409 643 409 595 c 2
 409 410 l 1
 448 410 l 1
 448 369 l 1xb580
EndSplineSet
EndChar
StartChar: Lslash
Encoding: 232 321 232
Width: 668
Flags: W
ItalicCorrection: 5
LayerCount: 2
Fore
SplineSet
645 0 m 1x78
 60 0 l 1
 60 52 l 1
 153 52 l 1x78
 153 286 l 1
 76 231 l 1
 42 276 l 1
 153 355 l 1
 153 677 l 1
 60 677 l 1
 60 729 l 1
 344 729 l 1
 344 677 l 1
 251 677 l 1
 251 425 l 1
 401 535 l 1
 435 490 l 1
 251 356 l 1
 251 60 l 1
 585 60 l 1xb8
 585 182 l 1
 645 182 l 1
 645 0 l 1x78
EndSplineSet
AlternateSubs2: "'aalt' Access All Alternates in Mathematical Alphanumeric Symbols lookup 0 subtable" Lslash.st Lslash.sts
AlternateSubs2: "sstyMATH subtable" Lslash.st Lslash.sts
EndChar
StartChar: Oslash
Encoding: 233 216 233
Width: 819
Flags: W
LayerCount: 2
Fore
SplineSet
769 722 m 1
 679 623 l 1
 707 588 728 549 742 506 c 0
 757 463 764 416 764 364 c 0
 764 252 731 161 666 91 c 0
 601 21 515 -14 410 -14 c 0
 364 -14 322 -7 283 7 c 0
 244 21 209 42 176 70 c 1
 87 -28 l 1
 49 6 l 1
 140 107 l 1
 112 141 91 179 77 222 c 0
 63 265 56 312 56 364 c 0
 56 477 89 568 154 638 c 0
 219 707 305 742 410 742 c 0
 456 742 498 735 538 722 c 0
 576 708 612 687 643 660 c 1
 730 757 l 1
 769 722 l 1
652 364 m 0
 652 402 649 437 644 469 c 0
 639 501 630 530 619 557 c 1
 226 125 l 1
 247 96 272 75 303 60 c 0
 334 45 369 38 410 38 c 0
 490 38 550 66 591 120 c 0
 632 176 652 257 652 364 c 0
593 605 m 1
 572 634 546 655 516 669 c 0
 486 683 451 690 410 690 c 0
 330 690 270 662 229 608 c 0
 188 552 168 471 168 364 c 0
 168 325 171 290 176 258 c 0
 181 227 189 198 200 172 c 1
 593 605 l 1
EndSplineSet
AlternateSubs2: "'aalt' Access All Alternates in Mathematical Alphanumeric Symbols lookup 0 subtable" Oslash.st Oslash.sts
AlternateSubs2: "sstyMATH subtable" Oslash.st Oslash.sts
EndChar
StartChar: OE
Encoding: 234 338 234
Width: 1137
Flags: W
LayerCount: 2
Fore
SplineSet
1057 0 m 1x6740
 457 0 l 2
 332 0 234 32 164 96 c 0
 93 161 58 251 58 366 c 0
 58 480 93 569 164 633 c 0
 234 697 332 729 457 729 c 2
 1049 729 l 1x6f80
 1049 567 l 1
 989 567 l 1
 989 669 l 1x3780
 654 669 l 1
 654 425 l 1
 894 425 l 1
 894 516 l 1
 953 516 l 1
 953 274 l 1
 894 274 l 1
 894 365 l 1
 654 365 l 1
 654 60 l 1
 997 60 l 1xb740
 997 162 l 1
 1057 162 l 1
 1057 0 l 1x6740
555 52 m 1
 555 677 l 1
 464 677 l 2
 369 677 296 650 246 597 c 0
 195 544 170 467 170 366 c 0
 170 265 195 187 246 133 c 0
 297 79 369 52 464 52 c 2
 555 52 l 1
EndSplineSet
AlternateSubs2: "'aalt' Access All Alternates in Mathematical Alphanumeric Symbols lookup 0 subtable" OE.st OE.sts
AlternateSubs2: "sstyMATH subtable" OE.st OE.sts
EndChar
StartChar: ordmasculine
Encoding: 235 186 235
Width: 470
Flags: W
LayerCount: 2
Fore
SplineSet
403 261 m 1
 67 261 l 1
 67 312 l 1
 403 312 l 1
 403 261 l 1
424 551 m 0
 424 494 407 448 372 412 c 0
 338 378 292 360 235 360 c 0
 178 360 133 378 98 412 c 0
 63 448 46 494 46 551 c 0
 46 608 63 654 98 690 c 0
 132 724 178 742 235 742 c 0
 292 742 337 724 372 690 c 0
 407 654 424 608 424 551 c 0
339 551 m 0
 339 602 330 640 312 666 c 0
 295 692 269 705 235 705 c 0
 201 705 175 692 158 666 c 0
 140 639 131 601 131 551 c 0
 131 500 140 462 158 436 c 0
 175 410 201 397 235 397 c 0
 270 397 296 410 313 436 c 0
 330 462 339 500 339 551 c 0
EndSplineSet
EndChar
StartChar: ae
Encoding: 241 230 241
Width: 939
Flags: W
LayerCount: 2
Fore
SplineSet
784 302 m 1xc980
 782 363 769 408 746 439 c 0
 722 470 688 485 644 485 c 0
 603 485 570 470 546 438 c 0
 522 408 508 362 503 302 c 1
 784 302 l 1xc980
890 250 m 1
 503 250 l 1xcb80
 503 246 l 2
 503 176 516 123 542 88 c 0
 569 52 608 34 659 34 c 0
 698 34 731 44 756 65 c 0
 781 86 799 116 809 157 c 1
 881 157 l 1
 867 100 841 58 802 29 c 0
 763 0 713 -14 650 -14 c 0
 610 -14 573 -7 540 8 c 0
 506 23 476 44 451 73 c 1
 424 44 394 22 361 8 c 0
 328 -7 292 -14 251 -14 c 0
 187 -14 138 1 102 30 c 0
 68 60 50 102 50 156 c 0
 50 210 70 252 108 281 c 0
 148 310 202 325 272 325 c 2
 398 325 l 1
 398 361 l 2
 398 400 386 431 363 452 c 0
 340 474 307 485 265 485 c 0xad80
 227 485 197 477 176 461 c 0
 155 445 141 421 136 388 c 1
 90 388 l 1
 90 493 l 1x9380
 121 506 152 516 181 523 c 0
 210 530 239 533 267 533 c 0
 313 533 352 526 383 512 c 0
 414 498 439 476 457 447 c 1
 481 476 509 497 540 512 c 0
 571 526 606 533 644 533 c 0
 723 533 783 509 825 460 c 0
 867 412 889 342 890 250 c 1
398 163 m 2
 398 273 l 1
 282 273 l 2
 237 273 204 263 182 244 c 0
 161 225 150 195 150 156 c 0xa580
 150 120 161 91 183 70 c 0
 205 49 235 38 273 38 c 0
 310 38 341 50 364 72 c 0
 386 96 398 126 398 163 c 2
EndSplineSet
AlternateSubs2: "'aalt' Access All Alternates in Mathematical Alphanumeric Symbols lookup 0 subtable" ae.st ae.sts
AlternateSubs2: "sstyMATH subtable" ae.st ae.sts
EndChar
StartChar: dotlessi
Encoding: 245 305 245
Width: 319
Flags: W
ItalicCorrection: 6
TopAccentHorizontal: 160
LayerCount: 2
Fore
SplineSet
297 0 m 1
 36 0 l 1
 36 52 l 1
 122 52 l 1
 122 467 l 1
 36 467 l 1
 36 519 l 1
 212 519 l 1
 212 52 l 1
 297 52 l 1
 297 0 l 1
EndSplineSet
EndChar
StartChar: lslash
Encoding: 248 322 248
Width: 324
Flags: W
ItalicCorrection: 14
LayerCount: 2
Fore
SplineSet
310 465 m 1
 209 396 l 1
 209 52 l 1
 295 52 l 1
 295 0 l 1
 34 0 l 1
 34 52 l 1
 119 52 l 1
 119 332 l 1
 52 285 l 1
 22 327 l 1
 119 396 l 1
 119 708 l 1
 34 708 l 1
 34 760 l 1
 209 760 l 1
 209 459 l 1
 281 507 l 1
 310 465 l 1
EndSplineSet
AlternateSubs2: "'aalt' Access All Alternates in Mathematical Alphanumeric Symbols lookup 0 subtable" lslash.st lslash.sts
AlternateSubs2: "sstyMATH subtable" lslash.st lslash.sts
EndChar
StartChar: oslash
Encoding: 249 248 249
Width: 602
Flags: W
LayerCount: 2
Fore
SplineSet
561 534 m 1
 490 450 l 1
 510 426 525 398 536 366 c 0
 547 333 552 298 552 260 c 0
 552 177 529 111 484 61 c 0
 438 11 377 -14 301 -14 c 0
 270 -14 242 -10 216 -1 c 0
 190 8 166 21 144 38 c 1
 74 -46 l 1
 37 -15 l 1
 110 72 l 1
 90 97 75 126 65 157 c 0
 55 188 50 223 50 260 c 0
 50 343 73 409 118 458 c 0
 164 508 225 533 301 533 c 0
 332 533 360 529 386 520 c 0
 412 512 435 500 456 484 c 1
 524 565 l 1
 561 534 l 1
447 260 m 0
 447 285 446 307 443 326 c 0
 440 346 437 364 432 381 c 1
 191 93 l 1
 204 73 220 58 238 48 c 0
 256 39 277 34 301 34 c 0
 349 34 385 53 410 92 c 0
 435 130 447 186 447 260 c 0
410 429 m 1
 397 448 382 462 364 471 c 0
 346 480 325 485 301 485 c 0
 253 485 217 466 192 428 c 0
 167 390 155 334 155 260 c 0
 155 237 156 215 158 196 c 0
 161 177 164 159 169 143 c 1
 410 429 l 1
EndSplineSet
AlternateSubs2: "'aalt' Access All Alternates in Mathematical Alphanumeric Symbols lookup 0 subtable" oslash.st oslash.sts
AlternateSubs2: "sstyMATH subtable" oslash.st oslash.sts
EndChar
StartChar: oe
Encoding: 250 339 250
Width: 988
Flags: W
LayerCount: 2
Fore
SplineSet
833 302 m 1
 831 363 818 408 794 439 c 0
 771 470 737 485 693 485 c 0
 652 485 619 470 596 438 c 0
 572 408 557 362 552 302 c 1
 833 302 l 1
939 250 m 1
 552 250 l 1
 552 246 l 2
 552 176 565 123 592 88 c 0
 618 52 657 34 708 34 c 0
 747 34 780 44 805 65 c 0
 830 86 848 116 858 157 c 1
 930 157 l 1
 916 100 890 58 851 29 c 0
 812 0 762 -14 699 -14 c 0
 657 -14 619 -6 586 10 c 0
 552 26 523 50 499 81 c 1
 476 50 448 26 414 10 c 0
 381 -6 343 -14 301 -14 c 0
 226 -14 165 11 119 61 c 0
 73 111 50 177 50 260 c 0
 50 343 73 409 118 458 c 0
 164 508 225 533 301 533 c 0
 344 533 382 525 416 509 c 0
 449 493 477 469 500 438 c 1
 524 469 552 493 584 509 c 0
 617 525 653 533 693 533 c 0
 772 533 832 509 874 460 c 0
 916 412 938 342 939 250 c 1
447 260 m 0
 447 334 435 390 410 428 c 0
 385 466 349 485 301 485 c 0
 253 485 217 466 192 428 c 0
 167 390 155 334 155 260 c 0
 155 186 167 130 192 92 c 0
 217 53 253 34 301 34 c 0
 349 34 385 53 410 91 c 0
 435 129 447 185 447 260 c 0
EndSplineSet
AlternateSubs2: "'aalt' Access All Alternates in Mathematical Alphanumeric Symbols lookup 0 subtable" oe.st oe.sts
AlternateSubs2: "sstyMATH subtable" oe.st oe.sts
EndChar
StartChar: germandbls
Encoding: 251 223 251
Width: 667
Flags: W
LayerCount: 2
Fore
SplineSet
624 157 m 0x5b
 624 106 605 65 568 34 c 0
 530 2 481 -14 421 -14 c 0x9b
 393 -14 365 -11 338 -5 c 0
 311 1 284 10 259 21 c 1
 259 135 l 1
 312 135 l 1x3d
 313 102 323 77 341 60 c 0
 359 43 385 34 418 34 c 0x9d
 454 34 482 44 503 64 c 0
 524 83 534 110 534 144 c 0
 534 171 528 194 514 214 c 0
 502 232 476 254 438 278 c 2
 396 304 l 2
 362 325 338 346 324 368 c 0
 309 388 302 412 302 439 c 0
 302 479 316 512 343 539 c 0
 370 566 409 583 459 591 c 1
 456 630 444 660 421 680 c 0
 398 702 368 712 329 712 c 0
 286 712 255 702 235 680 c 0
 215 659 205 626 205 581 c 2
 205 0 l 1
 29 0 l 1
 29 52 l 1
 115 52 l 1
 115 579 l 2
 115 636 134 681 171 712 c 0
 208 744 261 760 329 760 c 0
 398 760 451 743 488 709 c 0
 524 675 544 624 548 555 c 1
 537 555 l 2
 490 555 452 546 426 528 c 0
 398 511 385 487 385 457 c 0
 385 440 389 426 398 413 c 0
 407 400 423 386 447 371 c 2
 490 344 l 2
 541 312 576 282 595 254 c 0
 614 227 624 194 624 157 c 0x5b
EndSplineSet
AlternateSubs2: "'aalt' Access All Alternates in Mathematical Alphanumeric Symbols lookup 0 subtable" germandbls.st germandbls.sts
AlternateSubs2: "sstyMATH subtable" germandbls.st germandbls.sts
EndChar
StartChar: brokenbar
Encoding: 256 166 256
Width: 336
Flags: W
LayerCount: 2
Fore
SplineSet
208 329 m 1
 129 329 l 1
 129 699 l 1
 208 699 l 1
 208 329 l 1
208 -171 m 1
 129 -171 l 1
 129 199 l 1
 208 199 l 1
 208 -171 l 1
EndSplineSet
AlternateSubs2: "'aalt' Access All Alternates in Mathematical Alphanumeric Symbols lookup 0 subtable" brokenbar.st brokenbar.sts
AlternateSubs2: "sstyMATH subtable" brokenbar.st brokenbar.sts
EndChar
StartChar: copyright
Encoding: 257 169 257
Width: 1000
Flags: W
LayerCount: 2
Fore
SplineSet
812 362 m 0xce40
 812 405 804 446 789 482 c 0
 774 520 751 553 721 583 c 0
 690 614 656 637 620 652 c 0
 582 667 543 675 500 675 c 0
 457 675 418 667 381 652 c 0
 344 637 311 614 280 583 c 0
 250 553 227 519 212 482 c 0
 196 445 188 405 188 362 c 0
 188 320 196 280 211 244 c 0
 226 206 249 173 280 142 c 0
 311 111 344 88 381 73 c 0
 418 58 457 50 500 50 c 0
 543 50 583 58 620 73 c 0
 656 88 690 111 721 142 c 0
 751 172 774 206 789 242 c 0
 804 280 812 319 812 362 c 0xce40
862 362 m 0
 862 313 853 267 836 224 c 0
 818 181 791 142 756 107 c 0
 721 72 681 45 638 27 c 0
 595 9 549 0 500 0 c 0
 451 0 404 9 362 27 c 0
 318 45 279 72 244 107 c 0
 209 142 182 181 164 224 c 0
 147 267 138 313 138 362 c 0
 138 412 147 458 164 501 c 0
 182 544 209 583 244 618 c 0
 279 653 319 680 362 698 c 0
 405 716 451 725 500 725 c 0
 549 725 596 716 638 698 c 0
 682 680 721 653 756 618 c 0
 791 583 818 544 836 501 c 0
 853 458 862 412 862 362 c 0
672 280 m 1xdf40
 663 237 644 204 614 182 c 0
 585 158 547 147 501 147 c 0
 440 147 392 166 356 206 c 0
 319 245 301 297 301 362 c 0
 301 427 319 480 356 519 c 0
 393 558 441 578 501 578 c 0xdf40
 527 578 553 575 578 569 c 0
 603 563 630 554 658 541 c 1
 658 437 l 1
 617 437 l 1xeec0
 612 472 600 498 581 515 c 0
 562 532 536 540 502 540 c 0
 463 540 434 525 414 496 c 0
 395 466 385 421 385 362 c 0
 385 303 395 259 414 230 c 0
 433 200 462 185 501 185 c 0
 532 185 557 193 576 208 c 0
 595 223 607 247 614 280 c 1
 672 280 l 1xdf40
EndSplineSet
EndChar
StartChar: registered
Encoding: 258 174 258
Width: 1000
Flags: W
LayerCount: 2
Fore
SplineSet
862 362 m 0
 862 313 853 267 836 224 c 0
 818 181 791 142 756 107 c 0
 721 72 681 45 638 27 c 0
 595 9 549 0 500 0 c 0
 451 0 404 9 362 27 c 0
 318 45 279 72 244 107 c 0
 209 142 182 181 164 224 c 0
 147 267 138 313 138 362 c 0
 138 412 147 458 164 501 c 0
 182 544 209 583 244 618 c 0
 279 653 319 680 362 698 c 0
 405 716 451 725 500 725 c 0
 549 725 596 716 638 698 c 0
 682 680 721 653 756 618 c 0
 791 583 818 544 836 501 c 0
 853 458 862 412 862 362 c 0
812 362 m 0
 812 405 804 446 789 482 c 0
 774 520 751 553 721 583 c 0
 690 614 656 637 620 652 c 0
 582 667 543 675 500 675 c 0
 457 675 418 667 381 652 c 0
 344 637 311 614 280 583 c 0
 250 553 227 519 212 482 c 0
 196 445 188 405 188 362 c 0
 188 320 196 280 211 244 c 0
 226 206 249 173 280 142 c 0
 311 111 344 88 381 73 c 0
 418 58 457 50 500 50 c 0
 543 50 583 58 620 73 c 0
 656 88 690 111 721 142 c 0
 751 172 774 206 789 242 c 0
 804 280 812 319 812 362 c 0
710 172 m 1
 617 172 l 1
 553 296 l 2
 542 319 531 334 521 342 c 0
 511 349 498 353 482 353 c 2
 437 353 l 1
 437 205 l 1
 478 205 l 1
 478 172 l 1
 323 172 l 1
 323 205 l 1
 364 205 l 1
 364 533 l 1
 323 533 l 1
 323 566 l 1
 526 566 l 2
 567 566 599 557 620 538 c 0
 641 520 652 493 652 458 c 0
 652 431 644 410 628 395 c 0
 613 380 589 371 557 368 c 1
 571 363 583 357 592 348 c 0
 601 340 609 330 616 317 c 2
 673 205 l 1
 710 205 l 1
 710 172 l 1
579 460 m 0
 579 484 572 502 558 514 c 0
 545 527 525 533 498 533 c 2
 437 533 l 1
 437 386 l 1
 498 386 l 2
 525 386 546 392 559 404 c 0
 572 417 579 435 579 460 c 0
EndSplineSet
EndChar
StartChar: degree
Encoding: 259 176 259
Width: 500
Flags: W
LayerCount: 2
Fore
SplineSet
405 586 m 0
 405 543 390 507 360 477 c 0
 329 447 292 432 249 432 c 0
 205 432 168 447 139 476 c 0
 110 505 95 542 95 586 c 0
 95 629 110 666 140 696 c 0
 170 727 207 742 250 742 c 0
 271 742 291 738 310 730 c 0
 329 722 346 711 360 696 c 0
 375 681 386 665 394 646 c 0
 401 627 405 607 405 586 c 0
347 586 m 0
 347 613 337 637 318 655 c 0
 300 674 276 684 250 684 c 0
 222 684 199 674 182 656 c 0
 162 637 153 613 153 586 c 0
 153 558 162 536 181 518 c 0
 199 499 222 490 250 490 c 0
 278 490 301 499 318 518 c 0
 338 536 347 558 347 586 c 0
EndSplineSet
EndChar
StartChar: uni00B5
Encoding: 260 181 260
Width: 649
Flags: W
LayerCount: 2
Fore
SplineSet
614 0 m 1xbc
 439 0 l 1xbc
 439 92 l 1
 422 57 402 31 378 13 c 0
 354 -5 327 -14 298 -14 c 0
 279 -14 262 -11 247 -6 c 0
 232 0 218 9 205 21 c 1
 205 -156 l 1
 290 -156 l 1
 290 -208 l 1
 29 -208 l 1
 29 -156 l 1
 115 -156 l 1
 115 467 l 1
 34 467 l 1
 34 519 l 1
 205 519 l 1
 205 217 l 2
 205 154 213 110 228 87 c 0
 244 64 272 52 311 52 c 0xdc
 352 52 384 67 406 98 c 0
 428 129 439 173 439 231 c 2
 439 467 l 1
 361 467 l 1
 361 519 l 1
 529 519 l 1
 529 51 l 1
 614 51 l 1
 614 0 l 1xbc
EndSplineSet
AlternateSubs2: "'aalt' Access All Alternates in Mathematical Alphanumeric Symbols lookup 0 subtable" uni00B5.st uni00B5.sts
AlternateSubs2: "sstyMATH subtable" uni00B5.st uni00B5.sts
EndChar
StartChar: Agrave
Encoding: 261 192 261
Width: 722
Flags: W
ItalicCorrection: 38
LayerCount: 2
Fore
SplineSet
416 798 m 1
 359 798 l 1
 231 927 l 1
 327 927 l 1
 416 798 l 1
732 0 m 1
 467 0 l 1
 467 52 l 1
 548 52 l 1
 487 212 l 1
 180 212 l 1
 119 52 l 1
 199 52 l 1
 199 0 l 1
 -6 0 l 1
 -6 52 l 1
 58 52 l 1
 318 729 l 1
 400 729 l 1
 660 52 l 1
 732 52 l 1
 732 0 l 1
468 264 m 1
 334 611 l 1
 200 264 l 1
 468 264 l 1
EndSplineSet
AlternateSubs2: "'aalt' Access All Alternates in Mathematical Alphanumeric Symbols lookup 0 subtable" Agrave.st Agrave.sts
AlternateSubs2: "sstyMATH subtable" Agrave.st Agrave.sts
EndChar
StartChar: Aacute
Encoding: 262 193 262
Width: 722
Flags: W
ItalicCorrection: 38
LayerCount: 2
Fore
SplineSet
488 927 m 1
 360 798 l 1
 303 798 l 1
 392 927 l 1
 488 927 l 1
732 0 m 1
 467 0 l 1
 467 52 l 1
 548 52 l 1
 487 212 l 1
 180 212 l 1
 119 52 l 1
 199 52 l 1
 199 0 l 1
 -6 0 l 1
 -6 52 l 1
 58 52 l 1
 318 729 l 1
 400 729 l 1
 660 52 l 1
 732 52 l 1
 732 0 l 1
468 264 m 1
 334 611 l 1
 200 264 l 1
 468 264 l 1
EndSplineSet
AlternateSubs2: "'aalt' Access All Alternates in Mathematical Alphanumeric Symbols lookup 0 subtable" Aacute.st Aacute.sts
AlternateSubs2: "sstyMATH subtable" Aacute.st Aacute.sts
EndChar
StartChar: Acircumflex
Encoding: 263 194 263
Width: 722
Flags: W
ItalicCorrection: 38
LayerCount: 2
Fore
SplineSet
517 798 m 1
 460 798 l 1
 361 877 l 1
 262 798 l 1
 205 798 l 1
 318 927 l 1
 404 927 l 1
 517 798 l 1
732 0 m 1
 467 0 l 1
 467 52 l 1
 548 52 l 1
 487 212 l 1
 180 212 l 1
 119 52 l 1
 199 52 l 1
 199 0 l 1
 -6 0 l 1
 -6 52 l 1
 58 52 l 1
 318 729 l 1
 400 729 l 1
 660 52 l 1
 732 52 l 1
 732 0 l 1
468 264 m 1
 334 611 l 1
 200 264 l 1
 468 264 l 1
EndSplineSet
AlternateSubs2: "'aalt' Access All Alternates in Mathematical Alphanumeric Symbols lookup 0 subtable" Acircumflex.st Acircumflex.sts
AlternateSubs2: "sstyMATH subtable" Acircumflex.st Acircumflex.sts
EndChar
StartChar: Atilde
Encoding: 264 195 264
Width: 722
Flags: W
ItalicCorrection: 38
LayerCount: 2
Fore
SplineSet
522 921 m 1xee
 521 887 513 861 496 842 c 0
 479 823 456 814 425 814 c 0xf6
 403 814 380 821 357 836 c 2
 355 837 l 1
 331 851 l 2
 324 855 318 858 311 860 c 0
 304 863 298 864 293 864 c 0xee
 280 864 270 859 262 850 c 0
 253 841 248 829 247 814 c 1
 200 814 l 1xf6
 201 847 209 873 226 892 c 0
 243 911 265 921 292 921 c 0xee
 304 921 315 920 325 916 c 0
 335 914 349 907 367 897 c 2
 391 884 l 2
 398 880 406 877 412 874 c 0
 420 872 426 871 432 871 c 0xf6
 445 871 456 876 464 884 c 0
 471 894 475 906 475 921 c 1
 522 921 l 1xee
732 0 m 1
 467 0 l 1
 467 52 l 1
 548 52 l 1
 487 212 l 1
 180 212 l 1
 119 52 l 1
 199 52 l 1
 199 0 l 1
 -6 0 l 1
 -6 52 l 1
 58 52 l 1
 318 729 l 1
 400 729 l 1
 660 52 l 1
 732 52 l 1
 732 0 l 1
468 264 m 1
 334 611 l 1
 200 264 l 1
 468 264 l 1
EndSplineSet
AlternateSubs2: "'aalt' Access All Alternates in Mathematical Alphanumeric Symbols lookup 0 subtable" Atilde.st Atilde.sts
AlternateSubs2: "sstyMATH subtable" Atilde.st Atilde.sts
EndChar
StartChar: Adieresis
Encoding: 265 196 265
Width: 722
Flags: W
ItalicCorrection: 38
LayerCount: 2
Fore
SplineSet
513 863 m 0
 513 847 508 834 496 822 c 0
 486 812 472 806 456 806 c 0
 440 806 426 812 416 822 c 0
 404 834 399 847 399 863 c 0
 399 878 405 891 416 902 c 0
 427 914 441 920 456 920 c 0
 471 920 485 914 496 903 c 0
 507 892 513 878 513 863 c 0
323 863 m 0
 323 847 318 834 306 822 c 0
 296 812 282 806 266 806 c 0
 250 806 236 812 226 822 c 0
 214 834 209 847 209 863 c 0
 209 878 215 891 226 902 c 0
 237 914 251 920 266 920 c 0
 281 920 295 914 306 903 c 0
 317 892 323 878 323 863 c 0
732 0 m 1
 467 0 l 1
 467 52 l 1
 548 52 l 1
 487 212 l 1
 180 212 l 1
 119 52 l 1
 199 52 l 1
 199 0 l 1
 -6 0 l 1
 -6 52 l 1
 58 52 l 1
 318 729 l 1
 400 729 l 1
 660 52 l 1
 732 52 l 1
 732 0 l 1
468 264 m 1
 334 611 l 1
 200 264 l 1
 468 264 l 1
EndSplineSet
AlternateSubs2: "'aalt' Access All Alternates in Mathematical Alphanumeric Symbols lookup 0 subtable" Adieresis.st Adieresis.sts
AlternateSubs2: "sstyMATH subtable" Adieresis.st Adieresis.sts
EndChar
StartChar: Aring
Encoding: 266 197 266
Width: 722
Flags: W
ItalicCorrection: 38
LayerCount: 2
Fore
SplineSet
732 0 m 1
 467 0 l 1
 467 52 l 1
 548 52 l 1
 487 212 l 1
 180 212 l 1
 119 52 l 1
 199 52 l 1
 199 0 l 1
 -6 0 l 1
 -6 52 l 1
 58 52 l 1
 297 676 l 1
 274 688 256 704 244 724 c 0
 231 743 225 767 225 794 c 0
 225 831 238 863 264 889 c 0
 290 915 322 928 359 928 c 0
 396 928 428 915 454 889 c 0
 480 863 493 831 493 794 c 0
 493 768 487 745 474 724 c 0
 461 703 443 687 420 676 c 1
 660 52 l 1
 732 52 l 1
 732 0 l 1
467 264 m 1
 334 611 l 1
 200 264 l 1
 467 264 l 1
433 794 m 0
 433 815 426 832 412 846 c 0
 397 861 380 868 359 868 c 0
 338 868 321 861 306 847 c 0
 292 833 285 815 285 794 c 0
 285 773 292 756 306 742 c 0
 321 727 338 720 359 720 c 0
 380 720 397 727 412 742 c 0
 426 756 433 773 433 794 c 0
EndSplineSet
AlternateSubs2: "'aalt' Access All Alternates in Mathematical Alphanumeric Symbols lookup 0 subtable" Aring.st Aring.sts
AlternateSubs2: "sstyMATH subtable" Aring.st Aring.sts
EndChar
StartChar: Ccedilla
Encoding: 267 199 267
Width: 765
Flags: W
LayerCount: 2
Fore
SplineSet
705 193 m 1xfc
 684 125 648 74 597 38 c 0
 557 12 510 -5 455 -11 c 1
 470 -28 482 -43 490 -58 c 0
 501 -77 506 -94 506 -110 c 0
 506 -137 496 -157 476 -172 c 0
 455 -186 427 -193 390 -193 c 0
 376 -193 362 -192 348 -190 c 0
 334 -188 319 -185 304 -181 c 1
 304 -117 l 1
 317 -122 330 -126 344 -130 c 0
 356 -132 369 -134 380 -134 c 0
 399 -134 413 -130 424 -121 c 0
 435 -112 440 -101 440 -86 c 0
 440 -77 436 -65 429 -50 c 0
 424 -40 416 -27 407 -14 c 1
 405 -14 l 2
 358 -14 314 -6 272 10 c 0
 232 27 195 51 164 82 c 0
 127 119 100 160 82 206 c 0
 65 253 56 305 56 364 c 0
 56 477 89 569 154 638 c 0
 219 707 306 742 413 742 c 0
 453 742 495 737 540 726 c 0
 585 716 633 700 685 679 c 1
 685 511 l 1
 630 511 l 1xfa
 618 572 594 618 558 646 c 0
 521 676 470 690 405 690 c 0
 327 690 268 662 228 607 c 0
 188 552 168 471 168 364 c 0
 168 257 188 176 228 121 c 0
 268 66 327 38 405 38 c 0
 460 38 504 51 540 77 c 0
 574 103 600 142 615 193 c 1
 705 193 l 1xfc
EndSplineSet
AlternateSubs2: "'aalt' Access All Alternates in Mathematical Alphanumeric Symbols lookup 0 subtable" Ccedilla.st Ccedilla.sts
AlternateSubs2: "sstyMATH subtable" Ccedilla.st Ccedilla.sts
EndChar
StartChar: Egrave
Encoding: 268 200 268
Width: 729
Flags: W
LayerCount: 2
Fore
SplineSet
420 798 m 1x26
 363 798 l 1
 235 927 l 1
 331 927 l 1
 420 798 l 1x26
650 0 m 1x6680
 55 0 l 1
 55 52 l 1
 148 52 l 1
 148 677 l 1
 55 677 l 1
 55 729 l 1
 642 729 l 1x6f
 642 567 l 1
 582 567 l 1
 582 669 l 1x37
 247 669 l 1
 247 425 l 1
 486 425 l 1
 486 516 l 1
 546 516 l 1
 546 274 l 1
 486 274 l 1
 486 365 l 1
 247 365 l 1
 247 60 l 1
 590 60 l 1xb680
 590 162 l 1
 650 162 l 1
 650 0 l 1x6680
EndSplineSet
AlternateSubs2: "'aalt' Access All Alternates in Mathematical Alphanumeric Symbols lookup 0 subtable" Egrave.st Egrave.sts
AlternateSubs2: "sstyMATH subtable" Egrave.st Egrave.sts
EndChar
StartChar: Eacute
Encoding: 269 201 269
Width: 729
Flags: W
LayerCount: 2
Fore
SplineSet
492 927 m 1x26
 364 798 l 1
 307 798 l 1
 396 927 l 1
 492 927 l 1x26
650 0 m 1x6680
 55 0 l 1
 55 52 l 1
 148 52 l 1
 148 677 l 1
 55 677 l 1
 55 729 l 1
 642 729 l 1x6f
 642 567 l 1
 582 567 l 1
 582 669 l 1x37
 247 669 l 1
 247 425 l 1
 486 425 l 1
 486 516 l 1
 546 516 l 1
 546 274 l 1
 486 274 l 1
 486 365 l 1
 247 365 l 1
 247 60 l 1
 590 60 l 1xb680
 590 162 l 1
 650 162 l 1
 650 0 l 1x6680
EndSplineSet
AlternateSubs2: "'aalt' Access All Alternates in Mathematical Alphanumeric Symbols lookup 0 subtable" Eacute.st Eacute.sts
AlternateSubs2: "sstyMATH subtable" Eacute.st Eacute.sts
EndChar
StartChar: Ecircumflex
Encoding: 270 202 270
Width: 729
Flags: W
LayerCount: 2
Fore
SplineSet
521 798 m 1x26
 464 798 l 1
 365 877 l 1
 266 798 l 1
 209 798 l 1
 322 927 l 1
 408 927 l 1
 521 798 l 1x26
650 0 m 1x6680
 55 0 l 1
 55 52 l 1
 148 52 l 1
 148 677 l 1
 55 677 l 1
 55 729 l 1
 642 729 l 1x6f
 642 567 l 1
 582 567 l 1
 582 669 l 1x37
 247 669 l 1
 247 425 l 1
 486 425 l 1
 486 516 l 1
 546 516 l 1
 546 274 l 1
 486 274 l 1
 486 365 l 1
 247 365 l 1
 247 60 l 1
 590 60 l 1xb680
 590 162 l 1
 650 162 l 1
 650 0 l 1x6680
EndSplineSet
AlternateSubs2: "'aalt' Access All Alternates in Mathematical Alphanumeric Symbols lookup 0 subtable" Ecircumflex.st Ecircumflex.sts
AlternateSubs2: "sstyMATH subtable" Ecircumflex.st Ecircumflex.sts
EndChar
StartChar: Edieresis
Encoding: 271 203 271
Width: 729
Flags: W
LayerCount: 2
Fore
SplineSet
517 863 m 0x2480
 517 847 512 834 500 822 c 0
 490 812 476 806 460 806 c 0
 444 806 430 812 420 822 c 0
 408 834 403 847 403 863 c 0
 403 878 409 891 420 902 c 0
 431 914 445 920 460 920 c 0
 475 920 489 914 500 903 c 0
 511 892 517 878 517 863 c 0x2480
327 863 m 0x25
 327 847 322 834 310 822 c 0
 300 812 286 806 270 806 c 0
 254 806 240 812 230 822 c 0
 218 834 213 847 213 863 c 0
 213 878 219 891 230 902 c 0
 241 914 255 920 270 920 c 0
 285 920 299 914 310 903 c 0
 321 892 327 878 327 863 c 0x25
650 0 m 1x6650
 55 0 l 1
 55 52 l 1
 148 52 l 1
 148 677 l 1
 55 677 l 1
 55 729 l 1
 642 729 l 1x6e20
 642 567 l 1
 582 567 l 1
 582 669 l 1x3620
 247 669 l 1
 247 425 l 1
 486 425 l 1
 486 516 l 1
 546 516 l 1
 546 274 l 1
 486 274 l 1
 486 365 l 1
 247 365 l 1
 247 60 l 1
 590 60 l 1xb650
 590 162 l 1
 650 162 l 1
 650 0 l 1x6650
EndSplineSet
AlternateSubs2: "'aalt' Access All Alternates in Mathematical Alphanumeric Symbols lookup 0 subtable" Edieresis.st Edieresis.sts
AlternateSubs2: "sstyMATH subtable" Edieresis.st Edieresis.sts
EndChar
StartChar: Igrave
Encoding: 272 204 272
Width: 395
Flags: W
LayerCount: 2
Fore
SplineSet
253 798 m 1
 196 798 l 1
 68 927 l 1
 164 927 l 1
 253 798 l 1
340 0 m 1
 55 0 l 1
 55 52 l 1
 148 52 l 1
 148 677 l 1
 55 677 l 1
 55 729 l 1
 340 729 l 1
 340 677 l 1
 247 677 l 1
 247 52 l 1
 340 52 l 1
 340 0 l 1
EndSplineSet
AlternateSubs2: "'aalt' Access All Alternates in Mathematical Alphanumeric Symbols lookup 0 subtable" Igrave.st Igrave.sts
AlternateSubs2: "sstyMATH subtable" Igrave.st Igrave.sts
EndChar
StartChar: Iacute
Encoding: 273 205 273
Width: 395
Flags: W
LayerCount: 2
Fore
SplineSet
325 927 m 1
 197 798 l 1
 140 798 l 1
 229 927 l 1
 325 927 l 1
340 0 m 1
 55 0 l 1
 55 52 l 1
 148 52 l 1
 148 677 l 1
 55 677 l 1
 55 729 l 1
 340 729 l 1
 340 677 l 1
 247 677 l 1
 247 52 l 1
 340 52 l 1
 340 0 l 1
EndSplineSet
AlternateSubs2: "'aalt' Access All Alternates in Mathematical Alphanumeric Symbols lookup 0 subtable" Iacute.st Iacute.sts
AlternateSubs2: "sstyMATH subtable" Iacute.st Iacute.sts
EndChar
StartChar: Icircumflex
Encoding: 274 206 274
Width: 395
Flags: W
LayerCount: 2
Fore
SplineSet
354 798 m 1
 297 798 l 1
 198 877 l 1
 99 798 l 1
 42 798 l 1
 155 927 l 1
 241 927 l 1
 354 798 l 1
340 0 m 1
 55 0 l 1
 55 52 l 1
 148 52 l 1
 148 677 l 1
 55 677 l 1
 55 729 l 1
 340 729 l 1
 340 677 l 1
 247 677 l 1
 247 52 l 1
 340 52 l 1
 340 0 l 1
EndSplineSet
AlternateSubs2: "'aalt' Access All Alternates in Mathematical Alphanumeric Symbols lookup 0 subtable" Icircumflex.st Icircumflex.sts
AlternateSubs2: "sstyMATH subtable" Icircumflex.st Icircumflex.sts
EndChar
StartChar: Idieresis
Encoding: 275 207 275
Width: 395
Flags: W
LayerCount: 2
Fore
SplineSet
350 863 m 0xe4
 350 847 344 834 334 822 c 0
 322 812 309 806 293 806 c 0
 277 806 264 812 252 822 c 0
 242 834 236 847 236 863 c 0
 236 878 242 891 253 902 c 0
 264 914 278 920 293 920 c 0
 308 920 322 914 333 903 c 0
 344 892 350 878 350 863 c 0xe4
160 863 m 0xf0
 160 847 154 834 144 822 c 0
 132 812 119 806 103 806 c 0
 87 806 74 812 62 822 c 0
 52 834 46 847 46 863 c 0
 46 878 52 891 63 902 c 0
 74 914 88 920 103 920 c 0
 118 920 132 914 143 903 c 0
 154 892 160 878 160 863 c 0xf0
340 0 m 1
 55 0 l 1
 55 52 l 1
 148 52 l 1
 148 677 l 1
 55 677 l 1
 55 729 l 1
 340 729 l 1
 340 677 l 1
 247 677 l 1
 247 52 l 1xe8
 340 52 l 1
 340 0 l 1
EndSplineSet
AlternateSubs2: "'aalt' Access All Alternates in Mathematical Alphanumeric Symbols lookup 0 subtable" Idieresis.st Idieresis.sts
AlternateSubs2: "sstyMATH subtable" Idieresis.st Idieresis.sts
EndChar
StartChar: Eth
Encoding: 276 208 276
Width: 807
Flags: W
LayerCount: 2
Fore
SplineSet
749 365 m 0
 749 250 714 161 644 96 c 0
 573 32 475 0 350 0 c 2
 60 0 l 1
 60 52 l 1
 153 52 l 1
 153 351 l 1
 55 351 l 1
 55 412 l 1
 153 412 l 1
 153 677 l 1
 60 677 l 1
 60 729 l 1
 350 729 l 2
 475 729 573 697 644 633 c 0
 714 569 749 480 749 365 c 0
637 365 m 0
 637 466 612 543 561 596 c 0
 510 650 438 677 343 677 c 2
 251 677 l 1
 251 412 l 1
 415 412 l 1
 415 351 l 1
 251 351 l 1
 251 52 l 1
 343 52 l 2
 438 52 510 79 561 133 c 0
 612 187 637 264 637 365 c 0
EndSplineSet
AlternateSubs2: "'aalt' Access All Alternates in Mathematical Alphanumeric Symbols lookup 0 subtable" Eth.st Eth.sts
AlternateSubs2: "sstyMATH subtable" Eth.st Eth.sts
EndChar
StartChar: Ntilde
Encoding: 277 209 277
Width: 875
Flags: W
LayerCount: 2
Fore
SplineSet
599 921 m 1x2f80
 598 887 590 861 573 842 c 0
 556 823 533 814 502 814 c 0x3780
 480 814 457 821 434 836 c 2
 432 837 l 1
 408 851 l 2
 401 855 395 858 388 860 c 0
 381 863 375 864 370 864 c 0x2f80
 357 864 347 859 338 850 c 0
 330 841 325 829 324 814 c 1
 277 814 l 1x3780
 278 847 286 873 303 892 c 0
 320 911 342 921 369 921 c 0x2f80
 381 921 392 920 402 916 c 0
 412 914 426 907 444 897 c 2
 468 884 l 2
 475 880 483 877 490 874 c 0
 496 872 503 871 509 871 c 0x3780
 522 871 533 876 540 884 c 0
 548 894 552 906 552 921 c 1
 599 921 l 1x2f80
831 677 m 1
 733 677 l 1
 733 -14 l 1
 674 -14 l 1xa780
 207 600 l 1
 207 52 l 1
 305 52 l 1
 305 0 l 1
 49 0 l 1
 49 52 l 1
 147 52 l 1x6780
 147 677 l 1
 49 677 l 1
 49 729 l 1
 236 729 l 1
 673 154 l 1
 673 677 l 1
 575 677 l 1
 575 729 l 1
 831 729 l 1
 831 677 l 1
EndSplineSet
AlternateSubs2: "'aalt' Access All Alternates in Mathematical Alphanumeric Symbols lookup 0 subtable" Ntilde.st Ntilde.sts
AlternateSubs2: "sstyMATH subtable" Ntilde.st Ntilde.sts
EndChar
StartChar: Ograve
Encoding: 278 210 278
Width: 819
Flags: W
LayerCount: 2
Fore
SplineSet
465 798 m 1
 408 798 l 1
 280 927 l 1
 376 927 l 1
 465 798 l 1
764 364 m 0
 764 306 755 254 737 206 c 0
 719 160 692 118 656 82 c 0
 624 50 588 26 546 10 c 0
 506 -6 460 -14 410 -14 c 0
 361 -14 315 -6 274 10 c 0
 232 27 195 51 164 82 c 0
 127 119 100 160 82 206 c 0
 65 252 56 305 56 364 c 0
 56 423 65 475 82 522 c 0
 100 568 127 609 164 646 c 0
 196 678 232 702 274 718 c 0
 314 734 360 742 410 742 c 0
 516 742 602 707 666 638 c 0
 732 569 764 477 764 364 c 0
652 364 m 0
 652 472 632 553 591 608 c 0
 550 663 490 690 410 690 c 0
 330 690 270 662 229 608 c 0
 188 552 168 471 168 364 c 0
 168 257 188 176 229 120 c 0
 270 66 330 38 410 38 c 0
 490 38 550 66 591 120 c 0
 632 176 652 257 652 364 c 0
EndSplineSet
AlternateSubs2: "'aalt' Access All Alternates in Mathematical Alphanumeric Symbols lookup 0 subtable" Ograve.st Ograve.sts
AlternateSubs2: "sstyMATH subtable" Ograve.st Ograve.sts
EndChar
StartChar: Oacute
Encoding: 279 211 279
Width: 819
Flags: W
LayerCount: 2
Fore
SplineSet
537 927 m 1
 409 798 l 1
 352 798 l 1
 441 927 l 1
 537 927 l 1
764 364 m 0
 764 306 755 254 737 206 c 0
 719 160 692 118 656 82 c 0
 624 50 588 26 546 10 c 0
 506 -6 460 -14 410 -14 c 0
 361 -14 315 -6 274 10 c 0
 232 27 195 51 164 82 c 0
 127 119 100 160 82 206 c 0
 65 252 56 305 56 364 c 0
 56 423 65 475 82 522 c 0
 100 568 127 609 164 646 c 0
 196 678 232 702 274 718 c 0
 314 734 360 742 410 742 c 0
 516 742 602 707 666 638 c 0
 732 569 764 477 764 364 c 0
652 364 m 0
 652 472 632 553 591 608 c 0
 550 663 490 690 410 690 c 0
 330 690 270 662 229 608 c 0
 188 552 168 471 168 364 c 0
 168 257 188 176 229 120 c 0
 270 66 330 38 410 38 c 0
 490 38 550 66 591 120 c 0
 632 176 652 257 652 364 c 0
EndSplineSet
AlternateSubs2: "'aalt' Access All Alternates in Mathematical Alphanumeric Symbols lookup 0 subtable" Oacute.st Oacute.sts
AlternateSubs2: "sstyMATH subtable" Oacute.st Oacute.sts
EndChar
StartChar: Ocircumflex
Encoding: 280 212 280
Width: 819
Flags: W
LayerCount: 2
Fore
SplineSet
566 798 m 1
 509 798 l 1
 410 877 l 1
 311 798 l 1
 254 798 l 1
 367 927 l 1
 453 927 l 1
 566 798 l 1
764 364 m 0
 764 306 755 254 737 206 c 0
 719 160 692 118 656 82 c 0
 624 50 588 26 546 10 c 0
 506 -6 460 -14 410 -14 c 0
 361 -14 315 -6 274 10 c 0
 232 27 195 51 164 82 c 0
 127 119 100 160 82 206 c 0
 65 252 56 305 56 364 c 0
 56 423 65 475 82 522 c 0
 100 568 127 609 164 646 c 0
 196 678 232 702 274 718 c 0
 314 734 360 742 410 742 c 0
 516 742 602 707 666 638 c 0
 732 569 764 477 764 364 c 0
652 364 m 0
 652 472 632 553 591 608 c 0
 550 663 490 690 410 690 c 0
 330 690 270 662 229 608 c 0
 188 552 168 471 168 364 c 0
 168 257 188 176 229 120 c 0
 270 66 330 38 410 38 c 0
 490 38 550 66 591 120 c 0
 632 176 652 257 652 364 c 0
EndSplineSet
AlternateSubs2: "'aalt' Access All Alternates in Mathematical Alphanumeric Symbols lookup 0 subtable" Ocircumflex.st Ocircumflex.sts
AlternateSubs2: "sstyMATH subtable" Ocircumflex.st Ocircumflex.sts
EndChar
StartChar: Otilde
Encoding: 281 213 281
Width: 819
Flags: W
LayerCount: 2
Fore
SplineSet
571 921 m 1xdf
 570 887 562 861 545 842 c 0
 528 823 505 814 474 814 c 0xef
 452 814 429 821 406 836 c 2
 404 837 l 1
 380 851 l 2
 373 855 367 858 360 860 c 0
 353 863 347 864 342 864 c 0xdf
 329 864 319 859 310 850 c 0
 302 841 297 829 296 814 c 1
 249 814 l 1xef
 250 847 258 873 275 892 c 0
 292 911 314 921 341 921 c 0xdf
 353 921 364 920 374 916 c 0
 384 914 398 907 416 897 c 2
 440 884 l 2
 447 880 455 877 462 874 c 0
 468 872 475 871 481 871 c 0xef
 494 871 505 876 512 884 c 0
 520 894 524 906 524 921 c 1
 571 921 l 1xdf
764 364 m 0
 764 306 755 254 737 206 c 0
 719 160 692 118 656 82 c 0
 624 50 588 26 546 10 c 0
 506 -6 460 -14 410 -14 c 0
 361 -14 315 -6 274 10 c 0
 232 27 195 51 164 82 c 0
 127 119 100 160 82 206 c 0
 65 252 56 305 56 364 c 0
 56 423 65 475 82 522 c 0
 100 568 127 609 164 646 c 0
 196 678 232 702 274 718 c 0
 314 734 360 742 410 742 c 0
 516 742 602 707 666 638 c 0
 732 569 764 477 764 364 c 0
652 364 m 0
 652 472 632 553 591 608 c 0
 550 663 490 690 410 690 c 0
 330 690 270 662 229 608 c 0
 188 552 168 471 168 364 c 0
 168 257 188 176 229 120 c 0
 270 66 330 38 410 38 c 0
 490 38 550 66 591 120 c 0
 632 176 652 257 652 364 c 0
EndSplineSet
AlternateSubs2: "'aalt' Access All Alternates in Mathematical Alphanumeric Symbols lookup 0 subtable" Otilde.st Otilde.sts
AlternateSubs2: "sstyMATH subtable" Otilde.st Otilde.sts
EndChar
StartChar: Odieresis
Encoding: 282 214 282
Width: 819
Flags: W
LayerCount: 2
Fore
SplineSet
562 863 m 0
 562 847 556 834 546 822 c 0
 534 812 521 806 505 806 c 0
 489 806 476 812 464 822 c 0
 454 834 448 847 448 863 c 0
 448 878 454 891 465 902 c 0
 476 914 490 920 505 920 c 0
 520 920 534 914 545 903 c 0
 556 892 562 878 562 863 c 0
372 863 m 0
 372 847 366 834 356 822 c 0
 344 812 331 806 315 806 c 0
 299 806 286 812 274 822 c 0
 264 834 258 847 258 863 c 0
 258 878 264 891 275 902 c 0
 286 914 300 920 315 920 c 0
 330 920 344 914 355 903 c 0
 366 892 372 878 372 863 c 0
764 364 m 0
 764 306 755 254 737 206 c 0
 719 160 692 118 656 82 c 0
 624 50 588 26 546 10 c 0
 506 -6 460 -14 410 -14 c 0
 361 -14 315 -6 274 10 c 0
 232 27 195 51 164 82 c 0
 127 119 100 160 82 206 c 0
 65 252 56 305 56 364 c 0
 56 423 65 475 82 522 c 0
 100 568 127 609 164 646 c 0
 196 678 232 702 274 718 c 0
 314 734 360 742 410 742 c 0
 516 742 602 707 666 638 c 0
 732 569 764 477 764 364 c 0
652 364 m 0
 652 472 632 553 591 608 c 0
 550 663 490 690 410 690 c 0
 330 690 270 662 229 608 c 0
 188 552 168 471 168 364 c 0
 168 257 188 176 229 120 c 0
 270 66 330 38 410 38 c 0
 490 38 550 66 591 120 c 0
 632 176 652 257 652 364 c 0
EndSplineSet
AlternateSubs2: "'aalt' Access All Alternates in Mathematical Alphanumeric Symbols lookup 0 subtable" Odieresis.st Odieresis.sts
AlternateSubs2: "sstyMATH subtable" Odieresis.st Odieresis.sts
EndChar
StartChar: Ugrave
Encoding: 283 217 283
Width: 842
Flags: W
LayerCount: 2
Fore
SplineSet
496 798 m 1
 439 798 l 1
 311 927 l 1
 407 927 l 1
 496 798 l 1
798 677 m 1
 705 677 l 1
 705 290 l 2
 705 179 684 100 641 54 c 0
 598 9 526 -14 424 -14 c 0
 322 -14 249 9 206 56 c 0
 162 102 140 180 140 290 c 2
 140 677 l 1
 47 677 l 1
 47 729 l 1
 332 729 l 1
 332 677 l 1
 239 677 l 1
 239 300 l 2
 239 207 254 142 284 105 c 0
 315 68 367 50 442 50 c 0
 517 50 569 68 600 105 c 0
 630 142 645 207 645 300 c 2
 645 677 l 1
 552 677 l 1
 552 729 l 1
 798 729 l 1
 798 677 l 1
EndSplineSet
AlternateSubs2: "'aalt' Access All Alternates in Mathematical Alphanumeric Symbols lookup 0 subtable" Ugrave.st Ugrave.sts
AlternateSubs2: "sstyMATH subtable" Ugrave.st Ugrave.sts
EndChar
StartChar: Uacute
Encoding: 284 218 284
Width: 842
Flags: W
LayerCount: 2
Fore
SplineSet
568 927 m 1
 440 798 l 1
 383 798 l 1
 472 927 l 1
 568 927 l 1
798 677 m 1
 705 677 l 1
 705 290 l 2
 705 179 684 100 641 54 c 0
 598 9 526 -14 424 -14 c 0
 322 -14 249 9 206 56 c 0
 162 102 140 180 140 290 c 2
 140 677 l 1
 47 677 l 1
 47 729 l 1
 332 729 l 1
 332 677 l 1
 239 677 l 1
 239 300 l 2
 239 207 254 142 284 105 c 0
 315 68 367 50 442 50 c 0
 517 50 569 68 600 105 c 0
 630 142 645 207 645 300 c 2
 645 677 l 1
 552 677 l 1
 552 729 l 1
 798 729 l 1
 798 677 l 1
EndSplineSet
AlternateSubs2: "'aalt' Access All Alternates in Mathematical Alphanumeric Symbols lookup 0 subtable" Uacute.st Uacute.sts
AlternateSubs2: "sstyMATH subtable" Uacute.st Uacute.sts
EndChar
StartChar: Ucircumflex
Encoding: 285 219 285
Width: 842
Flags: W
LayerCount: 2
Fore
SplineSet
597 798 m 1
 540 798 l 1
 441 877 l 1
 342 798 l 1
 285 798 l 1
 398 927 l 1
 484 927 l 1
 597 798 l 1
798 677 m 1
 705 677 l 1
 705 290 l 2
 705 179 684 100 641 54 c 0
 598 9 526 -14 424 -14 c 0
 322 -14 249 9 206 56 c 0
 162 102 140 180 140 290 c 2
 140 677 l 1
 47 677 l 1
 47 729 l 1
 332 729 l 1
 332 677 l 1
 239 677 l 1
 239 300 l 2
 239 207 254 142 284 105 c 0
 315 68 367 50 442 50 c 0
 517 50 569 68 600 105 c 0
 630 142 645 207 645 300 c 2
 645 677 l 1
 552 677 l 1
 552 729 l 1
 798 729 l 1
 798 677 l 1
EndSplineSet
AlternateSubs2: "'aalt' Access All Alternates in Mathematical Alphanumeric Symbols lookup 0 subtable" Ucircumflex.st Ucircumflex.sts
AlternateSubs2: "sstyMATH subtable" Ucircumflex.st Ucircumflex.sts
EndChar
StartChar: Udieresis
Encoding: 286 220 286
Width: 842
Flags: W
LayerCount: 2
Fore
SplineSet
593 863 m 0
 593 847 588 834 576 822 c 0
 566 812 552 806 536 806 c 0
 520 806 506 812 496 822 c 0
 484 834 479 847 479 863 c 0
 479 878 485 891 496 902 c 0
 507 914 521 920 536 920 c 0
 551 920 565 914 576 903 c 0
 587 892 593 878 593 863 c 0
403 863 m 0
 403 847 398 834 386 822 c 0
 376 812 362 806 346 806 c 0
 330 806 316 812 306 822 c 0
 294 834 289 847 289 863 c 0
 289 878 295 891 306 902 c 0
 317 914 331 920 346 920 c 0
 361 920 375 914 386 903 c 0
 397 892 403 878 403 863 c 0
798 677 m 1
 705 677 l 1
 705 290 l 2
 705 179 684 100 641 54 c 0
 598 9 526 -14 424 -14 c 0
 322 -14 249 9 206 56 c 0
 162 102 140 180 140 290 c 2
 140 677 l 1
 47 677 l 1
 47 729 l 1
 332 729 l 1
 332 677 l 1
 239 677 l 1
 239 300 l 2
 239 207 254 142 284 105 c 0
 315 68 367 50 442 50 c 0
 517 50 569 68 600 105 c 0
 630 142 645 207 645 300 c 2
 645 677 l 1
 552 677 l 1
 552 729 l 1
 798 729 l 1
 798 677 l 1
EndSplineSet
AlternateSubs2: "'aalt' Access All Alternates in Mathematical Alphanumeric Symbols lookup 0 subtable" Udieresis.st Udieresis.sts
AlternateSubs2: "sstyMATH subtable" Udieresis.st Udieresis.sts
EndChar
StartChar: Yacute
Encoding: 287 221 287
Width: 660
Flags: W
ItalicCorrection: 37
LayerCount: 2
Fore
SplineSet
457 927 m 1
 329 798 l 1
 272 798 l 1
 361 927 l 1
 457 927 l 1
669 677 m 1
 600 677 l 1
 381 323 l 1
 381 52 l 1
 474 52 l 1
 474 0 l 1
 189 0 l 1
 189 52 l 1
 282 52 l 1
 282 314 l 1
 57 677 l 1
 -11 677 l 1
 -11 729 l 1
 260 729 l 1
 260 677 l 1
 175 677 l 1
 357 382 l 1
 539 677 l 1
 457 677 l 1
 457 729 l 1
 669 729 l 1
 669 677 l 1
EndSplineSet
AlternateSubs2: "'aalt' Access All Alternates in Mathematical Alphanumeric Symbols lookup 0 subtable" Yacute.st Yacute.sts
AlternateSubs2: "sstyMATH subtable" Yacute.st Yacute.sts
EndChar
StartChar: Thorn
Encoding: 288 222 288
Width: 675
Flags: W
LayerCount: 2
Fore
SplineSet
637 365 m 0
 637 302 616 252 573 214 c 0
 530 178 473 159 400 159 c 2
 247 159 l 1
 247 52 l 1
 360 52 l 1
 360 0 l 1
 55 0 l 1
 55 52 l 1
 148 52 l 1
 148 677 l 1
 55 677 l 1
 55 729 l 1
 360 729 l 1
 360 677 l 1
 247 677 l 1
 247 570 l 1
 400 570 l 2
 473 570 530 552 573 514 c 0
 616 477 637 428 637 365 c 0
525 365 m 0
 525 414 512 452 487 478 c 0
 462 505 425 518 376 518 c 2
 247 518 l 1
 247 212 l 1
 376 212 l 2
 425 212 462 225 487 252 c 0
 512 278 525 316 525 365 c 0
EndSplineSet
AlternateSubs2: "'aalt' Access All Alternates in Mathematical Alphanumeric Symbols lookup 0 subtable" Thorn.st Thorn.sts
AlternateSubs2: "sstyMATH subtable" Thorn.st Thorn.sts
EndChar
StartChar: agrave
Encoding: 289 224 289
Width: 596
Flags: W
LayerCount: 2
Fore
SplineSet
568 0 m 1x6b
 398 0 l 1x6b
 398 56 l 1
 378 32 355 14 329 3 c 0
 303 -8 273 -14 238 -14 c 0
 181 -14 135 1 101 32 c 0
 67 63 50 104 50 156 c 0
 50 210 69 252 108 281 c 0
 147 310 201 325 272 325 c 2
 398 325 l 1
 398 361 l 2
 398 400 386 431 362 452 c 0
 338 474 304 485 261 485 c 0xad
 225 485 196 477 176 460 c 0
 154 444 141 420 136 388 c 1
 90 388 l 1
 90 493 l 1x33
 121 506 152 516 181 523 c 0
 210 530 239 533 267 533 c 0
 339 533 394 515 432 480 c 0
 469 444 488 392 488 324 c 2
 488 52 l 1
 568 52 l 1
 568 0 l 1x6b
398 163 m 2
 398 273 l 1
 282 273 l 2
 237 273 204 263 182 244 c 0
 161 225 150 195 150 156 c 0
 150 120 161 91 183 70 c 0
 205 49 235 38 273 38 c 0xa5
 310 38 341 50 364 72 c 0
 386 96 398 126 398 163 c 2
334 615 m 1
 277 615 l 1
 111 799 l 1
 207 799 l 1
 334 615 l 1
EndSplineSet
AlternateSubs2: "'aalt' Access All Alternates in Mathematical Alphanumeric Symbols lookup 0 subtable" agrave.st agrave.sts
AlternateSubs2: "sstyMATH subtable" agrave.st agrave.sts
EndChar
StartChar: aacute
Encoding: 290 225 290
Width: 596
Flags: W
LayerCount: 2
Fore
SplineSet
568 0 m 1x6b
 398 0 l 1x6b
 398 56 l 1
 378 32 355 14 329 3 c 0
 303 -8 273 -14 238 -14 c 0
 181 -14 135 1 101 32 c 0
 67 63 50 104 50 156 c 0
 50 210 69 252 108 281 c 0
 147 310 201 325 272 325 c 2
 398 325 l 1
 398 361 l 2
 398 400 386 431 362 452 c 0
 338 474 304 485 261 485 c 0xad
 225 485 196 477 176 460 c 0
 154 444 141 420 136 388 c 1
 90 388 l 1
 90 493 l 1x33
 121 506 152 516 181 523 c 0
 210 530 239 533 267 533 c 0
 339 533 394 515 432 480 c 0
 469 444 488 392 488 324 c 2
 488 52 l 1
 568 52 l 1
 568 0 l 1x6b
398 163 m 2
 398 273 l 1
 282 273 l 2
 237 273 204 263 182 244 c 0
 161 225 150 195 150 156 c 0
 150 120 161 91 183 70 c 0
 205 49 235 38 273 38 c 0xa5
 310 38 341 50 364 72 c 0
 386 96 398 126 398 163 c 2
443 800 m 1
 277 616 l 1
 220 616 l 1
 346 800 l 1
 443 800 l 1
EndSplineSet
AlternateSubs2: "'aalt' Access All Alternates in Mathematical Alphanumeric Symbols lookup 0 subtable" aacute.st aacute.sts
AlternateSubs2: "sstyMATH subtable" aacute.st aacute.sts
EndChar
StartChar: acircumflex
Encoding: 291 226 291
Width: 596
Flags: W
LayerCount: 2
Fore
SplineSet
568 0 m 1x6b
 398 0 l 1x6b
 398 56 l 1
 378 32 355 14 329 3 c 0
 303 -8 273 -14 238 -14 c 0
 181 -14 135 1 101 32 c 0
 67 63 50 104 50 156 c 0
 50 210 69 252 108 281 c 0
 147 310 201 325 272 325 c 2
 398 325 l 1
 398 361 l 2
 398 400 386 431 362 452 c 0
 338 474 304 485 261 485 c 0xad
 225 485 196 477 176 460 c 0
 154 444 141 420 136 388 c 1
 90 388 l 1
 90 493 l 1x33
 121 506 152 516 181 523 c 0
 210 530 239 533 267 533 c 0
 339 533 394 515 432 480 c 0
 469 444 488 392 488 324 c 2
 488 52 l 1
 568 52 l 1
 568 0 l 1x6b
398 163 m 2
 398 273 l 1
 282 273 l 2
 237 273 204 263 182 244 c 0
 161 225 150 195 150 156 c 0
 150 120 161 91 183 70 c 0
 205 49 235 38 273 38 c 0xa5
 310 38 341 50 364 72 c 0
 386 96 398 126 398 163 c 2
434 616 m 1
 377 616 l 1
 278 743 l 1
 179 616 l 1
 122 616 l 1
 237 800 l 1
 319 800 l 1
 434 616 l 1
EndSplineSet
AlternateSubs2: "'aalt' Access All Alternates in Mathematical Alphanumeric Symbols lookup 0 subtable" acircumflex.st acircumflex.sts
AlternateSubs2: "sstyMATH subtable" acircumflex.st acircumflex.sts
EndChar
StartChar: atilde
Encoding: 292 227 292
Width: 596
Flags: W
LayerCount: 2
Fore
SplineSet
568 0 m 1x6e90
 398 0 l 1x6e90
 398 56 l 1
 378 32 355 14 329 3 c 0
 303 -8 273 -14 238 -14 c 0
 181 -14 135 1 101 32 c 0
 67 63 50 104 50 156 c 0
 50 210 69 252 108 281 c 0
 147 310 201 325 272 325 c 2
 398 325 l 1
 398 361 l 2
 398 400 386 431 362 452 c 0
 338 474 304 485 261 485 c 0xaf10
 225 485 196 477 176 460 c 0
 154 444 141 420 136 388 c 1
 90 388 l 1
 90 493 l 1x3690
 121 506 152 516 181 523 c 0
 210 530 239 533 267 533 c 0
 339 533 394 515 432 480 c 0
 469 444 488 392 488 324 c 2
 488 52 l 1
 568 52 l 1
 568 0 l 1x6e90
398 163 m 2
 398 273 l 1
 282 273 l 2
 237 273 204 263 182 244 c 0
 161 225 150 195 150 156 c 0
 150 120 161 91 183 70 c 0
 205 49 235 38 273 38 c 0xa710
 310 38 341 50 364 72 c 0
 386 96 398 126 398 163 c 2
439 777 m 1x2660
 438 733 430 699 413 675 c 0
 396 651 373 639 344 639 c 0
 331 639 320 641 310 646 c 0
 299 651 288 658 276 669 c 2
 248 696 l 2
 239 704 232 709 227 712 c 0
 222 714 216 715 210 715 c 0
 196 715 185 708 178 696 c 0
 170 682 165 664 164 639 c 1
 117 639 l 1
 118 683 126 717 143 741 c 0
 160 765 183 777 212 777 c 0
 225 777 236 775 246 770 c 0
 257 765 268 758 280 747 c 2
 308 720 l 2
 315 713 322 708 328 705 c 0
 333 702 339 701 346 701 c 0
 360 701 371 708 378 720 c 0
 386 734 391 752 392 777 c 1
 439 777 l 1x2660
EndSplineSet
AlternateSubs2: "'aalt' Access All Alternates in Mathematical Alphanumeric Symbols lookup 0 subtable" atilde.st atilde.sts
AlternateSubs2: "sstyMATH subtable" atilde.st atilde.sts
EndChar
StartChar: adieresis
Encoding: 293 228 293
Width: 596
Flags: W
LayerCount: 2
Fore
SplineSet
568 0 m 1x6d20
 398 0 l 1x6d20
 398 56 l 1
 378 32 355 14 329 3 c 0
 303 -8 273 -14 238 -14 c 0
 181 -14 135 1 101 32 c 0
 67 63 50 104 50 156 c 0
 50 210 69 252 108 281 c 0
 147 310 201 325 272 325 c 2
 398 325 l 1
 398 361 l 2
 398 400 386 431 362 452 c 0
 338 474 304 485 261 485 c 0xae20
 225 485 196 477 176 460 c 0
 154 444 141 420 136 388 c 1
 90 388 l 1
 90 493 l 1x3520
 121 506 152 516 181 523 c 0
 210 530 239 533 267 533 c 0
 339 533 394 515 432 480 c 0
 469 444 488 392 488 324 c 2
 488 52 l 1
 568 52 l 1
 568 0 l 1x6d20
398 163 m 2
 398 273 l 1
 282 273 l 2
 237 273 204 263 182 244 c 0
 161 225 150 195 150 156 c 0
 150 120 161 91 183 70 c 0
 205 49 235 38 273 38 c 0xa620
 310 38 341 50 364 72 c 0
 386 96 398 126 398 163 c 2
430 709 m 0x2440
 430 692 425 679 414 668 c 0
 403 657 390 652 373 652 c 0
 356 652 343 657 332 668 c 0
 321 679 316 692 316 709 c 0
 316 724 322 738 333 749 c 0
 344 760 358 766 373 766 c 0
 388 766 402 760 413 749 c 0
 424 738 430 724 430 709 c 0x2440
240 709 m 0x2480
 240 692 235 679 224 668 c 0
 213 657 200 652 183 652 c 0
 167 652 154 657 142 668 c 0
 132 679 126 692 126 709 c 0
 126 724 132 738 143 749 c 0
 154 760 168 766 183 766 c 0
 198 766 212 760 223 749 c 0
 234 738 240 724 240 709 c 0x2480
EndSplineSet
AlternateSubs2: "'aalt' Access All Alternates in Mathematical Alphanumeric Symbols lookup 0 subtable" adieresis.st adieresis.sts
AlternateSubs2: "sstyMATH subtable" adieresis.st adieresis.sts
EndChar
StartChar: aring
Encoding: 294 229 294
Width: 596
Flags: W
LayerCount: 2
Fore
SplineSet
568 0 m 1x6e90
 398 0 l 1x6e90
 398 56 l 1
 378 32 355 14 329 3 c 0
 303 -8 273 -14 238 -14 c 0
 181 -14 135 1 101 32 c 0
 67 63 50 104 50 156 c 0
 50 210 69 252 108 281 c 0
 147 310 201 325 272 325 c 2
 398 325 l 1
 398 361 l 2
 398 400 386 431 362 452 c 0
 338 474 304 485 261 485 c 0xaf10
 225 485 196 477 176 460 c 0
 154 444 141 420 136 388 c 1
 90 388 l 1
 90 493 l 1x3690
 121 506 152 516 181 523 c 0
 210 530 239 533 267 533 c 0
 339 533 394 515 432 480 c 0
 469 444 488 392 488 324 c 2
 488 52 l 1
 568 52 l 1
 568 0 l 1x6e90
398 163 m 2
 398 273 l 1
 282 273 l 2
 237 273 204 263 182 244 c 0
 161 225 150 195 150 156 c 0
 150 120 161 91 183 70 c 0
 205 49 235 38 273 38 c 0xa710
 310 38 341 50 364 72 c 0
 386 96 398 126 398 163 c 2
352 744 m 0x2660
 352 765 345 782 330 796 c 0
 316 811 299 818 278 818 c 0
 257 818 239 811 225 796 c 0
 211 782 204 765 204 744 c 0
 204 723 211 705 225 691 c 0
 239 677 257 670 278 670 c 0
 299 670 316 677 330 692 c 0
 345 706 352 723 352 744 c 0x2660
412 744 m 0
 412 707 399 675 373 649 c 0
 347 623 315 610 278 610 c 0
 241 610 209 623 183 649 c 0
 157 675 144 707 144 744 c 0
 144 781 157 813 183 839 c 0
 209 865 241 878 278 878 c 0
 315 878 347 865 373 839 c 0
 399 813 412 781 412 744 c 0
EndSplineSet
AlternateSubs2: "'aalt' Access All Alternates in Mathematical Alphanumeric Symbols lookup 0 subtable" aring.st aring.sts
AlternateSubs2: "sstyMATH subtable" aring.st aring.sts
EndChar
StartChar: ccedilla
Encoding: 295 231 295
Width: 560
Flags: W
LayerCount: 2
Fore
SplineSet
514 156 m 1xfc
 501 101 477 58 441 30 c 0
 414 8 381 -6 342 -11 c 1
 357 -28 369 -43 377 -58 c 0
 388 -77 393 -94 393 -110 c 0
 393 -137 383 -157 363 -172 c 0
 342 -186 314 -193 277 -193 c 0
 263 -193 249 -192 235 -190 c 0
 221 -188 206 -185 191 -181 c 1
 191 -117 l 1
 204 -122 217 -126 231 -130 c 0
 243 -132 256 -134 267 -134 c 0
 286 -134 300 -130 311 -121 c 0
 322 -112 327 -101 327 -86 c 0
 327 -77 323 -65 316 -50 c 0
 311 -40 303 -27 294 -14 c 1
 222 -12 164 13 119 61 c 0
 73 111 50 177 50 260 c 0
 50 343 73 410 119 459 c 0
 165 508 226 533 301 533 c 0
 334 533 366 529 399 522 c 0
 432 514 464 502 497 487 c 1
 497 354 l 1
 445 354 l 1xfa
 438 399 423 432 400 454 c 0
 377 474 345 485 302 485 c 0
 253 485 217 466 192 428 c 0
 167 391 155 335 155 260 c 0
 155 185 167 129 192 91 c 0
 217 53 253 34 302 34 c 0
 341 34 372 44 394 64 c 0
 418 85 433 115 442 156 c 1
 514 156 l 1xfc
EndSplineSet
AlternateSubs2: "'aalt' Access All Alternates in Mathematical Alphanumeric Symbols lookup 0 subtable" ccedilla.st ccedilla.sts
AlternateSubs2: "sstyMATH subtable" ccedilla.st ccedilla.sts
EndChar
StartChar: egrave
Encoding: 296 232 296
Width: 591
Flags: W
LayerCount: 2
Fore
SplineSet
436 302 m 1
 434 363 421 408 398 439 c 0
 374 470 340 485 296 485 c 0
 255 485 222 470 198 438 c 0
 175 408 160 362 155 302 c 1
 436 302 l 1
542 250 m 1
 155 250 l 1
 155 246 l 2
 155 176 168 123 194 88 c 0
 221 52 260 34 311 34 c 0
 350 34 383 44 408 65 c 0
 433 86 451 116 461 157 c 1
 533 157 l 1
 519 100 493 58 454 29 c 0
 415 0 365 -14 302 -14 c 0
 226 -14 165 11 119 61 c 0
 73 111 50 177 50 260 c 0
 50 342 73 408 118 458 c 0
 163 508 223 533 296 533 c 0
 375 533 435 509 477 460 c 0
 519 412 541 342 542 250 c 1
352 615 m 1
 295 615 l 1
 129 799 l 1
 225 799 l 1
 352 615 l 1
EndSplineSet
AlternateSubs2: "'aalt' Access All Alternates in Mathematical Alphanumeric Symbols lookup 0 subtable" egrave.st egrave.sts
AlternateSubs2: "sstyMATH subtable" egrave.st egrave.sts
EndChar
StartChar: eacute
Encoding: 297 233 297
Width: 591
Flags: W
LayerCount: 2
Fore
SplineSet
436 302 m 1
 434 363 421 408 398 439 c 0
 374 470 340 485 296 485 c 0
 255 485 222 470 198 438 c 0
 175 408 160 362 155 302 c 1
 436 302 l 1
542 250 m 1
 155 250 l 1
 155 246 l 2
 155 176 168 123 194 88 c 0
 221 52 260 34 311 34 c 0
 350 34 383 44 408 65 c 0
 433 86 451 116 461 157 c 1
 533 157 l 1
 519 100 493 58 454 29 c 0
 415 0 365 -14 302 -14 c 0
 226 -14 165 11 119 61 c 0
 73 111 50 177 50 260 c 0
 50 342 73 408 118 458 c 0
 163 508 223 533 296 533 c 0
 375 533 435 509 477 460 c 0
 519 412 541 342 542 250 c 1
461 800 m 1
 295 616 l 1
 238 616 l 1
 364 800 l 1
 461 800 l 1
EndSplineSet
AlternateSubs2: "'aalt' Access All Alternates in Mathematical Alphanumeric Symbols lookup 0 subtable" eacute.st eacute.sts
AlternateSubs2: "sstyMATH subtable" eacute.st eacute.sts
EndChar
StartChar: ecircumflex
Encoding: 298 234 298
Width: 591
Flags: W
LayerCount: 2
Fore
SplineSet
436 302 m 1
 434 363 421 408 398 439 c 0
 374 470 340 485 296 485 c 0
 255 485 222 470 198 438 c 0
 175 408 160 362 155 302 c 1
 436 302 l 1
542 250 m 1
 155 250 l 1
 155 246 l 2
 155 176 168 123 194 88 c 0
 221 52 260 34 311 34 c 0
 350 34 383 44 408 65 c 0
 433 86 451 116 461 157 c 1
 533 157 l 1
 519 100 493 58 454 29 c 0
 415 0 365 -14 302 -14 c 0
 226 -14 165 11 119 61 c 0
 73 111 50 177 50 260 c 0
 50 342 73 408 118 458 c 0
 163 508 223 533 296 533 c 0
 375 533 435 509 477 460 c 0
 519 412 541 342 542 250 c 1
452 616 m 1
 395 616 l 1
 296 743 l 1
 197 616 l 1
 140 616 l 1
 255 800 l 1
 337 800 l 1
 452 616 l 1
EndSplineSet
AlternateSubs2: "'aalt' Access All Alternates in Mathematical Alphanumeric Symbols lookup 0 subtable" ecircumflex.st ecircumflex.sts
AlternateSubs2: "sstyMATH subtable" ecircumflex.st ecircumflex.sts
EndChar
StartChar: edieresis
Encoding: 299 235 299
Width: 591
Flags: W
LayerCount: 2
Fore
SplineSet
436 302 m 1xf9
 434 363 421 408 398 439 c 0
 374 470 340 485 296 485 c 0
 255 485 222 470 198 438 c 0
 175 408 160 362 155 302 c 1
 436 302 l 1xf9
542 250 m 1
 155 250 l 1
 155 246 l 2
 155 176 168 123 194 88 c 0
 221 52 260 34 311 34 c 0
 350 34 383 44 408 65 c 0
 433 86 451 116 461 157 c 1
 533 157 l 1
 519 100 493 58 454 29 c 0
 415 0 365 -14 302 -14 c 0
 226 -14 165 11 119 61 c 0
 73 111 50 177 50 260 c 0
 50 342 73 408 118 458 c 0
 163 508 223 533 296 533 c 0
 375 533 435 509 477 460 c 0
 519 412 541 342 542 250 c 1
448 709 m 0xf2
 448 692 443 679 432 668 c 0
 421 657 408 652 391 652 c 0
 374 652 361 657 350 668 c 0
 339 679 334 692 334 709 c 0
 334 724 340 738 351 749 c 0
 362 760 376 766 391 766 c 0
 406 766 420 760 431 749 c 0
 442 738 448 724 448 709 c 0xf2
258 709 m 0xf4
 258 692 253 679 242 668 c 0
 231 657 218 652 201 652 c 0
 185 652 172 657 160 668 c 0
 150 679 144 692 144 709 c 0
 144 724 150 738 161 749 c 0
 172 760 186 766 201 766 c 0
 216 766 230 760 241 749 c 0
 252 738 258 724 258 709 c 0xf4
EndSplineSet
AlternateSubs2: "'aalt' Access All Alternates in Mathematical Alphanumeric Symbols lookup 0 subtable" edieresis.st edieresis.sts
AlternateSubs2: "sstyMATH subtable" edieresis.st edieresis.sts
EndChar
StartChar: igrave
Encoding: 300 236 300
Width: 319
Flags: W
ItalicCorrection: 6
LayerCount: 2
Fore
SplineSet
297 0 m 1
 36 0 l 1
 36 52 l 1
 122 52 l 1
 122 467 l 1
 36 467 l 1
 36 519 l 1
 212 519 l 1
 212 52 l 1
 297 52 l 1
 297 0 l 1
216 615 m 1
 159 615 l 1
 -7 799 l 1
 89 799 l 1
 216 615 l 1
EndSplineSet
AlternateSubs2: "'aalt' Access All Alternates in Mathematical Alphanumeric Symbols lookup 0 subtable" igrave.st igrave.sts
AlternateSubs2: "sstyMATH subtable" igrave.st igrave.sts
EndChar
StartChar: iacute
Encoding: 301 237 301
Width: 319
Flags: W
ItalicCorrection: 34
LayerCount: 2
Fore
SplineSet
297 0 m 1
 36 0 l 1
 36 52 l 1
 122 52 l 1
 122 467 l 1
 36 467 l 1
 36 519 l 1
 212 519 l 1
 212 52 l 1
 297 52 l 1
 297 0 l 1
325 800 m 1
 159 616 l 1
 102 616 l 1
 228 800 l 1
 325 800 l 1
EndSplineSet
AlternateSubs2: "'aalt' Access All Alternates in Mathematical Alphanumeric Symbols lookup 0 subtable" iacute.st iacute.sts
AlternateSubs2: "sstyMATH subtable" iacute.st iacute.sts
EndChar
StartChar: icircumflex
Encoding: 302 238 302
Width: 319
Flags: W
ItalicCorrection: 25
LayerCount: 2
Fore
SplineSet
297 0 m 1
 36 0 l 1
 36 52 l 1
 122 52 l 1
 122 467 l 1
 36 467 l 1
 36 519 l 1
 212 519 l 1
 212 52 l 1
 297 52 l 1
 297 0 l 1
316 616 m 1
 259 616 l 1
 160 743 l 1
 61 616 l 1
 4 616 l 1
 119 800 l 1
 201 800 l 1
 316 616 l 1
EndSplineSet
AlternateSubs2: "'aalt' Access All Alternates in Mathematical Alphanumeric Symbols lookup 0 subtable" icircumflex.st icircumflex.sts
AlternateSubs2: "sstyMATH subtable" icircumflex.st icircumflex.sts
EndChar
StartChar: idieresis
Encoding: 303 239 303
Width: 319
Flags: W
ItalicCorrection: 21
LayerCount: 2
Fore
SplineSet
297 0 m 1xe8
 36 0 l 1
 36 52 l 1
 122 52 l 1
 122 467 l 1
 36 467 l 1
 36 519 l 1
 212 519 l 1
 212 52 l 1
 297 52 l 1
 297 0 l 1xe8
312 709 m 0xe4
 312 692 307 679 296 668 c 0
 285 657 272 652 255 652 c 0
 238 652 225 657 214 668 c 0
 203 679 198 692 198 709 c 0
 198 724 204 738 215 749 c 0
 226 760 240 766 255 766 c 0
 270 766 284 760 295 749 c 0
 306 738 312 724 312 709 c 0xe4
122 709 m 0xf0
 122 692 117 679 106 668 c 0
 95 657 82 652 65 652 c 0
 49 652 36 657 24 668 c 0
 14 679 8 692 8 709 c 0
 8 724 14 738 25 749 c 0
 36 760 50 766 65 766 c 0
 80 766 94 760 105 749 c 0
 116 738 122 724 122 709 c 0xf0
EndSplineSet
AlternateSubs2: "'aalt' Access All Alternates in Mathematical Alphanumeric Symbols lookup 0 subtable" idieresis.st idieresis.sts
AlternateSubs2: "sstyMATH subtable" idieresis.st idieresis.sts
EndChar
StartChar: eth
Encoding: 304 240 304
Width: 602
Flags: W
LayerCount: 2
Fore
SplineSet
552 260 m 0xdc
 552 177 529 111 484 61 c 0
 438 11 377 -14 301 -14 c 0
 226 -14 166 11 120 60 c 0
 73 109 50 174 50 253 c 0
 50 330 73 392 119 439 c 0
 165 486 225 510 299 510 c 0
 310 510 322 510 334 508 c 0
 347 507 361 506 378 503 c 1
 371 520 361 538 350 555 c 0
 338 572 324 590 307 608 c 1
 150 535 l 1
 132 573 l 1
 275 639 l 1
 255 658 232 674 206 687 c 0
 181 700 153 711 122 718 c 1
 131 760 l 1xec
 170 751 206 739 240 724 c 0
 274 709 306 690 336 668 c 1
 493 741 l 1
 511 703 l 1
 371 638 l 1
 430 583 475 524 506 461 c 0
 537 398 552 331 552 260 c 0xdc
447 250 m 0
 447 287 443 322 436 356 c 0
 428 391 416 423 401 453 c 1
 386 456 372 458 359 460 c 0
 346 461 333 462 320 462 c 0
 264 462 222 444 196 410 c 0
 168 374 155 321 155 248 c 0
 155 179 168 126 193 90 c 0
 218 52 254 34 301 34 c 0
 348 34 384 53 409 90 c 0
 434 127 447 181 447 250 c 0
EndSplineSet
AlternateSubs2: "'aalt' Access All Alternates in Mathematical Alphanumeric Symbols lookup 0 subtable" eth.st eth.sts
AlternateSubs2: "sstyMATH subtable" eth.st eth.sts
EndChar
StartChar: ntilde
Encoding: 305 241 305
Width: 644
Flags: W
LayerCount: 2
Fore
SplineSet
616 0 m 1xbc80
 368 0 l 1
 368 52 l 1
 446 52 l 1
 446 302 l 2
 446 365 438 409 422 432 c 0
 407 456 379 468 340 468 c 0xbc80
 299 468 267 453 245 422 c 0
 223 391 212 347 212 289 c 2
 212 52 l 1
 290 52 l 1
 290 0 l 1
 41 0 l 1
 41 52 l 1
 122 52 l 1
 122 467 l 1
 36 467 l 1
 36 519 l 1
 212 519 l 1xdc80
 212 427 l 1
 229 462 250 489 276 506 c 0
 303 524 334 533 369 533 c 0
 426 533 469 517 496 484 c 0
 522 451 536 400 536 330 c 2
 536 52 l 1
 616 52 l 1
 616 0 l 1xbc80
483 777 m 1x9b
 482 733 474 699 457 675 c 0
 440 651 417 639 388 639 c 0
 375 639 364 641 354 646 c 0
 343 651 332 658 320 669 c 2
 292 696 l 2
 283 704 276 709 271 712 c 0
 266 714 260 715 254 715 c 0
 240 715 229 708 222 696 c 0
 214 682 209 664 208 639 c 1
 161 639 l 1
 162 683 170 717 187 741 c 0
 204 765 227 777 256 777 c 0
 269 777 280 775 290 770 c 0
 301 765 312 758 324 747 c 2
 352 720 l 2
 359 713 366 708 372 705 c 0
 377 702 383 701 390 701 c 0
 404 701 415 708 422 720 c 0
 430 734 435 752 436 777 c 1
 483 777 l 1x9b
EndSplineSet
AlternateSubs2: "'aalt' Access All Alternates in Mathematical Alphanumeric Symbols lookup 0 subtable" ntilde.st ntilde.sts
AlternateSubs2: "sstyMATH subtable" ntilde.st ntilde.sts
EndChar
StartChar: ograve
Encoding: 306 242 306
Width: 602
Flags: W
LayerCount: 2
Fore
SplineSet
552 260 m 0
 552 177 529 111 484 61 c 0
 438 11 377 -14 301 -14 c 0
 226 -14 165 11 119 61 c 0
 73 111 50 177 50 260 c 0
 50 343 73 409 118 458 c 0
 164 508 225 533 301 533 c 0
 377 533 438 508 484 458 c 0
 529 409 552 343 552 260 c 0
447 260 m 0
 447 334 435 390 410 428 c 0
 385 466 349 485 301 485 c 0
 253 485 217 466 192 428 c 0
 167 390 155 334 155 260 c 0
 155 186 167 130 192 92 c 0
 217 53 253 34 301 34 c 0
 349 34 385 53 410 91 c 0
 435 129 447 185 447 260 c 0
357 615 m 1
 300 615 l 1
 134 799 l 1
 230 799 l 1
 357 615 l 1
EndSplineSet
AlternateSubs2: "'aalt' Access All Alternates in Mathematical Alphanumeric Symbols lookup 0 subtable" ograve.st ograve.sts
AlternateSubs2: "sstyMATH subtable" ograve.st ograve.sts
EndChar
StartChar: oacute
Encoding: 307 243 307
Width: 602
Flags: W
LayerCount: 2
Fore
SplineSet
552 260 m 0
 552 177 529 111 484 61 c 0
 438 11 377 -14 301 -14 c 0
 226 -14 165 11 119 61 c 0
 73 111 50 177 50 260 c 0
 50 343 73 409 118 458 c 0
 164 508 225 533 301 533 c 0
 377 533 438 508 484 458 c 0
 529 409 552 343 552 260 c 0
447 260 m 0
 447 334 435 390 410 428 c 0
 385 466 349 485 301 485 c 0
 253 485 217 466 192 428 c 0
 167 390 155 334 155 260 c 0
 155 186 167 130 192 92 c 0
 217 53 253 34 301 34 c 0
 349 34 385 53 410 91 c 0
 435 129 447 185 447 260 c 0
466 800 m 1
 300 616 l 1
 243 616 l 1
 369 800 l 1
 466 800 l 1
EndSplineSet
AlternateSubs2: "'aalt' Access All Alternates in Mathematical Alphanumeric Symbols lookup 0 subtable" oacute.st oacute.sts
AlternateSubs2: "sstyMATH subtable" oacute.st oacute.sts
EndChar
StartChar: ocircumflex
Encoding: 308 244 308
Width: 602
Flags: W
LayerCount: 2
Fore
SplineSet
552 260 m 0
 552 177 529 111 484 61 c 0
 438 11 377 -14 301 -14 c 0
 226 -14 165 11 119 61 c 0
 73 111 50 177 50 260 c 0
 50 343 73 409 118 458 c 0
 164 508 225 533 301 533 c 0
 377 533 438 508 484 458 c 0
 529 409 552 343 552 260 c 0
447 260 m 0
 447 334 435 390 410 428 c 0
 385 466 349 485 301 485 c 0
 253 485 217 466 192 428 c 0
 167 390 155 334 155 260 c 0
 155 186 167 130 192 92 c 0
 217 53 253 34 301 34 c 0
 349 34 385 53 410 91 c 0
 435 129 447 185 447 260 c 0
457 616 m 1
 400 616 l 1
 301 743 l 1
 202 616 l 1
 145 616 l 1
 260 800 l 1
 342 800 l 1
 457 616 l 1
EndSplineSet
AlternateSubs2: "'aalt' Access All Alternates in Mathematical Alphanumeric Symbols lookup 0 subtable" ocircumflex.st ocircumflex.sts
AlternateSubs2: "sstyMATH subtable" ocircumflex.st ocircumflex.sts
EndChar
StartChar: otilde
Encoding: 309 245 309
Width: 602
Flags: W
LayerCount: 2
Fore
SplineSet
552 260 m 0xf9
 552 177 529 111 484 61 c 0
 438 11 377 -14 301 -14 c 0
 226 -14 165 11 119 61 c 0
 73 111 50 177 50 260 c 0
 50 343 73 409 118 458 c 0
 164 508 225 533 301 533 c 0
 377 533 438 508 484 458 c 0
 529 409 552 343 552 260 c 0xf9
447 260 m 0
 447 334 435 390 410 428 c 0
 385 466 349 485 301 485 c 0
 253 485 217 466 192 428 c 0
 167 390 155 334 155 260 c 0
 155 186 167 130 192 92 c 0
 217 53 253 34 301 34 c 0
 349 34 385 53 410 91 c 0
 435 129 447 185 447 260 c 0
462 777 m 1xf6
 461 733 453 699 436 675 c 0
 419 651 396 639 367 639 c 0
 354 639 343 641 333 646 c 0
 322 651 311 658 299 669 c 2
 271 696 l 2
 262 704 255 709 250 712 c 0
 245 714 239 715 233 715 c 0
 219 715 208 708 201 696 c 0
 193 682 188 664 187 639 c 1
 140 639 l 1
 141 683 149 717 166 741 c 0
 183 765 206 777 235 777 c 0
 248 777 259 775 269 770 c 0
 280 765 291 758 303 747 c 2
 331 720 l 2
 338 713 345 708 351 705 c 0
 356 702 362 701 369 701 c 0
 383 701 394 708 401 720 c 0
 409 734 414 752 415 777 c 1
 462 777 l 1xf6
EndSplineSet
AlternateSubs2: "'aalt' Access All Alternates in Mathematical Alphanumeric Symbols lookup 0 subtable" otilde.st otilde.sts
AlternateSubs2: "sstyMATH subtable" otilde.st otilde.sts
EndChar
StartChar: odieresis
Encoding: 310 246 310
Width: 602
Flags: W
LayerCount: 2
Fore
SplineSet
552 260 m 0xf2
 552 177 529 111 484 61 c 0
 438 11 377 -14 301 -14 c 0
 226 -14 165 11 119 61 c 0
 73 111 50 177 50 260 c 0
 50 343 73 409 118 458 c 0
 164 508 225 533 301 533 c 0
 377 533 438 508 484 458 c 0
 529 409 552 343 552 260 c 0xf2
447 260 m 0
 447 334 435 390 410 428 c 0
 385 466 349 485 301 485 c 0
 253 485 217 466 192 428 c 0
 167 390 155 334 155 260 c 0
 155 186 167 130 192 92 c 0
 217 53 253 34 301 34 c 0
 349 34 385 53 410 91 c 0
 435 129 447 185 447 260 c 0
453 709 m 0xe4
 453 692 448 679 437 668 c 0
 426 657 413 652 396 652 c 0
 379 652 366 657 355 668 c 0
 344 679 339 692 339 709 c 0
 339 724 345 738 356 749 c 0
 367 760 381 766 396 766 c 0
 411 766 425 760 436 749 c 0
 447 738 453 724 453 709 c 0xe4
263 709 m 0xe8
 263 692 258 679 247 668 c 0
 236 657 223 652 206 652 c 0
 190 652 177 657 165 668 c 0
 155 679 149 692 149 709 c 0
 149 724 155 738 166 749 c 0
 177 760 191 766 206 766 c 0
 221 766 235 760 246 749 c 0
 257 738 263 724 263 709 c 0xe8
EndSplineSet
AlternateSubs2: "'aalt' Access All Alternates in Mathematical Alphanumeric Symbols lookup 0 subtable" odieresis.st odieresis.sts
AlternateSubs2: "sstyMATH subtable" odieresis.st odieresis.sts
EndChar
StartChar: ugrave
Encoding: 311 249 311
Width: 644
Flags: W
LayerCount: 2
Fore
SplineSet
607 0 m 1x78
 432 0 l 1x78
 432 92 l 1
 415 57 394 31 368 13 c 0
 341 -5 311 -14 276 -14 c 0
 219 -14 176 2 149 35 c 0
 122 68 108 119 108 189 c 2
 108 467 l 1
 27 467 l 1
 27 519 l 1
 198 519 l 1
 198 217 l 2
 198 154 206 110 222 87 c 0
 237 64 265 52 304 52 c 0xb8
 345 52 377 67 399 98 c 0
 421 129 432 173 432 231 c 2
 432 467 l 1
 354 467 l 1
 354 519 l 1
 522 519 l 1
 522 52 l 1
 607 52 l 1
 607 0 l 1x78
341 615 m 1
 284 615 l 1
 118 799 l 1
 214 799 l 1
 341 615 l 1
EndSplineSet
AlternateSubs2: "'aalt' Access All Alternates in Mathematical Alphanumeric Symbols lookup 0 subtable" ugrave.st ugrave.sts
AlternateSubs2: "sstyMATH subtable" ugrave.st ugrave.sts
EndChar
StartChar: uacute
Encoding: 312 250 312
Width: 644
Flags: W
LayerCount: 2
Fore
SplineSet
607 0 m 1x78
 432 0 l 1x78
 432 92 l 1
 415 57 394 31 368 13 c 0
 341 -5 311 -14 276 -14 c 0
 219 -14 176 2 149 35 c 0
 122 68 108 119 108 189 c 2
 108 467 l 1
 27 467 l 1
 27 519 l 1
 198 519 l 1
 198 217 l 2
 198 154 206 110 222 87 c 0
 237 64 265 52 304 52 c 0xb8
 345 52 377 67 399 98 c 0
 421 129 432 173 432 231 c 2
 432 467 l 1
 354 467 l 1
 354 519 l 1
 522 519 l 1
 522 52 l 1
 607 52 l 1
 607 0 l 1x78
450 800 m 1
 284 616 l 1
 227 616 l 1
 353 800 l 1
 450 800 l 1
EndSplineSet
AlternateSubs2: "'aalt' Access All Alternates in Mathematical Alphanumeric Symbols lookup 0 subtable" uacute.st uacute.sts
AlternateSubs2: "sstyMATH subtable" uacute.st uacute.sts
EndChar
StartChar: ucircumflex
Encoding: 313 251 313
Width: 644
Flags: W
LayerCount: 2
Fore
SplineSet
607 0 m 1x78
 432 0 l 1x78
 432 92 l 1
 415 57 394 31 368 13 c 0
 341 -5 311 -14 276 -14 c 0
 219 -14 176 2 149 35 c 0
 122 68 108 119 108 189 c 2
 108 467 l 1
 27 467 l 1
 27 519 l 1
 198 519 l 1
 198 217 l 2
 198 154 206 110 222 87 c 0
 237 64 265 52 304 52 c 0xb8
 345 52 377 67 399 98 c 0
 421 129 432 173 432 231 c 2
 432 467 l 1
 354 467 l 1
 354 519 l 1
 522 519 l 1
 522 52 l 1
 607 52 l 1
 607 0 l 1x78
441 616 m 1
 384 616 l 1
 285 743 l 1
 186 616 l 1
 129 616 l 1
 244 800 l 1
 326 800 l 1
 441 616 l 1
EndSplineSet
AlternateSubs2: "'aalt' Access All Alternates in Mathematical Alphanumeric Symbols lookup 0 subtable" ucircumflex.st ucircumflex.sts
AlternateSubs2: "sstyMATH subtable" ucircumflex.st ucircumflex.sts
EndChar
StartChar: udieresis
Encoding: 314 252 314
Width: 644
Flags: W
LayerCount: 2
Fore
SplineSet
607 0 m 1x79
 432 0 l 1x79
 432 92 l 1
 415 57 394 31 368 13 c 0
 341 -5 311 -14 276 -14 c 0
 219 -14 176 2 149 35 c 0
 122 68 108 119 108 189 c 2
 108 467 l 1
 27 467 l 1
 27 519 l 1
 198 519 l 1
 198 217 l 2
 198 154 206 110 222 87 c 0
 237 64 265 52 304 52 c 0xb9
 345 52 377 67 399 98 c 0
 421 129 432 173 432 231 c 2
 432 467 l 1
 354 467 l 1
 354 519 l 1
 522 519 l 1
 522 52 l 1
 607 52 l 1
 607 0 l 1x79
437 709 m 0x32
 437 692 432 679 421 668 c 0
 410 657 397 652 380 652 c 0
 363 652 350 657 339 668 c 0
 328 679 323 692 323 709 c 0
 323 724 329 738 340 749 c 0
 351 760 365 766 380 766 c 0
 395 766 409 760 420 749 c 0
 431 738 437 724 437 709 c 0x32
247 709 m 0x34
 247 692 242 679 231 668 c 0
 220 657 207 652 190 652 c 0
 174 652 161 657 149 668 c 0
 139 679 133 692 133 709 c 0
 133 724 139 738 150 749 c 0
 161 760 175 766 190 766 c 0
 205 766 219 760 230 749 c 0
 241 738 247 724 247 709 c 0x34
EndSplineSet
AlternateSubs2: "'aalt' Access All Alternates in Mathematical Alphanumeric Symbols lookup 0 subtable" udieresis.st udieresis.sts
AlternateSubs2: "sstyMATH subtable" udieresis.st udieresis.sts
EndChar
StartChar: yacute
Encoding: 315 253 315
Width: 564
Flags: W
ItalicCorrection: 26
LayerCount: 2
Fore
SplineSet
562 467 m 1xb0
 504 467 l 1
 266 -117 l 2
 250 -158 232 -185 212 -200 c 0
 192 -215 164 -222 128 -222 c 0xb0
 113 -222 97 -221 81 -218 c 0
 65 -215 49 -212 32 -207 c 1
 32 -108 l 1
 78 -108 l 1x70
 80 -130 86 -146 95 -156 c 0
 104 -165 119 -170 138 -170 c 0
 156 -170 170 -165 182 -155 c 0
 192 -145 204 -125 216 -95 c 2
 250 -9 l 1
 56 467 l 1
 -3 467 l 1
 -3 519 l 1
 236 519 l 1
 236 467 l 1
 153 467 l 1
 299 110 l 1
 445 467 l 1
 367 467 l 1
 367 519 l 1
 562 519 l 1
 562 467 l 1xb0
448 800 m 1
 282 616 l 1
 225 616 l 1
 351 800 l 1
 448 800 l 1
EndSplineSet
AlternateSubs2: "'aalt' Access All Alternates in Mathematical Alphanumeric Symbols lookup 0 subtable" yacute.st yacute.sts
AlternateSubs2: "sstyMATH subtable" yacute.st yacute.sts
EndChar
StartChar: thorn
Encoding: 316 254 316
Width: 640
Flags: W
LayerCount: 2
Fore
SplineSet
590 260 m 0
 590 179 570 113 530 62 c 0
 489 11 437 -14 373 -14 c 0
 333 -14 299 -6 272 9 c 0
 245 24 222 48 205 81 c 1
 205 -156 l 1
 290 -156 l 1
 290 -208 l 1
 29 -208 l 1
 29 -156 l 1
 115 -156 l 1
 115 708 l 1
 29 708 l 1
 29 760 l 1
 205 760 l 1
 205 438 l 1
 222 471 245 495 272 510 c 0
 299 525 333 533 373 533 c 0
 437 533 489 508 530 458 c 0
 570 407 590 341 590 260 c 0
485 260 m 0
 485 332 473 386 450 422 c 0
 426 459 391 477 345 477 c 0
 300 477 265 460 241 428 c 0
 217 394 205 347 205 285 c 2
 205 234 l 2
 205 171 217 124 241 91 c 0
 265 58 300 42 345 42 c 0
 391 42 426 60 450 97 c 0
 473 134 485 188 485 260 c 0
EndSplineSet
AlternateSubs2: "'aalt' Access All Alternates in Mathematical Alphanumeric Symbols lookup 0 subtable" thorn.st thorn.sts
AlternateSubs2: "sstyMATH subtable" thorn.st thorn.sts
EndChar
StartChar: ydieresis
Encoding: 317 255 317
Width: 564
Flags: W
ItalicCorrection: 26
LayerCount: 2
Fore
SplineSet
562 467 m 1xbe
 504 467 l 1
 266 -117 l 2
 250 -158 232 -185 212 -200 c 0
 192 -215 164 -222 128 -222 c 0xbe
 113 -222 97 -221 81 -218 c 0
 65 -215 49 -212 32 -207 c 1
 32 -108 l 1
 78 -108 l 1x7e
 80 -130 86 -146 95 -156 c 0
 104 -165 119 -170 138 -170 c 0
 156 -170 170 -165 182 -155 c 0
 192 -145 204 -125 216 -95 c 2
 250 -9 l 1
 56 467 l 1
 -3 467 l 1
 -3 519 l 1
 236 519 l 1
 236 467 l 1
 153 467 l 1
 299 110 l 1
 445 467 l 1
 367 467 l 1
 367 519 l 1
 562 519 l 1
 562 467 l 1xbe
435 709 m 0
 435 692 430 679 419 668 c 0
 408 657 395 652 378 652 c 0
 361 652 348 657 337 668 c 0
 326 679 321 692 321 709 c 0
 321 724 327 738 338 749 c 0
 349 760 363 766 378 766 c 0
 393 766 407 760 418 749 c 0
 429 738 435 724 435 709 c 0
245 709 m 0
 245 692 240 679 229 668 c 0
 218 657 205 652 188 652 c 0
 172 652 159 657 147 668 c 0
 137 679 131 692 131 709 c 0
 131 724 137 738 148 749 c 0
 159 760 173 766 188 766 c 0
 203 766 217 760 228 749 c 0
 239 738 245 724 245 709 c 0
EndSplineSet
AlternateSubs2: "'aalt' Access All Alternates in Mathematical Alphanumeric Symbols lookup 0 subtable" ydieresis.st ydieresis.sts
AlternateSubs2: "sstyMATH subtable" ydieresis.st ydieresis.sts
EndChar
StartChar: Amacron
Encoding: 318 256 318
Width: 722
Flags: W
ItalicCorrection: 38
LayerCount: 2
Fore
SplineSet
732 0 m 1
 467 0 l 1
 467 52 l 1
 548 52 l 1
 487 212 l 1
 180 212 l 1
 119 52 l 1
 199 52 l 1
 199 0 l 1
 -6 0 l 1
 -6 52 l 1
 58 52 l 1
 318 729 l 1
 400 729 l 1
 660 52 l 1
 732 52 l 1
 732 0 l 1
468 264 m 1
 334 611 l 1
 200 264 l 1
 468 264 l 1
505 827 m 1
 213 827 l 1
 213 899 l 1
 505 899 l 1
 505 827 l 1
EndSplineSet
AlternateSubs2: "'aalt' Access All Alternates in Mathematical Alphanumeric Symbols lookup 0 subtable" Amacron.st Amacron.sts
AlternateSubs2: "sstyMATH subtable" Amacron.st Amacron.sts
EndChar
StartChar: amacron
Encoding: 319 257 319
Width: 596
Flags: W
LayerCount: 2
Fore
SplineSet
568 0 m 1x6d80
 398 0 l 1x6d80
 398 56 l 1
 378 32 355 14 329 3 c 0
 303 -8 273 -14 238 -14 c 0
 181 -14 135 1 101 32 c 0
 67 63 50 104 50 156 c 0
 50 210 69 252 108 281 c 0
 147 310 201 325 272 325 c 2
 398 325 l 1
 398 361 l 2
 398 400 386 431 362 452 c 0
 338 474 304 485 261 485 c 0xae80
 225 485 196 477 176 460 c 0
 154 444 141 420 136 388 c 1
 90 388 l 1
 90 493 l 1x3580
 121 506 152 516 181 523 c 0
 210 530 239 533 267 533 c 0
 339 533 394 515 432 480 c 0
 469 444 488 392 488 324 c 2
 488 52 l 1
 568 52 l 1
 568 0 l 1x6d80
398 163 m 2
 398 273 l 1
 282 273 l 2
 237 273 204 263 182 244 c 0
 161 225 150 195 150 156 c 0
 150 120 161 91 183 70 c 0
 205 49 235 38 273 38 c 0xa680
 310 38 341 50 364 72 c 0
 386 96 398 126 398 163 c 2
413 673 m 1
 121 673 l 1
 121 745 l 1
 413 745 l 1
 413 673 l 1
EndSplineSet
AlternateSubs2: "'aalt' Access All Alternates in Mathematical Alphanumeric Symbols lookup 0 subtable" amacron.st amacron.sts
AlternateSubs2: "sstyMATH subtable" amacron.st amacron.sts
EndChar
StartChar: Abreve
Encoding: 320 258 320
Width: 722
Flags: W
ItalicCorrection: 38
LayerCount: 2
Fore
SplineSet
732 0 m 1
 467 0 l 1
 467 52 l 1
 548 52 l 1
 487 212 l 1
 180 212 l 1
 119 52 l 1
 199 52 l 1
 199 0 l 1
 -6 0 l 1
 -6 52 l 1
 58 52 l 1
 318 729 l 1
 400 729 l 1
 660 52 l 1
 732 52 l 1
 732 0 l 1
468 264 m 1
 334 611 l 1
 200 264 l 1
 468 264 l 1
518 926 m 1
 515 879 500 844 475 821 c 0
 449 798 412 786 365 786 c 0
 318 786 281 798 255 821 c 0
 230 844 215 879 212 926 c 1
 259 926 l 1
 263 900 273 881 291 870 c 0
 307 859 332 853 365 853 c 0
 398 853 423 859 439 871 c 0
 457 882 467 901 471 926 c 1
 518 926 l 1
EndSplineSet
AlternateSubs2: "'aalt' Access All Alternates in Mathematical Alphanumeric Symbols lookup 0 subtable" Abreve.st Abreve.sts
AlternateSubs2: "sstyMATH subtable" Abreve.st Abreve.sts
EndChar
StartChar: abreve
Encoding: 321 259 321
Width: 596
Flags: W
LayerCount: 2
Fore
SplineSet
568 0 m 1x6d20
 398 0 l 1x6d20
 398 56 l 1
 378 32 355 14 329 3 c 0
 303 -8 273 -14 238 -14 c 0
 181 -14 135 1 101 32 c 0
 67 63 50 104 50 156 c 0
 50 210 69 252 108 281 c 0
 147 310 201 325 272 325 c 2
 398 325 l 1
 398 361 l 2
 398 400 386 431 362 452 c 0
 338 474 304 485 261 485 c 0xae20
 225 485 196 477 176 460 c 0
 154 444 141 420 136 388 c 1
 90 388 l 1
 90 493 l 1x3520
 121 506 152 516 181 523 c 0
 210 530 239 533 267 533 c 0
 339 533 394 515 432 480 c 0
 469 444 488 392 488 324 c 2
 488 52 l 1
 568 52 l 1
 568 0 l 1x6d20
398 163 m 2
 398 273 l 1
 282 273 l 2
 237 273 204 263 182 244 c 0
 161 225 150 195 150 156 c 0
 150 120 161 91 183 70 c 0
 205 49 235 38 273 38 c 0xa620
 310 38 341 50 364 72 c 0
 386 96 398 126 398 163 c 2
444 772 m 1x24c0
 441 725 426 690 401 667 c 0
 375 644 338 632 291 632 c 0
 244 632 207 644 181 667 c 0
 156 690 141 725 138 772 c 1
 185 772 l 1
 189 746 199 727 217 716 c 0
 233 705 258 699 291 699 c 0
 324 699 349 705 365 717 c 0
 383 728 393 747 397 772 c 1
 444 772 l 1x24c0
EndSplineSet
AlternateSubs2: "'aalt' Access All Alternates in Mathematical Alphanumeric Symbols lookup 0 subtable" abreve.st abreve.sts
AlternateSubs2: "sstyMATH subtable" abreve.st abreve.sts
EndChar
StartChar: Aogonek
Encoding: 322 260 322
Width: 722
Flags: W
ItalicCorrection: 38
LayerCount: 2
Fore
SplineSet
732 0 m 1
 649 0 l 1
 649 -1 l 1
 621 -41 607 -69 606 -84 c 0
 606 -99 612 -111 622 -120 c 0
 634 -129 648 -134 666 -134 c 0
 675 -134 684 -133 694 -130 c 0
 703 -128 713 -125 722 -121 c 1
 722 -183 l 1
 710 -186 698 -188 688 -190 c 0
 676 -191 666 -192 656 -192 c 0
 619 -192 591 -185 570 -170 c 0
 550 -155 540 -135 540 -109 c 0
 540 -93 545 -76 554 -60 c 0
 564 -42 580 -23 603 0 c 1
 467 0 l 1
 467 52 l 1
 548 52 l 1
 487 212 l 1
 180 212 l 1
 119 52 l 1
 199 52 l 1
 199 0 l 1
 -6 0 l 1
 -6 52 l 1
 58 52 l 1
 318 729 l 1
 400 729 l 1
 660 52 l 1
 732 52 l 1
 732 0 l 1
468 264 m 1
 334 611 l 1
 200 264 l 1
 468 264 l 1
EndSplineSet
AlternateSubs2: "'aalt' Access All Alternates in Mathematical Alphanumeric Symbols lookup 0 subtable" Aogonek.st Aogonek.sts
AlternateSubs2: "sstyMATH subtable" Aogonek.st Aogonek.sts
EndChar
StartChar: aogonek
Encoding: 323 261 323
Width: 596
Flags: W
LayerCount: 2
Fore
SplineSet
568 0 m 1xb540
 490 0 l 1
 490 -1 l 1
 462 -41 448 -69 447 -84 c 0
 447 -99 453 -111 463 -120 c 0
 475 -129 489 -134 507 -134 c 0
 516 -134 525 -133 535 -130 c 0
 544 -128 554 -125 563 -121 c 1
 563 -183 l 1
 551 -186 539 -188 529 -190 c 0
 517 -191 507 -192 497 -192 c 0
 460 -192 432 -185 411 -170 c 0
 391 -155 381 -135 381 -109 c 0xb480
 381 -93 386 -76 395 -60 c 0
 405 -42 421 -23 444 0 c 1
 398 0 l 1xb440
 398 56 l 1
 378 32 355 14 329 3 c 0
 303 -8 273 -14 238 -14 c 0
 181 -14 135 1 101 32 c 0
 67 63 50 104 50 156 c 0
 50 210 69 252 108 281 c 0
 147 310 201 325 272 325 c 2
 398 325 l 1
 398 361 l 2
 398 400 386 431 362 452 c 0
 338 474 304 485 261 485 c 0xd640
 225 485 196 477 176 460 c 0
 154 444 141 420 136 388 c 1
 90 388 l 1
 90 493 l 1x9940
 121 506 152 516 181 523 c 0
 210 530 239 533 267 533 c 0
 339 533 394 515 432 480 c 0
 469 444 488 392 488 324 c 2
 488 52 l 1
 568 52 l 1
 568 0 l 1xb540
398 163 m 2xd240
 398 273 l 1
 282 273 l 2
 237 273 204 263 182 244 c 0
 161 225 150 195 150 156 c 0
 150 120 161 91 183 70 c 0
 205 49 235 38 273 38 c 0
 310 38 341 50 364 72 c 0
 386 96 398 126 398 163 c 2xd240
EndSplineSet
AlternateSubs2: "'aalt' Access All Alternates in Mathematical Alphanumeric Symbols lookup 0 subtable" aogonek.st aogonek.sts
AlternateSubs2: "sstyMATH subtable" aogonek.st aogonek.sts
EndChar
StartChar: Cacute
Encoding: 324 262 324
Width: 765
Flags: W
LayerCount: 2
Fore
SplineSet
528 927 m 1xe0
 400 798 l 1
 343 798 l 1
 432 927 l 1
 528 927 l 1xe0
705 193 m 1xf0
 684 125 648 74 597 38 c 0
 546 4 482 -14 405 -14 c 0
 358 -14 314 -6 272 10 c 0
 232 27 195 51 164 82 c 0
 127 119 100 160 82 206 c 0
 65 253 56 305 56 364 c 0
 56 477 89 569 154 638 c 0
 219 707 306 742 413 742 c 0
 453 742 495 737 540 726 c 0
 585 716 633 700 685 679 c 1
 685 511 l 1
 630 511 l 1xe8
 618 572 594 618 558 646 c 0
 521 676 470 690 405 690 c 0
 327 690 268 662 228 607 c 0
 188 552 168 471 168 364 c 0
 168 257 188 176 228 121 c 0
 268 66 327 38 405 38 c 0
 460 38 504 51 540 77 c 0
 574 103 600 142 615 193 c 1
 705 193 l 1xf0
EndSplineSet
AlternateSubs2: "'aalt' Access All Alternates in Mathematical Alphanumeric Symbols lookup 0 subtable" Cacute.st Cacute.sts
AlternateSubs2: "sstyMATH subtable" Cacute.st Cacute.sts
EndChar
StartChar: cacute
Encoding: 325 263 325
Width: 560
Flags: W
LayerCount: 2
Fore
SplineSet
514 156 m 1xf0
 501 101 477 58 441 30 c 0
 405 0 358 -14 301 -14 c 0
 226 -14 165 11 119 61 c 0
 73 111 50 177 50 260 c 0
 50 343 73 410 119 459 c 0
 165 508 226 533 301 533 c 0
 334 533 366 529 399 522 c 0
 432 514 464 502 497 487 c 1
 497 354 l 1
 445 354 l 1xe8
 438 399 423 432 400 454 c 0
 377 474 345 485 302 485 c 0
 253 485 217 466 192 428 c 0
 167 391 155 335 155 260 c 0
 155 185 167 129 192 91 c 0
 217 53 253 34 302 34 c 0
 341 34 372 44 394 64 c 0
 418 85 433 115 442 156 c 1
 514 156 l 1xf0
461 800 m 1
 295 616 l 1
 238 616 l 1
 364 800 l 1
 461 800 l 1
EndSplineSet
AlternateSubs2: "'aalt' Access All Alternates in Mathematical Alphanumeric Symbols lookup 0 subtable" cacute.st cacute.sts
AlternateSubs2: "sstyMATH subtable" cacute.st cacute.sts
EndChar
StartChar: Ccaron
Encoding: 326 268 326
Width: 765
Flags: W
LayerCount: 2
Fore
SplineSet
557 927 m 1xe0
 444 798 l 1
 358 798 l 1
 245 927 l 1
 302 927 l 1
 401 848 l 1
 500 927 l 1
 557 927 l 1xe0
705 193 m 1xf0
 684 125 648 74 597 38 c 0
 546 4 482 -14 405 -14 c 0
 358 -14 314 -6 272 10 c 0
 232 27 195 51 164 82 c 0
 127 119 100 160 82 206 c 0
 65 253 56 305 56 364 c 0
 56 477 89 569 154 638 c 0
 219 707 306 742 413 742 c 0
 453 742 495 737 540 726 c 0
 585 716 633 700 685 679 c 1
 685 511 l 1
 630 511 l 1xe8
 618 572 594 618 558 646 c 0
 521 676 470 690 405 690 c 0
 327 690 268 662 228 607 c 0
 188 552 168 471 168 364 c 0
 168 257 188 176 228 121 c 0
 268 66 327 38 405 38 c 0
 460 38 504 51 540 77 c 0
 574 103 600 142 615 193 c 1
 705 193 l 1xf0
EndSplineSet
AlternateSubs2: "'aalt' Access All Alternates in Mathematical Alphanumeric Symbols lookup 0 subtable" Ccaron.st Ccaron.sts
AlternateSubs2: "sstyMATH subtable" Ccaron.st Ccaron.sts
EndChar
StartChar: ccaron
Encoding: 327 269 327
Width: 560
Flags: W
LayerCount: 2
Fore
SplineSet
514 156 m 1xf0
 501 101 477 58 441 30 c 0
 405 0 358 -14 301 -14 c 0
 226 -14 165 11 119 61 c 0
 73 111 50 177 50 260 c 0
 50 343 73 410 119 459 c 0
 165 508 226 533 301 533 c 0
 334 533 366 529 399 522 c 0
 432 514 464 502 497 487 c 1
 497 354 l 1
 445 354 l 1xe8
 438 399 423 432 400 454 c 0
 377 474 345 485 302 485 c 0
 253 485 217 466 192 428 c 0
 167 391 155 335 155 260 c 0
 155 185 167 129 192 91 c 0
 217 53 253 34 302 34 c 0
 341 34 372 44 394 64 c 0
 418 85 433 115 442 156 c 1
 514 156 l 1xf0
452 800 m 1
 337 616 l 1
 255 616 l 1
 140 800 l 1
 197 800 l 1
 296 673 l 1
 395 800 l 1
 452 800 l 1
EndSplineSet
AlternateSubs2: "'aalt' Access All Alternates in Mathematical Alphanumeric Symbols lookup 0 subtable" ccaron.st ccaron.sts
AlternateSubs2: "sstyMATH subtable" ccaron.st ccaron.sts
EndChar
StartChar: Dcaron
Encoding: 328 270 328
Width: 801
Flags: W
LayerCount: 2
Fore
SplineSet
519 927 m 1
 406 798 l 1
 320 798 l 1
 207 927 l 1
 264 927 l 1
 363 848 l 1
 462 927 l 1
 519 927 l 1
744 365 m 0
 744 250 709 161 638 96 c 0
 568 32 470 0 345 0 c 2
 55 0 l 1
 55 52 l 1
 148 52 l 1
 148 677 l 1
 55 677 l 1
 55 729 l 1
 345 729 l 2
 470 729 568 697 638 633 c 0
 709 569 744 480 744 365 c 0
632 365 m 0
 632 466 607 543 556 596 c 0
 505 650 433 677 338 677 c 2
 247 677 l 1
 247 52 l 1
 338 52 l 2
 433 52 505 79 556 133 c 0
 607 187 632 264 632 365 c 0
EndSplineSet
AlternateSubs2: "'aalt' Access All Alternates in Mathematical Alphanumeric Symbols lookup 0 subtable" Dcaron.st Dcaron.sts
AlternateSubs2: "sstyMATH subtable" Dcaron.st Dcaron.sts
EndChar
StartChar: dcaron
Encoding: 329 271 329
Width: 640
Flags: W
ItalicCorrection: 126
LayerCount: 2
Fore
SplineSet
738 759 m 1x3c
 668 575 l 1
 611 575 l 1
 641 759 l 1
 738 759 l 1x3c
435 234 m 2
 435 285 l 2
 435 347 423 394 399 428 c 0
 375 460 340 477 295 477 c 0
 249 477 214 459 190 422 c 0
 167 386 155 332 155 260 c 0
 155 189 167 135 190 98 c 0
 214 60 249 42 295 42 c 0xbc
 340 42 375 58 399 91 c 0
 423 124 435 171 435 234 c 2
611 0 m 1x7c
 435 0 l 1x7c
 435 81 l 1
 418 48 395 24 368 9 c 0
 341 -6 307 -14 267 -14 c 0xbc
 203 -14 151 11 110 62 c 0
 70 113 50 179 50 260 c 0
 50 341 70 407 110 458 c 0
 151 508 203 533 267 533 c 0
 307 533 341 525 368 510 c 0
 395 495 418 471 435 438 c 1
 435 708 l 1
 350 708 l 1
 350 760 l 1
 525 760 l 1
 525 52 l 1
 611 52 l 1
 611 0 l 1x7c
EndSplineSet
AlternateSubs2: "'aalt' Access All Alternates in Mathematical Alphanumeric Symbols lookup 0 subtable" dcaron.st dcaron.sts
AlternateSubs2: "sstyMATH subtable" dcaron.st dcaron.sts
EndChar
StartChar: Dcroat
Encoding: 330 272 330
Width: 807
Flags: W
LayerCount: 2
Fore
SplineSet
749 365 m 0
 749 250 714 161 644 96 c 0
 573 32 475 0 350 0 c 2
 60 0 l 1
 60 52 l 1
 153 52 l 1
 153 351 l 1
 55 351 l 1
 55 412 l 1
 153 412 l 1
 153 677 l 1
 60 677 l 1
 60 729 l 1
 350 729 l 2
 475 729 573 697 644 633 c 0
 714 569 749 480 749 365 c 0
637 365 m 0
 637 466 612 543 561 596 c 0
 510 650 438 677 343 677 c 2
 251 677 l 1
 251 412 l 1
 415 412 l 1
 415 351 l 1
 251 351 l 1
 251 52 l 1
 343 52 l 2
 438 52 510 79 561 133 c 0
 612 187 637 264 637 365 c 0
EndSplineSet
AlternateSubs2: "'aalt' Access All Alternates in Mathematical Alphanumeric Symbols lookup 0 subtable" Dcroat.st Dcroat.sts
AlternateSubs2: "sstyMATH subtable" Dcroat.st Dcroat.sts
EndChar
StartChar: dcroat
Encoding: 331 273 331
Width: 640
Flags: W
LayerCount: 2
Fore
SplineSet
435 234 m 2xbe
 435 285 l 2
 435 347 423 394 399 428 c 0
 375 460 340 477 295 477 c 0
 249 477 214 459 190 422 c 0
 167 386 155 332 155 260 c 0
 155 189 167 135 190 98 c 0
 214 60 249 42 295 42 c 0
 340 42 375 58 399 91 c 0
 423 124 435 171 435 234 c 2xbe
611 0 m 1x7e
 435 0 l 1x7e
 435 81 l 1
 418 48 395 24 368 9 c 0
 341 -6 307 -14 267 -14 c 0xbe
 203 -14 151 11 110 62 c 0
 70 113 50 179 50 260 c 0
 50 341 70 407 110 458 c 0
 151 508 203 533 267 533 c 0
 307 533 341 525 368 510 c 0
 395 495 418 471 435 438 c 1
 435 599 l 1
 276 599 l 1
 276 651 l 1
 435 651 l 1
 435 708 l 1
 350 708 l 1
 350 760 l 1
 525 760 l 1
 525 651 l 1
 611 651 l 1
 611 599 l 1
 525 599 l 1
 525 52 l 1
 611 52 l 1
 611 0 l 1x7e
EndSplineSet
AlternateSubs2: "'aalt' Access All Alternates in Mathematical Alphanumeric Symbols lookup 0 subtable" dcroat.st dcroat.sts
AlternateSubs2: "sstyMATH subtable" dcroat.st dcroat.sts
EndChar
StartChar: Emacron
Encoding: 332 274 332
Width: 729
Flags: W
LayerCount: 2
Fore
SplineSet
650 0 m 1x6740
 55 0 l 1
 55 52 l 1
 148 52 l 1
 148 677 l 1
 55 677 l 1
 55 729 l 1
 642 729 l 1x6f80
 642 567 l 1
 582 567 l 1
 582 669 l 1x3780
 247 669 l 1
 247 425 l 1
 486 425 l 1
 486 516 l 1
 546 516 l 1
 546 274 l 1
 486 274 l 1
 486 365 l 1
 247 365 l 1
 247 60 l 1
 590 60 l 1xb740
 590 162 l 1
 650 162 l 1
 650 0 l 1x6740
495 827 m 1
 203 827 l 1
 203 899 l 1
 495 899 l 1
 495 827 l 1
EndSplineSet
AlternateSubs2: "'aalt' Access All Alternates in Mathematical Alphanumeric Symbols lookup 0 subtable" Emacron.st Emacron.sts
AlternateSubs2: "sstyMATH subtable" Emacron.st Emacron.sts
EndChar
StartChar: emacron
Encoding: 333 275 333
Width: 591
Flags: W
LayerCount: 2
Fore
SplineSet
436 302 m 1
 434 363 421 408 398 439 c 0
 374 470 340 485 296 485 c 0
 255 485 222 470 198 438 c 0
 175 408 160 362 155 302 c 1
 436 302 l 1
542 250 m 1
 155 250 l 1
 155 246 l 2
 155 176 168 123 194 88 c 0
 221 52 260 34 311 34 c 0
 350 34 383 44 408 65 c 0
 433 86 451 116 461 157 c 1
 533 157 l 1
 519 100 493 58 454 29 c 0
 415 0 365 -14 302 -14 c 0
 226 -14 165 11 119 61 c 0
 73 111 50 177 50 260 c 0
 50 342 73 408 118 458 c 0
 163 508 223 533 296 533 c 0
 375 533 435 509 477 460 c 0
 519 412 541 342 542 250 c 1
442 673 m 1
 150 673 l 1
 150 745 l 1
 442 745 l 1
 442 673 l 1
EndSplineSet
AlternateSubs2: "'aalt' Access All Alternates in Mathematical Alphanumeric Symbols lookup 0 subtable" emacron.st emacron.sts
AlternateSubs2: "sstyMATH subtable" emacron.st emacron.sts
EndChar
StartChar: Edotaccent
Encoding: 334 278 334
Width: 729
Flags: W
LayerCount: 2
Fore
SplineSet
650 0 m 1x67a0
 55 0 l 1
 55 52 l 1
 148 52 l 1
 148 677 l 1
 55 677 l 1
 55 729 l 1
 642 729 l 1x6fc0
 642 567 l 1
 582 567 l 1
 582 669 l 1x37c0
 247 669 l 1
 247 425 l 1
 486 425 l 1
 486 516 l 1
 546 516 l 1
 546 274 l 1
 486 274 l 1
 486 365 l 1
 247 365 l 1
 247 60 l 1
 590 60 l 1xb7a0
 590 162 l 1
 650 162 l 1
 650 0 l 1x67a0
422 864 m 0
 422 848 416 834 406 824 c 0
 394 812 381 807 365 807 c 0
 349 807 336 812 324 824 c 0
 314 834 308 848 308 864 c 0
 308 879 314 892 325 904 c 0
 336 915 350 921 365 921 c 0
 380 921 394 915 405 904 c 0
 416 893 422 879 422 864 c 0
EndSplineSet
AlternateSubs2: "'aalt' Access All Alternates in Mathematical Alphanumeric Symbols lookup 0 subtable" Edotaccent.st Edotaccent.sts
AlternateSubs2: "sstyMATH subtable" Edotaccent.st Edotaccent.sts
EndChar
StartChar: edotaccent
Encoding: 335 279 335
Width: 591
Flags: W
LayerCount: 2
Fore
SplineSet
436 302 m 1
 434 363 421 408 398 439 c 0
 374 470 340 485 296 485 c 0
 255 485 222 470 198 438 c 0
 175 408 160 362 155 302 c 1
 436 302 l 1
542 250 m 1
 155 250 l 1
 155 246 l 2
 155 176 168 123 194 88 c 0
 221 52 260 34 311 34 c 0
 350 34 383 44 408 65 c 0
 433 86 451 116 461 157 c 1
 533 157 l 1
 519 100 493 58 454 29 c 0
 415 0 365 -14 302 -14 c 0
 226 -14 165 11 119 61 c 0
 73 111 50 177 50 260 c 0
 50 342 73 408 118 458 c 0
 163 508 223 533 296 533 c 0
 375 533 435 509 477 460 c 0
 519 412 541 342 542 250 c 1
353 709 m 0
 353 692 348 679 337 668 c 0
 326 657 313 652 296 652 c 0
 279 652 266 657 255 668 c 0
 244 679 239 692 239 709 c 0
 239 724 245 738 256 749 c 0
 267 760 281 766 296 766 c 0
 311 766 325 760 336 749 c 0
 347 738 353 724 353 709 c 0
EndSplineSet
AlternateSubs2: "'aalt' Access All Alternates in Mathematical Alphanumeric Symbols lookup 0 subtable" edotaccent.st edotaccent.sts
AlternateSubs2: "sstyMATH subtable" edotaccent.st edotaccent.sts
EndChar
StartChar: Eogonek
Encoding: 336 280 336
Width: 729
Flags: W
LayerCount: 2
Fore
SplineSet
650 0 m 1xb2a0
 576 0 l 1
 576 -1 l 1
 548 -41 534 -69 533 -84 c 0
 533 -99 539 -111 549 -120 c 0
 561 -129 575 -134 593 -134 c 0
 602 -134 611 -133 621 -130 c 0
 630 -128 640 -125 649 -121 c 1
 649 -183 l 1
 637 -186 625 -188 615 -190 c 0
 603 -191 593 -192 583 -192 c 0
 546 -192 518 -185 497 -170 c 0
 477 -155 467 -135 467 -109 c 0
 467 -93 472 -76 481 -60 c 0
 491 -42 507 -23 530 0 c 1xd320
 55 0 l 1
 55 52 l 1
 148 52 l 1
 148 677 l 1
 55 677 l 1
 55 729 l 1
 642 729 l 1xb740
 642 567 l 1
 582 567 l 1
 582 669 l 1x9b40
 247 669 l 1
 247 425 l 1
 486 425 l 1
 486 516 l 1
 546 516 l 1
 546 274 l 1
 486 274 l 1
 486 365 l 1
 247 365 l 1
 247 60 l 1
 590 60 l 1xdaa0
 590 162 l 1
 650 162 l 1
 650 0 l 1xb2a0
EndSplineSet
AlternateSubs2: "'aalt' Access All Alternates in Mathematical Alphanumeric Symbols lookup 0 subtable" Eogonek.st Eogonek.sts
AlternateSubs2: "sstyMATH subtable" Eogonek.st Eogonek.sts
EndChar
StartChar: eogonek
Encoding: 337 281 337
Width: 591
Flags: W
LayerCount: 2
Fore
SplineSet
436 302 m 1
 434 363 421 408 398 439 c 0
 374 470 340 485 296 485 c 0
 255 485 222 470 198 438 c 0
 175 408 160 362 155 302 c 1
 436 302 l 1
542 250 m 1
 155 250 l 1
 155 246 l 2
 155 176 168 123 194 88 c 0
 221 52 260 34 311 34 c 0
 350 34 383 44 408 65 c 0
 433 86 451 116 461 157 c 1
 533 157 l 1
 519 100 493 58 454 29 c 0
 437 17 419 7 398 0 c 1
 370 -41 356 -69 355 -84 c 0
 355 -99 361 -111 371 -120 c 0
 383 -129 397 -134 415 -134 c 0
 424 -134 433 -133 443 -130 c 0
 452 -128 462 -125 471 -121 c 1
 471 -183 l 1
 459 -186 447 -188 437 -190 c 0
 425 -191 415 -192 405 -192 c 0
 368 -192 340 -185 319 -170 c 0
 299 -155 289 -135 289 -109 c 0
 289 -93 294 -76 303 -60 c 0
 311 -45 323 -30 340 -12 c 1
 328 -13 315 -14 302 -14 c 0
 226 -14 165 11 119 61 c 0
 73 111 50 177 50 260 c 0
 50 342 73 408 118 458 c 0
 163 508 223 533 296 533 c 0
 375 533 435 509 477 460 c 0
 519 412 541 342 542 250 c 1
EndSplineSet
AlternateSubs2: "'aalt' Access All Alternates in Mathematical Alphanumeric Symbols lookup 0 subtable" eogonek.st eogonek.sts
AlternateSubs2: "sstyMATH subtable" eogonek.st eogonek.sts
EndChar
StartChar: Ecaron
Encoding: 338 282 338
Width: 729
Flags: W
LayerCount: 2
Fore
SplineSet
557 927 m 1x26
 444 798 l 1
 358 798 l 1
 245 927 l 1
 302 927 l 1
 401 848 l 1
 500 927 l 1
 557 927 l 1x26
650 0 m 1x6680
 55 0 l 1
 55 52 l 1
 148 52 l 1
 148 677 l 1
 55 677 l 1
 55 729 l 1
 642 729 l 1x6f
 642 567 l 1
 582 567 l 1
 582 669 l 1x37
 247 669 l 1
 247 425 l 1
 486 425 l 1
 486 516 l 1
 546 516 l 1
 546 274 l 1
 486 274 l 1
 486 365 l 1
 247 365 l 1
 247 60 l 1
 590 60 l 1xb680
 590 162 l 1
 650 162 l 1
 650 0 l 1x6680
EndSplineSet
AlternateSubs2: "'aalt' Access All Alternates in Mathematical Alphanumeric Symbols lookup 0 subtable" Ecaron.st Ecaron.sts
AlternateSubs2: "sstyMATH subtable" Ecaron.st Ecaron.sts
EndChar
StartChar: ecaron
Encoding: 339 283 339
Width: 591
Flags: W
LayerCount: 2
Fore
SplineSet
436 302 m 1
 434 363 421 408 398 439 c 0
 374 470 340 485 296 485 c 0
 255 485 222 470 198 438 c 0
 175 408 160 362 155 302 c 1
 436 302 l 1
542 250 m 1
 155 250 l 1
 155 246 l 2
 155 176 168 123 194 88 c 0
 221 52 260 34 311 34 c 0
 350 34 383 44 408 65 c 0
 433 86 451 116 461 157 c 1
 533 157 l 1
 519 100 493 58 454 29 c 0
 415 0 365 -14 302 -14 c 0
 226 -14 165 11 119 61 c 0
 73 111 50 177 50 260 c 0
 50 342 73 408 118 458 c 0
 163 508 223 533 296 533 c 0
 375 533 435 509 477 460 c 0
 519 412 541 342 542 250 c 1
452 800 m 1
 337 616 l 1
 255 616 l 1
 140 800 l 1
 197 800 l 1
 296 673 l 1
 395 800 l 1
 452 800 l 1
EndSplineSet
AlternateSubs2: "'aalt' Access All Alternates in Mathematical Alphanumeric Symbols lookup 0 subtable" ecaron.st ecaron.sts
AlternateSubs2: "sstyMATH subtable" ecaron.st ecaron.sts
EndChar
StartChar: Gbreve
Encoding: 340 286 340
Width: 798
Flags: W
LayerCount: 2
Fore
SplineSet
552 928 m 1xf8
 545 890 529 861 503 840 c 0
 477 820 443 810 400 810 c 0
 357 810 323 820 297 840 c 0
 271 860 255 889 248 928 c 1
 294 928 l 1
 300 910 312 897 329 888 c 0
 346 879 370 875 400 875 c 0
 430 875 454 879 471 888 c 0
 488 897 500 910 506 928 c 1
 552 928 l 1xf8
720 61 m 1xfc
 677 36 630 17 580 4 c 0
 530 -8 477 -14 420 -14 c 0
 310 -14 222 20 156 89 c 0
 89 158 56 249 56 364 c 0
 56 479 89 571 156 640 c 0
 222 708 311 742 424 742 c 0
 465 742 508 737 553 728 c 0
 598 718 645 703 695 684 c 1
 695 511 l 1
 640 511 l 1xfa
 629 572 605 617 569 646 c 0
 533 675 483 690 418 690 c 0
 334 690 271 663 230 609 c 0
 189 555 168 473 168 364 c 0
 168 257 189 176 232 120 c 0
 275 66 337 38 420 38 c 0
 457 38 492 42 526 52 c 0
 559 60 591 74 621 93 c 1
 621 281 l 1
 484 281 l 1
 484 333 l 1
 720 333 l 1
 720 61 l 1xfc
EndSplineSet
AlternateSubs2: "'aalt' Access All Alternates in Mathematical Alphanumeric Symbols lookup 0 subtable" Gbreve.st Gbreve.sts
AlternateSubs2: "sstyMATH subtable" Gbreve.st Gbreve.sts
EndChar
StartChar: gbreve
Encoding: 341 287 341
Width: 640
Flags: W
LayerCount: 2
Fore
SplineSet
435 234 m 2x2ea0
 435 285 l 2
 435 347 423 394 399 428 c 0
 375 460 340 477 295 477 c 0
 249 477 214 459 190 422 c 0
 167 386 155 332 155 260 c 0
 155 189 167 135 190 98 c 0
 214 60 249 42 295 42 c 0
 340 42 375 58 399 91 c 0
 423 124 435 171 435 234 c 2x2ea0
611 467 m 1x36a0
 525 467 l 1
 525 11 l 2
 525 -64 504 -121 464 -162 c 0
 422 -202 364 -222 288 -222 c 0xb6a0
 254 -222 221 -219 190 -213 c 0
 159 -207 129 -198 100 -185 c 1
 100 -76 l 1
 147 -76 l 1x65a0
 153 -110 167 -135 188 -150 c 0
 210 -166 241 -174 282 -174 c 0
 335 -174 373 -159 398 -129 c 0
 423 -99 435 -52 435 11 c 2
 435 81 l 1
 418 48 395 24 368 9 c 0
 341 -6 307 -14 267 -14 c 0
 203 -14 151 11 110 62 c 0
 70 113 50 179 50 260 c 0
 50 341 70 407 110 458 c 0
 151 508 203 533 267 533 c 0xaea0
 307 533 341 525 368 510 c 0
 395 495 418 471 435 438 c 1
 435 519 l 1
 611 519 l 1
 611 467 l 1x36a0
473 785 m 1x24c0
 470 738 455 703 430 680 c 0
 404 657 367 645 320 645 c 0
 273 645 236 657 210 680 c 0
 185 703 170 738 167 785 c 1
 214 785 l 1
 218 759 228 740 246 729 c 0
 262 718 287 712 320 712 c 0
 353 712 378 718 394 730 c 0
 412 741 422 760 426 785 c 1
 473 785 l 1x24c0
EndSplineSet
AlternateSubs2: "'aalt' Access All Alternates in Mathematical Alphanumeric Symbols lookup 0 subtable" gbreve.st gbreve.sts
AlternateSubs2: "sstyMATH subtable" gbreve.st gbreve.sts
EndChar
StartChar: Gcommaaccent
Encoding: 342 290 342
Width: 798
Flags: W
LayerCount: 2
Fore
SplineSet
720 61 m 1xfc
 677 36 630 17 580 4 c 0
 530 -8 477 -14 420 -14 c 0
 310 -14 222 20 156 89 c 0
 89 158 56 249 56 364 c 0
 56 479 89 571 156 640 c 0
 222 708 311 742 424 742 c 0
 465 742 508 737 553 728 c 0
 598 718 645 703 695 684 c 1
 695 511 l 1
 640 511 l 1xfa
 629 572 605 617 569 646 c 0
 533 675 483 690 418 690 c 0
 334 690 271 663 230 609 c 0
 189 555 168 473 168 364 c 0
 168 257 189 176 232 120 c 0
 275 66 337 38 420 38 c 0
 457 38 492 42 526 52 c 0
 559 60 591 74 621 93 c 1
 621 281 l 1
 484 281 l 1
 484 333 l 1
 720 333 l 1
 720 61 l 1xfc
493 -75 m 1
 491 -108 481 -137 462 -161 c 0
 443 -185 415 -206 376 -224 c 1
 345 -200 l 1
 370 -186 388 -170 399 -152 c 0
 410 -134 416 -112 416 -86 c 2
 416 -75 l 1
 493 -75 l 1
EndSplineSet
AlternateSubs2: "'aalt' Access All Alternates in Mathematical Alphanumeric Symbols lookup 0 subtable" Gcommaaccent.st Gcommaaccent.sts
AlternateSubs2: "sstyMATH subtable" Gcommaaccent.st Gcommaaccent.sts
EndChar
StartChar: gcommaaccent
Encoding: 343 291 343
Width: 640
Flags: W
LayerCount: 2
Fore
SplineSet
435 234 m 2x2ec0
 435 285 l 2
 435 347 423 394 399 428 c 0
 375 460 340 477 295 477 c 0
 249 477 214 459 190 422 c 0
 167 386 155 332 155 260 c 0
 155 189 167 135 190 98 c 0
 214 60 249 42 295 42 c 0
 340 42 375 58 399 91 c 0
 423 124 435 171 435 234 c 2x2ec0
611 467 m 1x36c0
 525 467 l 1
 525 11 l 2
 525 -64 504 -121 464 -162 c 0
 422 -202 364 -222 288 -222 c 0xb6c0
 254 -222 221 -219 190 -213 c 0
 159 -207 129 -198 100 -185 c 1
 100 -76 l 1
 147 -76 l 1x65c0
 153 -110 167 -135 188 -150 c 0
 210 -166 241 -174 282 -174 c 0
 335 -174 373 -159 398 -129 c 0
 423 -99 435 -52 435 11 c 2
 435 81 l 1
 418 48 395 24 368 9 c 0
 341 -6 307 -14 267 -14 c 0
 203 -14 151 11 110 62 c 0
 70 113 50 179 50 260 c 0
 50 341 70 407 110 458 c 0
 151 508 203 533 267 533 c 0xaec0
 307 533 341 525 368 510 c 0
 395 495 418 471 435 438 c 1
 435 519 l 1
 611 519 l 1
 611 467 l 1x36c0
410 718 m 1
 385 704 367 688 356 670 c 0
 345 652 339 630 339 604 c 2
 339 593 l 1
 262 593 l 1
 264 626 275 655 294 679 c 0
 313 703 341 724 379 742 c 1
 410 718 l 1
EndSplineSet
AlternateSubs2: "'aalt' Access All Alternates in Mathematical Alphanumeric Symbols lookup 0 subtable" gcommaaccent.st gcommaaccent.sts
AlternateSubs2: "sstyMATH subtable" gcommaaccent.st gcommaaccent.sts
EndChar
StartChar: Itilde
Encoding: 344 296 344
Width: 395
Flags: W
LayerCount: 2
Fore
SplineSet
340 0 m 1xce
 55 0 l 1
 55 52 l 1
 148 52 l 1
 148 677 l 1
 55 677 l 1
 55 729 l 1
 340 729 l 1
 340 677 l 1
 247 677 l 1
 247 52 l 1
 340 52 l 1
 340 0 l 1xce
358 921 m 1xde
 357 887 349 861 332 842 c 0
 315 823 292 814 261 814 c 0xee
 239 814 216 821 193 836 c 2
 191 837 l 1
 167 851 l 2
 160 855 154 858 147 860 c 0
 140 863 134 864 129 864 c 0xde
 116 864 106 859 98 850 c 0
 89 841 84 829 83 814 c 1
 36 814 l 1xee
 37 847 45 873 62 892 c 0
 79 911 101 921 128 921 c 0xde
 140 921 151 920 161 916 c 0
 171 914 185 907 203 897 c 2
 227 884 l 2
 234 880 242 877 248 874 c 0
 256 872 262 871 268 871 c 0xee
 281 871 292 876 300 884 c 0
 307 894 311 906 311 921 c 1
 358 921 l 1xde
EndSplineSet
AlternateSubs2: "'aalt' Access All Alternates in Mathematical Alphanumeric Symbols lookup 0 subtable" Itilde.st Itilde.sts
AlternateSubs2: "sstyMATH subtable" Itilde.st Itilde.sts
EndChar
StartChar: itilde
Encoding: 345 297 345
Width: 319
Flags: W
ItalicCorrection: 30
LayerCount: 2
Fore
SplineSet
297 0 m 1
 36 0 l 1
 36 52 l 1
 122 52 l 1
 122 467 l 1
 36 467 l 1
 36 519 l 1
 212 519 l 1
 212 52 l 1
 297 52 l 1
 297 0 l 1
321 777 m 1
 320 733 312 699 295 675 c 0
 278 651 255 639 226 639 c 0
 213 639 202 641 192 646 c 0
 181 651 170 658 158 669 c 2
 130 696 l 2
 121 704 114 709 109 712 c 0
 104 714 98 715 92 715 c 0
 78 715 67 708 60 696 c 0
 52 682 47 664 46 639 c 1
 -1 639 l 1
 0 683 8 717 25 741 c 0
 42 765 65 777 94 777 c 0
 107 777 118 775 128 770 c 0
 139 765 150 758 162 747 c 2
 190 720 l 2
 197 713 204 708 210 705 c 0
 215 702 221 701 228 701 c 0
 242 701 253 708 260 720 c 0
 268 734 273 752 274 777 c 1
 321 777 l 1
EndSplineSet
AlternateSubs2: "'aalt' Access All Alternates in Mathematical Alphanumeric Symbols lookup 0 subtable" itilde.st itilde.sts
AlternateSubs2: "sstyMATH subtable" itilde.st itilde.sts
EndChar
StartChar: Imacron
Encoding: 346 298 346
Width: 395
Flags: W
LayerCount: 2
Fore
SplineSet
340 0 m 1
 55 0 l 1
 55 52 l 1
 148 52 l 1
 148 677 l 1
 55 677 l 1
 55 729 l 1
 340 729 l 1
 340 677 l 1
 247 677 l 1
 247 52 l 1
 340 52 l 1
 340 0 l 1
344 827 m 1
 52 827 l 1
 52 899 l 1
 344 899 l 1
 344 827 l 1
EndSplineSet
AlternateSubs2: "'aalt' Access All Alternates in Mathematical Alphanumeric Symbols lookup 0 subtable" Imacron.st Imacron.sts
AlternateSubs2: "sstyMATH subtable" Imacron.st Imacron.sts
EndChar
StartChar: imacron
Encoding: 347 299 347
Width: 319
Flags: W
ItalicCorrection: 6
LayerCount: 2
Fore
SplineSet
297 0 m 1
 36 0 l 1
 36 52 l 1
 122 52 l 1
 122 467 l 1
 36 467 l 1
 36 519 l 1
 212 519 l 1
 212 52 l 1
 297 52 l 1
 297 0 l 1
270 673 m 1
 -22 673 l 1
 -22 745 l 1
 270 745 l 1
 270 673 l 1
EndSplineSet
AlternateSubs2: "'aalt' Access All Alternates in Mathematical Alphanumeric Symbols lookup 0 subtable" imacron.st imacron.sts
AlternateSubs2: "sstyMATH subtable" imacron.st imacron.sts
EndChar
StartChar: Iogonek
Encoding: 348 302 348
Width: 395
Flags: W
LayerCount: 2
Fore
SplineSet
340 0 m 1xe8
 247 0 l 1
 247 -1 l 1xe8
 219 -41 205 -69 204 -84 c 0
 204 -99 210 -111 220 -120 c 0
 232 -129 246 -134 264 -134 c 0
 273 -134 282 -133 292 -130 c 0
 301 -128 311 -125 320 -121 c 1
 320 -183 l 1
 308 -186 296 -188 286 -190 c 0
 274 -191 264 -192 254 -192 c 0
 217 -192 189 -185 168 -170 c 0
 148 -155 138 -135 138 -109 c 0xf0
 138 -93 143 -76 152 -60 c 0
 162 -42 178 -23 201 0 c 1
 55 0 l 1
 55 52 l 1
 148 52 l 1
 148 677 l 1
 55 677 l 1
 55 729 l 1
 340 729 l 1
 340 677 l 1
 247 677 l 1
 247 52 l 1
 340 52 l 1
 340 0 l 1xe8
EndSplineSet
AlternateSubs2: "'aalt' Access All Alternates in Mathematical Alphanumeric Symbols lookup 0 subtable" Iogonek.st Iogonek.sts
AlternateSubs2: "sstyMATH subtable" Iogonek.st Iogonek.sts
EndChar
StartChar: iogonek
Encoding: 349 303 349
Width: 319
Flags: W
ItalicCorrection: 6
LayerCount: 2
Fore
SplineSet
297 0 m 1xf4
 212 0 l 1
 212 -1 l 1xf4
 184 -41 170 -69 169 -84 c 0
 169 -99 175 -111 185 -120 c 0
 197 -129 211 -134 229 -134 c 0
 238 -134 247 -133 257 -130 c 0
 266 -128 276 -125 285 -121 c 1
 285 -183 l 1
 273 -186 261 -188 251 -190 c 0
 239 -191 229 -192 219 -192 c 0
 182 -192 154 -185 133 -170 c 0
 113 -155 103 -135 103 -109 c 0xf8
 103 -93 108 -76 117 -60 c 0
 127 -42 143 -23 166 0 c 1
 36 0 l 1
 36 52 l 1
 122 52 l 1
 122 467 l 1
 36 467 l 1
 36 519 l 1
 212 519 l 1
 212 52 l 1
 297 52 l 1
 297 0 l 1xf4
208 680 m 0
 208 665 203 652 192 641 c 0
 181 630 168 625 153 625 c 0
 138 625 124 630 114 641 c 0
 102 652 97 665 97 680 c 0
 97 695 102 708 114 719 c 0
 124 730 138 736 153 736 c 0
 168 736 181 730 192 720 c 0
 202 708 208 695 208 680 c 0
EndSplineSet
AlternateSubs2: "'aalt' Access All Alternates in Mathematical Alphanumeric Symbols lookup 0 subtable" iogonek.st iogonek.sts
AlternateSubs2: "sstyMATH subtable" iogonek.st iogonek.sts
EndChar
StartChar: Idotaccent
Encoding: 350 304 350
Width: 395
Flags: W
LayerCount: 2
Fore
SplineSet
255 864 m 0xf0
 255 848 250 834 238 824 c 0
 228 812 214 807 198 807 c 0
 182 807 168 812 158 824 c 0
 146 834 141 848 141 864 c 0
 141 879 147 892 158 904 c 0
 169 915 183 921 198 921 c 0
 213 921 227 915 238 904 c 0
 249 893 255 879 255 864 c 0xf0
340 0 m 1
 55 0 l 1
 55 52 l 1
 148 52 l 1
 148 677 l 1
 55 677 l 1
 55 729 l 1
 340 729 l 1
 340 677 l 1
 247 677 l 1
 247 52 l 1xe8
 340 52 l 1
 340 0 l 1
EndSplineSet
AlternateSubs2: "'aalt' Access All Alternates in Mathematical Alphanumeric Symbols lookup 0 subtable" Idotaccent.st Idotaccent.sts
AlternateSubs2: "sstyMATH subtable" Idotaccent.st Idotaccent.sts
EndChar
StartChar: I_J
Encoding: 351 306 351
Width: 801
Flags: W
LayerCount: 2
Fore
SplineSet
755 677 m 1xbe
 662 677 l 1
 662 20 l 2
 662 -61 646 -119 614 -154 c 0
 582 -190 530 -208 458 -208 c 0xbe
 435 -208 411 -205 388 -200 c 0
 364 -195 340 -186 316 -175 c 1
 316 -60 l 1
 372 -60 l 1x7e
 373 -92 380 -116 394 -132 c 0
 409 -148 430 -156 459 -156 c 0
 498 -156 525 -144 540 -120 c 0
 555 -95 563 -47 563 24 c 2
 563 677 l 1
 450 677 l 1
 450 729 l 1
 755 729 l 1
 755 677 l 1xbe
340 0 m 1
 55 0 l 1
 55 52 l 1
 148 52 l 1
 148 677 l 1
 55 677 l 1
 55 729 l 1
 340 729 l 1
 340 677 l 1
 247 677 l 1
 247 52 l 1
 340 52 l 1
 340 0 l 1
EndSplineSet
AlternateSubs2: "'aalt' Access All Alternates in Mathematical Alphanumeric Symbols lookup 0 subtable" I_J.st I_J.sts
AlternateSubs2: "sstyMATH subtable" I_J.st I_J.sts
EndChar
StartChar: i_j
Encoding: 352 307 352
Width: 533
Flags: W
LayerCount: 2
Fore
SplineSet
497 -51 m 2xb940
 497 -104 481 -146 450 -176 c 0
 418 -207 374 -222 318 -222 c 0xb940
 295 -222 272 -219 251 -214 c 0
 230 -209 209 -201 189 -190 c 1
 189 -83 l 1
 235 -83 l 1x7940
 237 -114 245 -137 259 -152 c 0
 273 -167 293 -174 320 -174 c 0
 349 -174 371 -164 386 -144 c 0
 400 -124 407 -93 407 -51 c 2
 407 467 l 1
 322 467 l 1
 322 519 l 1
 497 519 l 1
 497 -51 l 2xb940
496 680 m 0x3880
 496 665 491 652 480 641 c 0
 469 630 456 625 441 625 c 0
 426 625 412 630 402 641 c 0
 390 652 385 665 385 680 c 0
 385 695 390 708 402 719 c 0
 413 730 426 736 441 736 c 0
 456 736 468 730 480 720 c 0
 490 708 496 695 496 680 c 0x3880
297 0 m 1
 36 0 l 1
 36 52 l 1
 122 52 l 1
 122 467 l 1
 36 467 l 1
 36 519 l 1
 212 519 l 1
 212 52 l 1x3a
 297 52 l 1
 297 0 l 1
208 680 m 0x3c
 208 665 203 652 192 641 c 0
 181 630 168 625 153 625 c 0
 138 625 124 630 114 641 c 0
 102 652 97 665 97 680 c 0
 97 695 102 708 114 719 c 0
 124 730 138 736 153 736 c 0
 168 736 181 730 192 720 c 0
 202 708 208 695 208 680 c 0x3c
EndSplineSet
AlternateSubs2: "'aalt' Access All Alternates in Mathematical Alphanumeric Symbols lookup 0 subtable" i_j.st i_j.sts
AlternateSubs2: "sstyMATH subtable" i_j.st i_j.sts
EndChar
StartChar: Kcommaaccent
Encoding: 353 310 353
Width: 747
Flags: W
ItalicCorrection: 43
LayerCount: 2
Fore
SplineSet
762 0 m 1
 593 0 l 1
 247 346 l 1
 247 52 l 1
 340 52 l 1
 340 0 l 1
 55 0 l 1
 55 52 l 1
 148 52 l 1
 148 677 l 1
 55 677 l 1
 55 729 l 1
 340 729 l 1
 340 677 l 1
 247 677 l 1
 247 401 l 1
 561 677 l 1
 482 677 l 1
 482 729 l 1
 724 729 l 1
 724 677 l 1
 642 677 l 1
 329 402 l 1
 679 52 l 1
 762 52 l 1
 762 0 l 1
482 -61 m 1
 480 -94 470 -123 451 -147 c 0
 432 -171 404 -192 365 -210 c 1
 334 -186 l 1
 359 -172 377 -156 388 -138 c 0
 399 -120 405 -98 405 -72 c 2
 405 -61 l 1
 482 -61 l 1
EndSplineSet
AlternateSubs2: "'aalt' Access All Alternates in Mathematical Alphanumeric Symbols lookup 0 subtable" Kcommaaccent.st Kcommaaccent.sts
AlternateSubs2: "sstyMATH subtable" Kcommaaccent.st Kcommaaccent.sts
EndChar
StartChar: kcommaaccent
Encoding: 354 311 354
Width: 605
Flags: W
ItalicCorrection: 36
LayerCount: 2
Fore
SplineSet
613 0 m 1
 357 0 l 1
 357 52 l 1
 431 52 l 1
 276 265 l 1
 205 199 l 1
 205 52 l 1
 286 52 l 1
 286 0 l 1
 34 0 l 1
 34 52 l 1
 115 52 l 1
 115 708 l 1
 29 708 l 1
 29 760 l 1
 205 760 l 1
 205 265 l 1
 424 467 l 1
 349 467 l 1
 349 519 l 1
 584 519 l 1
 584 467 l 1
 495 467 l 1
 341 324 l 1
 538 52 l 1
 613 52 l 1
 613 0 l 1
396 -61 m 1
 394 -94 384 -123 365 -147 c 0
 346 -171 318 -192 279 -210 c 1
 248 -186 l 1
 273 -172 291 -156 302 -138 c 0
 313 -120 319 -98 319 -72 c 2
 319 -61 l 1
 396 -61 l 1
EndSplineSet
AlternateSubs2: "'aalt' Access All Alternates in Mathematical Alphanumeric Symbols lookup 0 subtable" kcommaaccent.st kcommaaccent.sts
AlternateSubs2: "sstyMATH subtable" kcommaaccent.st kcommaaccent.sts
EndChar
StartChar: Lacute
Encoding: 355 313 355
Width: 664
Flags: W
ItalicCorrection: 4
LayerCount: 2
Fore
SplineSet
640 0 m 1x78
 55 0 l 1
 55 52 l 1
 148 52 l 1x78
 148 677 l 1
 55 677 l 1
 55 729 l 1
 340 729 l 1
 340 677 l 1
 247 677 l 1
 247 60 l 1
 580 60 l 1xb8
 580 182 l 1
 640 182 l 1
 640 0 l 1x78
302 928 m 1
 174 799 l 1
 117 799 l 1
 206 928 l 1
 302 928 l 1
EndSplineSet
AlternateSubs2: "'aalt' Access All Alternates in Mathematical Alphanumeric Symbols lookup 0 subtable" Lacute.st Lacute.sts
AlternateSubs2: "sstyMATH subtable" Lacute.st Lacute.sts
EndChar
